<?xml version="1.0" standalone="no"?>
<!DOCTYPE svg PUBLIC "-//W3C//DTD SVG 20010904//EN"
 "http://www.w3.org/TR/2001/REC-SVG-20010904/DTD/svg10.dtd">
<svg version="1.0" xmlns="http://www.w3.org/2000/svg"
 width="2084.000000pt" height="438.000000pt" viewBox="0 0 2084.000000 438.000000"
 preserveAspectRatio="xMidYMid meet">

<g transform="translate(0.000000,438.000000) scale(0.100000,-0.100000)"
fill="#000000" stroke="none">
<path d="M613 4044 c-137 -19 -315 -57 -385 -84 -133 -50 -252 -227 -208 -309
23 -44 189 -75 265 -49 77 25 44 90 -53 103 -26 4 -58 10 -72 15 -24 8 -24 8
14 25 136 58 455 76 786 44 736 -72 1514 -401 2025 -857 276 -245 465 -562
482 -807 9 -144 -42 -305 -135 -422 -123 -154 -400 -287 -707 -340 -145 -25
-572 -25 -705 0 -51 10 -95 19 -96 20 -1 1 -5 199 -10 441 l-7 439 109 -7
c279 -18 666 -100 738 -157 56 -44 22 -110 -87 -165 -79 -41 -50 -78 72 -90
120 -13 221 43 278 155 39 74 42 126 14 201 -61 160 -240 263 -572 329 -166
32 -251 41 -410 41 l-149 0 0 78 c0 280 -73 527 -170 577 -25 13 -30 13 -48
-3 -12 -9 -28 -42 -37 -72 -21 -73 -54 -334 -62 -487 -5 -100 -9 -123 -22
-127 -9 -3 -56 -12 -106 -21 -185 -33 -443 -122 -563 -193 -145 -86 -202 -161
-202 -265 0 -108 104 -259 286 -417 166 -144 324 -250 510 -342 l82 -40 11
-87 c15 -120 28 -158 64 -197 50 -55 143 -66 219 -28 29 15 58 89 58 147 0 25
3 28 23 24 549 -135 1154 -54 1557 208 138 89 256 225 339 389 68 133 86 211
86 376 0 159 -13 214 -85 371 -139 305 -372 572 -739 847 -523 391 -1252 680
-1870 742 -140 14 -394 11 -518 -6z m854 -2183 l2 -380 -57 20 c-198 71 -472
240 -616 379 -140 135 -148 175 -48 228 63 33 198 71 352 97 95 17 350 44 361
39 3 -2 6 -174 6 -383z"/>
<path d="M4347 3780 c-162 -28 -335 -119 -471 -249 -185 -178 -226 -369 -116
-542 26 -40 34 -66 41 -127 4 -42 8 -78 8 -79 1 -1 15 -18 32 -38 48 -54 90
-45 134 29 l25 44 43 -16 c28 -10 79 -15 152 -16 99 0 120 3 205 32 225 77
473 270 551 427 31 63 34 78 34 156 0 77 -3 90 -28 127 -35 54 -96 98 -161
117 -29 9 -65 30 -86 49 -84 82 -210 111 -363 86z m-221 -380 c-63 -61 -140
-147 -172 -191 -52 -71 -60 -78 -71 -62 -19 26 -16 81 9 132 45 94 198 211
300 230 24 4 44 7 46 5 2 -1 -49 -52 -112 -114z m634 75 c34 -18 60 -62 60
-102 -1 -128 -211 -290 -438 -338 -67 -15 -243 -20 -255 -9 -12 13 81 129 183
227 201 195 356 271 450 222z"/>
<path d="M10420 2046 l0 -876 145 0 145 0 0 345 0 345 153 0 153 0 194 -342
195 -343 159 -3 c137 -2 158 -1 153 12 -4 9 -94 171 -202 361 -107 190 -195
348 -195 350 0 2 17 9 38 15 79 26 173 83 221 136 82 89 121 202 121 349 0
214 -90 369 -263 451 -133 63 -167 67 -614 71 l-403 4 0 -875z m764 593 c150
-26 226 -111 226 -255 0 -114 -54 -194 -157 -235 -53 -21 -78 -23 -300 -27
l-243 -4 0 266 0 266 207 0 c113 0 234 -5 267 -11z"/>
<path d="M19090 2045 l0 -875 150 0 150 0 0 438 1 437 47 38 c152 122 346 154
424 69 46 -50 48 -68 48 -538 l0 -444 150 0 150 0 0 448 c0 246 -5 481 -10
522 -25 194 -135 297 -330 308 -152 8 -301 -39 -422 -134 l-58 -45 0 325 0
326 -150 0 -150 0 0 -875z"/>
<path d="M6570 2745 c-20 -25 -15 -84 20 -215 86 -327 101 -388 120 -496 22
-131 36 -303 26 -329 -5 -15 -9 -15 -22 -4 -9 7 -112 157 -229 334 -237 357
-282 413 -336 421 -67 11 -111 -58 -172 -271 -110 -384 -127 -774 -39 -900 35
-50 96 -74 142 -55 61 25 75 100 90 490 6 151 13 285 16 298 13 49 22 36 170
-243 140 -264 246 -420 305 -451 41 -20 115 -18 166 7 125 60 196 238 197 489
0 189 -36 362 -112 551 -98 239 -284 443 -342 374z"/>
<path d="M7780 2589 c-138 -14 -375 -48 -471 -68 -102 -21 -134 -42 -124 -80
16 -63 70 -102 180 -131 28 -7 51 -14 53 -15 5 -4 -72 -201 -85 -216 -8 -9
-31 -19 -52 -23 -70 -11 -85 -52 -62 -173 10 -50 8 -58 -31 -155 -38 -95 -41
-111 -42 -198 -1 -84 2 -102 28 -158 97 -209 324 -238 641 -80 104 52 207 121
241 160 22 27 25 39 21 75 -5 47 -45 108 -82 125 -17 8 -79 1 -254 -26 -128
-21 -247 -36 -265 -34 l-34 3 39 121 c26 81 45 124 56 128 10 4 110 9 223 12
113 3 215 7 227 10 39 7 53 32 53 89 0 123 -23 135 -261 135 -133 0 -170 3
-166 13 2 6 14 46 27 88 l22 76 212 6 c246 6 338 22 374 63 29 33 24 60 -25
132 -41 60 -99 104 -158 121 -45 12 -160 12 -285 0z"/>
<path d="M5161 2559 c-179 -14 -372 -62 -485 -122 -139 -74 -210 -176 -211
-302 0 -63 3 -76 27 -107 51 -67 95 -78 427 -108 248 -22 322 -32 426 -57 138
-32 215 -80 215 -134 0 -58 -137 -140 -310 -187 -85 -22 -115 -25 -280 -26
-173 -1 -188 0 -235 22 -61 28 -95 59 -95 87 0 55 67 92 151 82 27 -3 102 -28
166 -54 111 -45 123 -48 208 -48 136 1 261 55 253 109 -10 71 -330 153 -556
143 -141 -6 -194 -23 -262 -84 -173 -155 -15 -399 328 -507 254 -80 539 -41
714 98 167 132 185 429 35 579 -83 83 -184 109 -619 161 -163 20 -307 40 -321
45 -36 14 -41 28 -15 45 59 37 240 63 538 76 275 12 417 26 464 45 48 20 86
69 86 111 0 33 -4 37 -53 60 -83 37 -197 63 -334 74 -69 5 -133 9 -142 9 -9
-1 -63 -5 -120 -10z"/>
<path d="M4118 2533 c-26 -30 -37 -59 -53 -135 -63 -299 -73 -955 -16 -1084
25 -55 78 -84 155 -84 47 0 61 4 86 28 47 42 52 95 40 402 -25 642 -55 831
-139 874 -39 20 -54 20 -73 -1z"/>
<path d="M8655 2477 c-134 -138 -284 -389 -339 -564 -53 -172 -53 -324 0 -479
l24 -71 -34 -89 c-129 -339 -208 -691 -209 -934 -1 -99 2 -122 21 -165 29 -62
62 -98 128 -136 59 -33 85 -36 106 -11 9 10 39 130 72 287 62 295 117 516 173
698 l36 117 58 0 c181 0 390 85 567 231 123 101 212 231 260 377 33 104 42
305 18 402 -49 196 -162 304 -284 271 -88 -23 -162 -79 -328 -245 -120 -121
-194 -206 -297 -344 -135 -181 -136 -182 -142 -149 -16 86 44 270 147 449 107
185 148 277 155 341 4 39 2 62 -7 72 -25 30 -54 16 -125 -58z m698 -344 c61
-121 -4 -343 -141 -482 -82 -83 -211 -152 -321 -171 -39 -7 -74 -10 -77 -7
-11 11 190 327 298 470 82 108 187 217 209 217 10 0 25 -12 32 -27z"/>
<path d="M12303 2435 c-165 -36 -314 -150 -389 -296 -50 -99 -68 -192 -68
-344 1 -226 50 -362 174 -485 119 -119 256 -166 462 -158 190 8 318 58 448
176 l45 41 -76 76 -76 77 -62 -45 c-98 -73 -156 -91 -286 -92 -91 0 -118 4
-156 21 -92 43 -158 126 -174 220 -4 21 -9 47 -12 57 -4 16 21 17 428 17 l432
0 -6 128 c-10 217 -63 366 -165 471 -31 32 -78 70 -103 84 -102 60 -278 82
-416 52z m239 -237 c86 -26 160 -124 175 -233 l6 -45 -292 0 c-234 0 -291 3
-291 13 0 32 32 117 60 160 31 46 77 82 135 104 40 15 157 16 207 1z"/>
<path d="M13491 2434 c-116 -25 -218 -88 -266 -164 -85 -134 -66 -331 40 -429
68 -63 152 -99 356 -151 207 -54 234 -65 273 -110 53 -63 20 -149 -69 -184
-37 -14 -75 -19 -150 -19 -124 0 -227 31 -329 98 -38 25 -70 45 -71 45 -2 0
-38 -39 -80 -87 l-78 -87 41 -37 c52 -46 164 -101 262 -129 105 -31 316 -39
424 -16 201 41 320 149 346 313 19 117 -17 230 -96 303 -65 59 -151 95 -342
141 -252 61 -302 89 -302 172 0 60 27 92 92 112 122 36 285 3 414 -85 25 -16
49 -30 54 -30 4 0 38 41 75 92 l68 92 -28 22 c-54 43 -151 95 -213 114 -134
42 -298 51 -421 24z"/>
<path d="M14783 2435 c-165 -36 -314 -150 -389 -296 -50 -99 -68 -192 -68
-344 1 -226 50 -362 174 -485 119 -119 256 -166 462 -158 190 8 318 58 448
176 l45 41 -76 76 -76 77 -62 -45 c-98 -73 -156 -91 -286 -92 -91 0 -118 4
-156 21 -92 43 -158 126 -174 220 -4 21 -9 47 -12 57 -4 16 21 17 428 17 l432
0 -6 128 c-10 217 -63 366 -165 471 -31 32 -78 70 -103 84 -102 60 -278 82
-416 52z m239 -237 c86 -26 160 -124 175 -233 l6 -45 -292 0 c-234 0 -291 3
-291 13 0 32 32 117 60 160 31 46 77 82 135 104 40 15 157 16 207 1z"/>
<path d="M16075 2435 c-141 -26 -266 -79 -373 -160 -34 -26 -62 -49 -62 -51 0
-3 32 -45 70 -94 l71 -89 63 45 c164 114 366 157 476 102 63 -33 82 -64 84
-135 1 -58 1 -58 -29 -61 -65 -6 -255 -44 -340 -68 -320 -91 -480 -281 -435
-516 15 -84 57 -149 122 -192 71 -47 124 -59 243 -59 157 0 296 46 392 127 22
20 43 36 46 36 2 0 7 -23 11 -50 14 -105 5 -100 171 -100 80 0 145 1 145 3 0
1 -5 18 -12 37 -7 23 -14 190 -18 475 -8 475 -10 493 -66 595 -28 52 -73 94
-129 122 -88 45 -286 60 -430 33z m335 -780 l0 -134 -46 -35 c-170 -130 -409
-143 -469 -26 -50 96 20 200 174 259 90 35 312 84 334 73 4 -2 7 -63 7 -137z"/>
<path d="M17554 2435 c-116 -25 -245 -106 -283 -179 -8 -14 -18 -26 -23 -26
-4 0 -8 45 -8 100 l0 100 -145 0 -145 0 0 -630 0 -630 145 0 145 0 0 398 0
397 47 59 c88 110 233 175 369 164 l54 -5 0 57 c0 31 3 91 6 133 l7 77 -54 -1
c-30 0 -82 -7 -115 -14z"/>
<path d="M18255 2435 c-228 -50 -383 -203 -441 -435 -14 -55 -19 -109 -18
-205 1 -152 18 -234 70 -344 42 -86 140 -190 219 -233 161 -86 410 -91 567
-12 92 46 211 178 253 277 l14 33 -121 44 c-99 36 -121 41 -129 29 -5 -8 -9
-19 -9 -25 0 -6 -18 -36 -40 -66 -55 -78 -117 -108 -218 -108 -41 0 -93 5
-116 12 -59 18 -137 98 -167 173 -21 54 -24 75 -24 220 0 145 3 166 24 219 30
76 98 149 159 173 62 24 163 23 224 0 54 -21 130 -98 150 -153 6 -19 15 -34
19 -34 21 0 239 83 239 91 0 5 -16 40 -35 78 -44 89 -128 179 -202 218 -111
59 -282 78 -418 48z"/>
</g>
</svg>
