<?xml version="1.0" standalone="no"?>
<!DOCTYPE svg PUBLIC "-//W3C//DTD SVG 20010904//EN"
 "http://www.w3.org/TR/2001/REC-SVG-20010904/DTD/svg10.dtd">
<svg version="1.0" xmlns="http://www.w3.org/2000/svg"
 width="200.000000pt" height="200.000000pt" viewBox="0 0 200.000000 200.000000"
 preserveAspectRatio="xMidYMid meet">

<g transform="translate(0.000000,200.000000) scale(0.100000,-0.100000)"
fill="#000000" stroke="none">
<path d="M0 1000 l0 -1000 1000 0 1000 0 0 1000 0 1000 -1000 0 -1000 0 0
-1000z m1010 490 c0 -5 -4 -10 -10 -10 -5 0 -10 5 -10 10 0 6 5 10 10 10 6 0
10 -4 10 -10z m-160 -39 c0 -6 -4 -13 -10 -16 -5 -3 -10 1 -10 9 0 9 5 16 10
16 6 0 10 -4 10 -9z m320 -1 c0 -5 -4 -10 -10 -10 -5 0 -10 5 -10 10 0 6 5 10
10 10 6 0 10 -4 10 -10z m-200 -20 c0 -5 -4 -10 -10 -10 -5 0 -10 5 -10 10 0
6 5 10 10 10 6 0 10 -4 10 -10z m80 0 c0 -5 -4 -10 -10 -10 -5 0 -10 5 -10 10
0 6 5 10 10 10 6 0 10 -4 10 -10z m-150 -20 c0 -5 -4 -10 -10 -10 -5 0 -10 5
-10 10 0 6 5 10 10 10 6 0 10 -4 10 -10z m220 0 c0 -5 -4 -10 -10 -10 -5 0
-10 5 -10 10 0 6 5 10 10 10 6 0 10 -4 10 -10z m-285 -40 c3 -5 -1 -10 -10
-10 -9 0 -13 5 -10 10 3 6 8 10 10 10 2 0 7 -4 10 -10z m345 0 c0 -5 -4 -10
-10 -10 -5 0 -10 5 -10 10 0 6 5 10 10 10 6 0 10 -4 10 -10z m-450 -40 c0 -5
-4 -10 -10 -10 -5 0 -10 5 -10 10 0 6 5 10 10 10 6 0 10 -4 10 -10z m560 0 c0
-5 -4 -10 -10 -10 -5 0 -10 5 -10 10 0 6 5 10 10 10 6 0 10 -4 10 -10z m-500
-14 c0 -3 -4 -8 -10 -11 -5 -3 -10 -1 -10 4 0 6 5 11 10 11 6 0 10 -2 10 -4z
m440 -6 c0 -5 -2 -10 -4 -10 -3 0 -8 5 -11 10 -3 6 -1 10 4 10 6 0 11 -4 11
-10z m-173 -65 c28 -20 46 -75 34 -106 -15 -40 -49 -64 -91 -64 -67 0 -110 59
-90 121 14 43 44 64 90 64 20 0 45 -7 57 -15z m-307 -5 c0 -5 -2 -10 -4 -10
-3 0 -8 5 -11 10 -3 6 -1 10 4 10 6 0 11 -4 11 -10z m520 6 c0 -11 -19 -15
-25 -6 -3 5 1 10 9 10 9 0 16 -2 16 -4z m-580 -76 c0 -5 -4 -10 -10 -10 -5 0
-10 5 -10 10 0 6 5 10 10 10 6 0 10 -4 10 -10z m50 0 c0 -5 -5 -10 -11 -10 -5
0 -7 5 -4 10 3 6 8 10 11 10 2 0 4 -4 4 -10z m535 0 c3 -5 1 -10 -4 -10 -6 0
-11 5 -11 10 0 6 2 10 4 10 3 0 8 -4 11 -10z m55 0 c0 -5 -4 -10 -10 -10 -5 0
-10 5 -10 10 0 6 5 10 10 10 6 0 10 -4 10 -10z m-580 -80 c0 -5 -2 -10 -4 -10
-3 0 -8 5 -11 10 -3 6 -1 10 4 10 6 0 11 -4 11 -10z m520 6 c0 -11 -19 -15
-25 -6 -3 5 1 10 9 10 9 0 16 -2 16 -4z m-480 -70 c0 -3 -4 -8 -10 -11 -5 -3
-10 -1 -10 4 0 6 5 11 10 11 6 0 10 -2 10 -4z m440 -6 c0 -5 -2 -10 -4 -10 -3
0 -8 5 -11 10 -3 6 -1 10 4 10 6 0 11 -4 11 -10z m-500 -9 c0 -6 -4 -13 -10
-16 -5 -3 -10 1 -10 9 0 9 5 16 10 16 6 0 10 -4 10 -9z m560 -7 c0 -8 -4 -12
-10 -9 -5 3 -10 10 -10 16 0 5 5 9 10 9 6 0 10 -7 10 -16z m-455 -34 c3 -5 1
-10 -4 -10 -6 0 -11 5 -11 10 0 6 2 10 4 10 3 0 8 -4 11 -10z m345 0 c0 -5 -5
-10 -11 -10 -5 0 -7 5 -4 10 3 6 8 10 11 10 2 0 4 -4 4 -10z m-285 -40 c3 -5
1 -10 -4 -10 -6 0 -11 5 -11 10 0 6 2 10 4 10 3 0 8 -4 11 -10z m225 0 c0 -5
-5 -10 -11 -10 -5 0 -7 5 -4 10 3 6 8 10 11 10 2 0 4 -4 4 -10z m-150 -30 c0
-5 -2 -10 -4 -10 -3 0 -8 5 -11 10 -3 6 -1 10 4 10 6 0 11 -4 11 -10z m80 6
c0 -3 -4 -8 -10 -11 -5 -3 -10 -1 -10 4 0 6 5 11 10 11 6 0 10 -2 10 -4z
m-200 -16 c0 -5 -4 -10 -10 -10 -5 0 -10 5 -10 10 0 6 5 10 10 10 6 0 10 -4
10 -10z m320 0 c0 -5 -4 -10 -10 -10 -5 0 -10 5 -10 10 0 6 5 10 10 10 6 0 10
-4 10 -10z m-160 -45 c0 -8 -4 -15 -10 -15 -5 0 -10 7 -10 15 0 8 5 15 10 15
6 0 10 -7 10 -15z m-695 -225 c34 -29 10 -70 -41 -70 -28 0 -33 -4 -37 -27 -4
-26 -4 -26 -6 5 -1 31 0 32 38 32 31 0 41 4 46 20 9 30 -2 40 -46 40 -21 0
-39 5 -39 10 0 14 66 6 85 -10z m182 -1 c19 -16 16 -36 -7 -56 -20 -17 -20
-17 2 -40 12 -13 17 -23 10 -23 -6 0 -19 11 -30 25 -11 14 -27 25 -36 25 -10
0 -16 -9 -16 -25 0 -14 -4 -25 -10 -25 -15 0 -13 127 3 134 17 7 67 -2 84 -15z
m201 -6 c17 -24 15 -73 -5 -95 -20 -22 -70 -23 -95 -1 -33 29 -19 101 22 116
23 9 64 -2 78 -20z m168 16 c21 -7 25 -15 22 -41 -3 -30 -6 -33 -43 -38 -31
-4 -41 -10 -46 -30 -5 -16 -7 -2 -8 41 -1 36 1 68 4 70 8 9 47 8 71 -2z m384
-1 c0 -4 -18 -8 -40 -8 -36 0 -40 -2 -40 -25 0 -22 4 -25 43 -27 l42 -1 -42
-4 c-38 -4 -43 -7 -43 -28 0 -21 5 -24 43 -28 l42 -4 -47 -1 -48 -2 0 63 c0
35 2 66 5 69 8 8 85 4 85 -4z m160 -3 c11 -14 10 -15 -11 -7 -33 12 -59 4 -59
-17 0 -12 12 -20 37 -27 44 -11 63 -35 44 -58 -17 -20 -75 -21 -91 -1 -8 9 -9
15 -2 15 6 0 14 -4 17 -10 9 -15 51 -12 64 4 14 16 -1 31 -41 41 -15 4 -33 14
-40 22 -10 13 -8 19 11 34 28 23 54 24 71 4z m186 2 c4 -4 -14 -7 -40 -7 -26
0 -45 4 -42 8 6 10 72 9 82 -1z m174 2 c0 -5 -21 -9 -47 -9 -32 0 -43 3 -34 9
18 12 81 12 81 0z m-750 -59 c36 0 39 2 43 33 2 17 4 1 4 -38 0 -38 -2 -55 -4
-37 -4 30 -7 32 -43 32 -36 0 -39 -2 -43 -32 -2 -18 -4 -1 -4 37 0 39 2 55 4
38 4 -31 7 -33 43 -33z m538 -7 c-32 -4 -38 -8 -38 -28 0 -21 5 -24 43 -28 40
-3 40 -4 -10 -5 l-53 -2 0 35 0 35 48 -2 c43 -1 44 -2 10 -5z m175 0 c-38 -4
-43 -7 -43 -28 0 -21 5 -24 43 -28 l42 -4 -47 -1 -48 -2 0 35 0 35 48 -2 47
-1 -42 -4z"/>
<path d="M420 589 c0 -28 2 -30 33 -27 27 2 33 8 35 31 3 25 1 27 -32 27 -33
0 -36 -2 -36 -31z"/>
<path d="M620 617 c-49 -25 -30 -107 26 -107 52 0 75 74 32 104 -27 19 -26 19
-58 3z"/>
<path d="M800 590 c0 -30 2 -31 38 -28 32 3 37 6 37 28 0 22 -5 25 -37 28 -36
3 -38 2 -38 -28z"/>
</g>
</svg>
