<?xml version="1.0" standalone="no"?>
<!DOCTYPE svg PUBLIC "-//W3C//DTD SVG 20010904//EN"
 "http://www.w3.org/TR/2001/REC-SVG-20010904/DTD/svg10.dtd">
<svg version="1.0" xmlns="http://www.w3.org/2000/svg"
 width="1602.000000pt" height="929.000000pt" viewBox="0 0 1602.000000 929.000000"
 preserveAspectRatio="xMidYMid meet">

<g transform="translate(0.000000,929.000000) scale(0.100000,-0.100000)"
fill="#000000" stroke="none">
<path d="M3708 8172 c-1550 -554 -2817 -1010 -2815 -1014 1 -4 668 -406 1482
-893 l1480 -886 28 33 c15 18 27 35 27 38 0 3 -361 221 -803 484 -441 264
-806 484 -812 489 -5 5 24 -8 65 -28 90 -45 1405 -717 1538 -785 l92 -49 25
37 c14 20 21 39 17 43 -4 4 -406 211 -894 460 -487 250 -885 455 -884 457 2 1
426 -177 942 -396 l939 -399 23 33 c12 18 22 37 22 41 0 4 -446 197 -990 428
-544 230 -988 420 -986 422 2 2 805 -268 1979 -666 l107 -36 -25 -37 c-21 -31
-25 -48 -25 -112 0 -41 -4 -78 -10 -81 -20 -12 -9 -31 25 -44 l35 -12 1 -72 0
-72 22 29 c12 16 31 40 42 53 l20 24 48 -20 c26 -11 47 -23 47 -26 0 -11 -102
-135 -111 -135 -6 0 -28 9 -50 21 -39 20 -41 20 -55 2 -26 -32 -37 -57 -28
-60 5 -2 22 -11 38 -21 29 -17 29 -19 27 -97 -1 -46 1 -76 6 -70 5 6 26 31 46
57 l38 47 54 -26 54 -27 -26 -30 c-14 -17 -39 -46 -56 -65 l-30 -35 -48 28
-49 27 -25 -28 c-13 -15 -25 -33 -25 -39 0 -6 18 -20 40 -33 40 -22 48 -35 30
-46 -5 -3 -10 -36 -10 -73 l1 -67 52 56 52 57 53 -32 52 -33 -105 -116 -106
-117 3 -61 3 -61 139 156 140 155 30 -18 c17 -10 45 -27 63 -38 l31 -19 -204
-212 -204 -213 0 -62 0 -62 47 50 c26 28 136 140 244 251 l198 201 66 -39 c36
-21 65 -43 65 -47 0 -4 -139 -142 -310 -306 l-310 -298 0 -54 c0 -41 3 -52 13
-47 6 4 98 89 202 189 423 404 488 465 496 465 5 0 43 -21 85 -46 73 -45 75
-47 57 -64 -10 -10 -139 -125 -288 -255 -148 -131 -336 -296 -417 -368 l-148
-130 0 -55 c0 -51 1 -54 18 -40 15 13 867 755 917 799 19 17 23 16 113 -38 75
-45 90 -59 80 -68 -7 -7 -200 -162 -428 -346 -228 -183 -479 -385 -557 -448
l-143 -115 0 -55 c0 -51 1 -53 18 -39 77 66 1202 958 1208 958 8 0 214 -120
214 -125 0 -1 -324 -238 -720 -526 l-720 -523 0 -48 c0 -26 3 -48 6 -48 3 0
67 44 143 98 1105 797 1356 978 1369 986 15 9 266 -134 254 -146 -6 -6 -1176
-767 -1644 -1069 l-128 -83 0 -48 c0 -26 2 -48 4 -48 3 0 998 639 1679 1078
l188 122 137 -82 c75 -44 141 -84 146 -88 10 -10 55 17 -1191 -695 l-1013
-578 0 -49 0 -49 43 25 c43 25 904 512 1327 751 129 74 397 225 595 338 l360
204 3 44 2 44 -122 72 c-68 40 -140 83 -161 96 l-39 24 161 102 161 103 0 42
0 42 -161 83 c-88 46 -157 87 -152 91 4 4 78 57 164 119 l155 112 -5 40 -6 41
-157 66 c-87 37 -158 69 -157 72 0 3 74 63 164 135 175 138 170 132 150 201
-2 6 -73 34 -159 63 -86 29 -156 56 -155 60 0 3 63 60 140 126 76 66 150 130
164 142 24 21 25 26 15 63 -12 44 3 37 -190 85 -58 14 -112 28 -120 31 -10 4
37 55 153 167 l168 162 -11 37 c-12 43 -5 40 -183 69 -76 12 -136 26 -135 30
2 4 75 83 163 175 88 91 161 169 163 173 1 4 -4 23 -12 43 l-15 36 -113 7
c-62 4 -132 10 -154 14 l-42 6 169 185 c92 102 169 188 169 191 0 4 -7 23 -15
43 l-15 36 -150 0 c-83 0 -150 3 -150 6 0 3 74 93 165 200 91 107 165 199 165
205 0 6 -8 24 -17 40 -20 34 -22 34 -195 15 -65 -6 -118 -9 -118 -5 0 4 73 98
161 210 89 112 163 209 166 216 8 20 -29 73 -52 73 -11 0 -78 -11 -150 -24
-71 -14 -131 -24 -132 -23 -1 1 75 103 168 227 157 208 169 228 165 259 -3 19
-10 39 -15 44 -6 6 -58 -4 -146 -28 -75 -20 -138 -35 -140 -33 -2 2 64 98 146
213 82 116 149 214 149 219 0 17 -34 116 -39 115 -3 0 -1274 -453 -2823 -1007z
m2742 876 c0 -2 -73 -106 -163 -232 l-162 -230 -1970 -533 c-1083 -293 -1974
-532 -1980 -532 -10 0 4253 1527 4268 1528 4 1 7 0 7 -1z m-37 -490 c-6 -7
-79 -105 -163 -218 l-153 -205 -95 -18 c-52 -10 -96 -16 -99 -14 -2 3 59 94
137 203 l140 199 113 32 c131 37 133 37 120 21z m-380 -101 c-23 -37 -265
-377 -272 -381 -10 -7 -3613 -668 -3616 -664 -2 2 3746 1020 3893 1057 2 1 -1
-5 -5 -12z m390 -369 c-119 -153 -306 -389 -312 -392 -12 -8 -222 -28 -228
-23 -3 4 157 225 272 375 3 3 241 50 264 51 9 1 10 -3 4 -11z m-435 -100 c-14
-18 -75 -101 -136 -184 l-111 -151 -82 -7 c-45 -4 -83 -5 -84 -4 -2 2 51 80
116 173 l120 170 77 17 c42 9 88 17 101 17 l23 1 -24 -32z m-308 -30 c0 -2
-51 -75 -113 -163 -76 -108 -121 -162 -137 -167 -29 -9 -3267 -321 -3281 -316
-10 3 3472 645 3509 647 12 1 22 0 22 -1z m748 -337 c-1 -5 -71 -90 -155 -189
-138 -163 -155 -180 -190 -185 -45 -8 -203 -9 -203 -2 0 4 257 334 276 354 2
3 57 10 122 16 155 16 154 16 150 6z m-438 -83 c-23 -29 -85 -108 -138 -175
l-97 -123 -98 0 c-54 0 -97 4 -95 8 2 5 55 78 118 164 l115 156 90 9 c50 6
103 11 118 12 l29 1 -42 -52z m-360 -30 c-17 -24 -68 -94 -113 -155 l-82 -113
-73 0 -74 0 19 29 c10 16 56 83 103 149 93 133 83 126 203 130 l49 2 -32 -42z
m-263 10 c-2 -7 -46 -72 -98 -145 l-93 -131 -140 -6 c-175 -7 -2885 -30 -2891
-25 -2 3 719 75 1603 161 884 85 1611 156 1616 157 4 0 6 -5 3 -11z m1048
-390 c-15 -18 -87 -99 -159 -180 l-131 -148 -100 7 c-163 10 -163 -5 -8 178
l136 160 51 6 c28 3 93 6 144 7 l94 2 -27 -32z m-1061 10 c-4 -7 -50 -71 -102
-141 -65 -88 -99 -126 -109 -123 -8 3 -35 6 -60 6 -57 0 -57 -2 53 151 l85
119 70 0 c53 0 68 -3 63 -12z m314 -6 c-7 -10 -60 -78 -118 -151 -104 -133
-104 -133 -140 -127 -19 3 -57 6 -84 6 -38 0 -47 3 -43 14 3 8 50 74 104 145
l98 131 98 0 c93 0 97 -1 85 -18z m351 1 c-8 -10 -68 -82 -133 -160 -132 -159
-113 -148 -250 -137 l-76 7 27 36 c15 20 69 89 121 154 l93 117 116 0 c108 0
115 -1 102 -17z m-925 -5 c-4 -7 -43 -64 -87 -126 l-80 -114 -46 6 c-25 4
-638 51 -1361 106 -723 55 -1335 103 -1360 107 -44 7 1573 28 2483 31 364 2
457 -1 451 -10z m-1576 -220 c1114 -86 1341 -105 1337 -117 -15 -39 -140 -201
-155 -201 -16 0 -2507 406 -2540 414 -13 3 -13 4 0 5 8 1 619 -44 1358 -101z
m-128 -198 c674 -110 1233 -204 1243 -208 15 -6 9 -18 -43 -92 -34 -47 -64
-88 -68 -92 -4 -4 -540 128 -1192 292 -652 164 -1180 299 -1175 299 6 1 561
-89 1235 -199z m-77 -191 c617 -154 1127 -284 1134 -288 10 -5 -1 -27 -38 -80
-28 -40 -57 -75 -65 -78 -7 -2 -466 149 -1021 336 -1125 380 -1151 389 -1140
390 4 1 513 -125 1130 -280z m1776 265 c2 -2 -35 -55 -82 -118 l-86 -115 -38
6 c-76 12 -77 9 8 129 l79 111 57 -5 c32 -2 60 -6 62 -8z m233 -14 c39 0 49
-3 45 -14 -3 -8 -47 -67 -98 -131 -88 -111 -93 -116 -123 -111 -17 3 -50 8
-73 12 -24 4 -43 8 -43 10 0 6 140 196 164 222 16 18 28 22 50 18 16 -3 51 -6
78 -6z m315 -26 l52 -5 -116 -140 c-79 -94 -122 -138 -132 -135 -9 3 -49 10
-89 16 -67 11 -72 14 -59 29 8 9 55 68 105 132 l92 117 47 -5 c27 -2 71 -6
100 -9z m395 -33 c3 -3 -32 -49 -79 -101 -48 -52 -108 -118 -133 -147 l-47
-52 -102 17 c-56 9 -100 19 -99 24 2 4 54 68 117 143 l114 136 111 -6 c61 -4
114 -10 118 -14z m389 -30 c14 -5 -15 -40 -136 -167 l-154 -161 -53 8 c-148
23 -189 32 -186 40 2 4 62 74 133 154 l130 146 125 -7 c68 -3 132 -9 141 -13z
m-1564 -214 c1 -1 -33 -48 -74 -103 l-76 -102 -36 10 c-20 5 -42 11 -48 13 -8
3 14 42 57 103 l70 99 53 -9 c28 -5 53 -11 54 -11z m222 -35 l33 -7 -83 -105
c-45 -58 -83 -107 -85 -109 -5 -6 -124 21 -129 29 -2 4 30 53 72 109 l76 102
41 -6 c23 -4 56 -10 75 -13z m234 -37 c31 -4 60 -11 63 -16 3 -5 -38 -60 -91
-123 l-97 -114 -70 18 c-38 10 -72 21 -75 24 -3 3 34 55 83 116 71 89 92 110
109 106 11 -2 46 -8 78 -11z m297 -50 c47 -8 86 -15 88 -15 2 0 -49 -58 -113
-129 l-116 -128 -85 21 c-46 11 -85 24 -86 27 -6 13 194 239 210 239 9 0 55
-7 102 -15z m348 -56 c45 -7 82 -16 82 -20 0 -5 -58 -68 -129 -141 l-128 -132
-102 24 c-55 13 -101 27 -101 32 0 5 51 65 113 134 109 123 113 125 147 120
19 -3 72 -11 118 -17z m356 -60 c66 -11 122 -22 124 -23 4 -4 -260 -263 -287
-283 -20 -14 -32 -13 -134 12 -62 15 -115 30 -120 32 -13 8 256 283 277 283
10 0 73 -9 140 -21z m-1674 -49 c0 -12 -120 -170 -128 -170 -21 0 -72 23 -72
32 0 5 25 44 56 87 l55 78 45 -10 c24 -6 44 -13 44 -17z m183 -41 c26 -6 47
-14 47 -16 0 -9 -142 -183 -149 -183 -8 0 -104 31 -109 36 -2 1 27 43 64 93
46 60 74 89 84 86 8 -2 36 -9 63 -16z m225 -55 c37 -10 69 -18 71 -20 2 -2
-34 -47 -79 -101 -46 -54 -85 -100 -86 -102 -3 -4 -124 37 -133 45 -5 4 143
193 152 194 4 0 38 -7 75 -16z m275 -70 c37 -9 66 -20 65 -25 -6 -17 -182
-209 -191 -209 -21 0 -147 44 -147 52 0 4 12 22 28 40 119 142 145 168 161
164 9 -3 47 -13 84 -22z m275 -68 c52 -14 96 -27 99 -30 4 -3 -44 -57 -106
-120 l-113 -114 -86 29 c-47 16 -87 31 -90 34 -5 4 188 223 198 224 3 0 47
-10 98 -23z m-1165 -55 c-15 -20 -41 -54 -57 -77 l-31 -40 -35 14 c-19 8 -37
15 -39 17 -1 2 21 37 50 78 l53 74 44 -14 43 -15 -28 -37z m221 -36 c-1 -18
-110 -154 -124 -154 -8 0 -34 8 -58 19 l-43 20 60 79 61 80 52 -18 c29 -10 53
-22 52 -26z m1274 9 c59 -15 111 -30 115 -34 4 -4 -51 -62 -123 -130 l-132
-123 -71 22 c-40 13 -87 29 -105 37 l-34 14 114 120 c62 66 117 120 121 120 4
0 56 -12 115 -26z m-1100 -59 c29 -11 51 -23 49 -28 -6 -19 -132 -166 -142
-166 -5 -1 -34 10 -63 24 l-53 24 67 86 c37 47 72 84 78 82 6 -2 35 -12 64
-22z m1476 -36 c67 -17 125 -35 129 -39 5 -4 -47 -56 -115 -115 -68 -60 -135
-119 -150 -133 l-26 -24 -128 42 -127 43 134 128 c74 70 140 128 148 129 8 0
69 -14 135 -31z m-1258 -39 c32 -11 65 -22 72 -25 15 -5 7 -15 -103 -138 l-52
-57 -67 30 c-49 22 -65 33 -59 43 15 25 138 167 144 167 3 0 32 -9 65 -20z
m269 -90 c39 -12 74 -26 79 -31 6 -5 -30 -49 -86 -105 l-96 -97 -80 33 -81 33
32 37 c87 101 143 158 152 156 6 -2 42 -13 80 -26z m-696 -81 c28 -12 51 -25
51 -28 0 -4 -27 -39 -61 -79 l-60 -71 -54 26 c-46 23 -52 29 -42 43 55 75 101
130 107 130 4 0 30 -10 59 -21z m998 -21 c51 -18 92 -35 92 -38 -1 -3 -50 -52
-110 -109 l-108 -104 -91 38 c-49 21 -90 40 -90 42 0 12 187 203 199 203 8 0
56 -15 108 -32z m-789 -179 c-40 -44 -77 -79 -82 -79 -6 0 -35 14 -64 30 l-52
31 66 78 66 79 68 -30 69 -31 -71 -78z m1120 66 c92 -30 111 -40 100 -50 -161
-145 -250 -216 -266 -211 -65 24 -192 81 -192 87 0 14 222 220 233 216 7 -2
63 -21 125 -42z m-885 -55 c39 -17 73 -33 76 -36 3 -2 -33 -42 -79 -89 l-83
-84 -69 35 c-37 19 -68 37 -68 40 0 7 141 164 147 164 2 0 36 -14 76 -30z
m1251 -69 l138 -47 -143 -115 c-79 -63 -149 -118 -155 -122 -14 -8 -256 92
-252 104 5 13 253 228 263 228 6 0 72 -21 149 -48z m-911 -80 c8 -8 -166 -181
-183 -181 -12 0 -102 44 -138 68 l-23 15 86 87 87 87 81 -34 c45 -19 86 -38
90 -42z m-773 14 c28 -14 50 -28 50 -32 0 -10 -111 -133 -121 -133 -5 0 -31
14 -59 31 l-50 31 56 64 c31 35 61 64 66 64 5 0 31 -11 58 -25z m977 -97 c55
-24 100 -47 99 -53 -1 -11 -196 -185 -208 -185 -5 0 -49 20 -98 45 l-89 45 97
95 c53 52 98 95 99 95 0 0 46 -19 100 -42z m-770 -10 c35 -18 63 -36 63 -39 0
-3 -30 -38 -67 -78 l-68 -72 -63 41 -63 40 63 70 c35 38 65 69 68 70 3 0 33
-14 67 -32z m236 -240 l-81 -80 -71 42 c-39 23 -71 45 -71 48 0 4 32 39 72 79
l71 72 80 -41 80 -40 -80 -80z m870 108 c64 -27 114 -53 112 -56 -3 -4 -59
-51 -125 -105 l-121 -99 -110 54 c-60 30 -109 57 -108 60 1 9 224 200 230 197
3 -1 58 -24 122 -51z m-603 -125 l85 -44 -36 -31 c-20 -17 -63 -54 -95 -83
l-60 -51 -84 51 -84 51 85 78 c46 43 89 77 94 75 6 -1 48 -22 95 -46z m960
-28 c74 -31 138 -59 143 -63 4 -3 -60 -55 -143 -114 l-149 -108 -122 64 c-67
34 -121 66 -121 71 2 7 242 205 252 206 3 1 66 -24 140 -56z m-679 -114 c54
-28 99 -54 99 -57 0 -4 -47 -45 -105 -91 l-106 -83 -96 57 -96 58 59 51 c32
28 75 66 94 83 19 18 39 33 43 33 5 0 53 -23 108 -51z m439 -230 c0 -7 -178
-140 -226 -169 -20 -12 -32 -7 -128 49 -58 35 -106 66 -105 70 0 3 48 45 107
92 l107 86 123 -61 c67 -33 122 -64 122 -67z m245 -121 c80 -40 145 -75 145
-78 0 -3 -66 -47 -145 -98 l-145 -93 -125 73 c-68 40 -123 77 -122 82 2 6 234
182 244 185 2 1 68 -32 148 -71z"/>
<path d="M8863 8969 c-104 -20 -187 -79 -231 -163 l-27 -51 -3 -429 c-3 -485
-2 -500 67 -577 51 -59 121 -96 209 -111 170 -29 333 46 396 181 20 45 21 57
21 486 l0 440 -24 49 c-68 137 -236 209 -408 175z m170 -130 c47 -13 106 -63
123 -106 11 -25 14 -119 14 -434 l0 -402 -25 -43 c-35 -60 -111 -96 -198 -96
-104 1 -172 39 -208 117 -17 37 -19 72 -19 430 0 360 2 393 19 431 20 44 66
85 116 102 40 14 131 15 178 1z"/>
<path d="M10763 8969 c-104 -20 -187 -79 -231 -163 l-27 -51 0 -450 0 -450 27
-51 c48 -91 129 -146 247 -166 169 -29 332 46 395 181 20 45 21 57 21 486 l0
440 -24 49 c-68 137 -236 209 -408 175z m185 -135 c43 -18 88 -58 108 -96 11
-22 14 -103 14 -434 l0 -407 -25 -43 c-35 -60 -111 -96 -198 -96 -104 1 -172
39 -208 117 -17 37 -19 72 -19 430 0 360 2 393 19 431 20 44 66 85 116 102 46
16 151 14 193 -4z"/>
<path d="M12907 8970 c-89 -23 -167 -83 -209 -163 -23 -41 -23 -47 -26 -476
-2 -366 0 -441 13 -486 21 -73 86 -144 167 -180 55 -25 75 -29 158 -29 82 -1
103 3 151 25 114 54 186 150 196 260 l6 59 -60 0 -61 0 -7 -37 c-27 -144 -151
-215 -300 -173 -61 17 -119 72 -134 125 -7 26 -11 173 -11 420 0 423 2 431 69
488 31 26 115 57 153 57 100 0 197 -77 219 -173 l12 -57 60 0 60 0 -5 58 c-10
109 -91 218 -196 264 -54 23 -194 33 -255 18z"/>
<path d="M13804 8960 c-80 -26 -153 -90 -185 -162 -20 -46 -23 -70 -23 -173
-1 -141 12 -198 60 -253 43 -51 122 -85 267 -116 195 -41 220 -66 225 -218 5
-128 -2 -160 -41 -205 -80 -91 -238 -100 -326 -20 -30 27 -60 93 -61 130 0 27
-1 27 -63 27 l-63 0 7 -59 c9 -79 40 -140 95 -191 74 -68 122 -85 239 -85 81
0 109 5 148 23 77 34 123 77 156 144 30 59 31 65 31 201 0 155 -9 199 -52 251
-46 56 -104 84 -253 121 -221 56 -245 80 -245 243 0 114 9 143 60 186 42 35
131 60 184 52 52 -9 119 -48 146 -86 11 -16 26 -52 33 -80 l12 -50 57 0 58 0
0 33 c0 57 -29 134 -70 186 -83 105 -252 148 -396 101z"/>
<path d="M7734 8960 c-12 -4 -31 -21 -43 -36 -21 -27 -21 -28 -21 -655 l0
-629 60 0 60 0 2 258 3 257 109 3 c134 3 200 -13 258 -66 63 -57 68 -77 68
-277 l0 -175 61 0 60 0 -3 198 c-3 187 -4 199 -28 246 -27 52 -90 113 -127
122 -30 8 -29 20 1 28 33 8 101 79 128 134 21 43 23 60 23 202 0 168 -7 205
-56 276 -35 52 -96 94 -161 111 -59 15 -359 17 -394 3z m395 -141 c20 -11 48
-36 61 -56 23 -34 25 -46 28 -181 4 -166 -1 -185 -64 -241 -58 -50 -99 -61
-243 -61 l-121 0 0 280 0 280 151 0 c134 0 155 -2 188 -21z"/>
<path d="M9633 8959 c-66 -20 -63 9 -63 -657 l0 -604 29 -29 29 -29 184 0
c212 0 256 9 333 68 34 26 60 57 82 101 l33 63 0 151 c0 139 -2 156 -24 202
-27 57 -66 98 -115 118 -32 13 -33 15 -13 21 39 13 84 59 108 111 20 42 24 66
24 156 0 98 -2 110 -31 167 -35 70 -71 105 -149 141 -51 24 -67 25 -225 28
-93 1 -184 -2 -202 -8z m411 -153 c53 -40 76 -95 76 -181 0 -108 -41 -177
-119 -204 -19 -6 -95 -11 -172 -11 l-139 0 0 216 0 215 158 -3 c157 -3 159 -3
196 -32z m13 -548 c25 -16 49 -44 63 -72 19 -41 21 -58 18 -175 -3 -127 -4
-130 -34 -168 -53 -67 -88 -78 -261 -81 l-153 -4 0 267 0 267 163 -4 c158 -3
165 -4 204 -30z"/>
<path d="M11300 8905 l0 -65 155 0 155 0 0 -600 0 -600 60 0 60 0 0 600 0 600
160 0 160 0 0 65 0 65 -375 0 -375 0 0 -65z"/>
<path d="M12260 8305 l0 -665 60 0 60 0 0 665 0 665 -60 0 -60 0 0 -665z"/>
<path d="M15377 8929 c-59 -9 -129 -49 -160 -92 -51 -67 -60 -98 -65 -208 -6
-135 12 -202 70 -265 l41 -44 -45 -48 c-70 -75 -81 -114 -76 -283 4 -154 12
-185 72 -256 69 -82 215 -116 314 -73 48 21 122 87 122 110 0 20 15 9 31 -23
21 -43 83 -85 142 -96 l47 -8 0 63 c0 61 -1 64 -25 64 -38 0 -91 53 -104 104
-6 25 -11 122 -11 215 l0 171 65 0 65 0 0 60 0 60 -65 0 -65 0 0 45 0 45 -60
0 -60 0 0 -45 0 -45 -106 0 c-125 0 -163 14 -202 73 -22 34 -27 52 -30 131 -3
80 -1 96 20 135 27 53 60 79 110 87 64 11 106 -3 155 -52 l45 -45 40 27 c22
16 43 34 45 42 8 20 -75 100 -132 127 -60 28 -113 35 -178 24z m233 -846 c0
-152 -3 -184 -19 -219 -60 -133 -242 -136 -308 -4 -20 38 -23 60 -23 150 0
122 17 172 71 213 44 32 54 34 177 36 l102 1 0 -177z"/>
<path d="M10560 7137 c-60 -17 -110 -48 -154 -97 -73 -81 -71 -64 -71 -561 l0
-445 30 -59 c57 -111 166 -170 315 -169 72 0 95 5 148 29 110 50 178 143 198
273 l7 42 -67 0 c-56 0 -66 -3 -66 -17 0 -40 -23 -96 -53 -130 -81 -92 -242
-99 -330 -15 -58 55 -57 47 -57 487 0 320 3 413 14 438 19 46 68 84 133 103
112 33 217 -9 266 -105 15 -30 27 -67 27 -83 0 -28 0 -28 66 -28 l66 0 -7 53
c-8 70 -57 168 -102 208 -64 56 -137 83 -233 86 -48 2 -105 -3 -130 -10z"/>
<path d="M14525 7137 c-70 -19 -124 -49 -166 -94 -77 -80 -74 -57 -77 -547 -3
-510 -4 -505 82 -592 168 -167 492 -120 585 86 20 43 21 64 21 485 l0 440 -24
50 c-49 107 -155 172 -292 180 -48 3 -99 -1 -129 -8z m222 -140 c37 -20 79
-65 92 -100 7 -18 11 -168 11 -423 0 -436 0 -436 -63 -491 -109 -95 -321 -59
-373 64 -18 41 -21 804 -3 850 13 35 55 80 93 100 63 33 180 32 243 0z"/>
<path d="M7722 7120 c-18 -11 -37 -32 -42 -46 -6 -15 -10 -267 -10 -645 l0
-619 60 0 60 0 2 263 3 262 170 5 c135 4 177 9 205 23 64 32 108 76 141 143
30 60 32 74 37 187 7 191 -21 291 -101 364 -76 68 -110 77 -312 81 -167 3
-182 2 -213 -18z m396 -124 c36 -19 78 -65 91 -99 6 -16 11 -88 11 -162 0
-144 -7 -174 -48 -219 -46 -48 -77 -56 -237 -56 l-145 0 0 275 0 275 150 0
c111 0 158 -4 178 -14z"/>
<path d="M8633 7120 c-17 -10 -37 -28 -42 -39 -7 -13 -11 -185 -11 -519 0
-568 -2 -556 81 -646 78 -86 119 -99 327 -104 l172 -4 0 66 0 66 -162 0 c-154
0 -163 1 -204 25 -23 14 -53 42 -66 62 -22 36 -23 50 -26 221 l-4 182 221 0
221 0 0 60 0 60 -217 2 -218 3 -3 228 -2 227 230 0 230 0 0 65 0 65 -247 0
c-228 0 -251 -2 -280 -20z"/>
<path d="M9463 7130 c-13 -5 -32 -24 -43 -42 -19 -32 -20 -50 -20 -655 l0
-623 60 0 60 0 2 258 3 257 113 3 c128 3 168 -5 234 -47 80 -51 88 -78 88
-291 l0 -180 60 0 60 0 0 193 c0 171 -3 197 -21 237 -25 56 -71 105 -123 132
l-40 20 31 13 c40 17 97 75 125 128 21 39 23 55 23 212 0 153 -2 175 -21 216
-31 66 -86 123 -147 150 -48 22 -67 24 -237 26 -102 1 -195 -2 -207 -7z m390
-134 c21 -10 50 -35 65 -54 27 -35 27 -36 27 -203 l0 -168 -35 -36 c-67 -70
-98 -80 -250 -80 l-135 0 -3 270 c-1 148 0 276 3 283 8 23 278 13 328 -12z"/>
<path d="M11353 7125 c-65 -28 -64 -20 -61 -583 3 -507 3 -507 26 -550 35 -66
88 -119 150 -149 54 -26 65 -28 229 -32 l173 -3 0 66 0 66 -155 0 c-176 0
-203 7 -252 63 -45 51 -53 91 -53 270 l0 157 220 0 220 0 0 60 0 60 -217 2
-218 3 -3 228 -2 227 230 0 230 0 0 65 0 65 -242 0 c-184 -1 -251 -4 -275 -15z"/>
<path d="M12224 7131 c-12 -5 -31 -22 -43 -37 -21 -27 -21 -28 -21 -655 l0
-629 60 0 60 0 2 263 3 262 170 5 c152 4 175 7 212 28 59 31 111 86 139 146
22 47 24 63 24 222 0 170 0 171 -30 232 -35 68 -82 115 -149 146 -40 18 -68
21 -226 23 -99 2 -190 -1 -201 -6z m384 -135 c80 -42 102 -99 102 -263 0 -149
-14 -192 -76 -239 -37 -29 -39 -29 -196 -32 l-158 -3 0 275 0 276 150 0 c110
0 158 -4 178 -14z"/>
<path d="M12910 7075 l0 -65 155 0 155 0 0 -600 0 -600 60 0 60 0 0 600 0 600
160 0 160 0 0 65 0 65 -375 0 -375 0 0 -65z"/>
<path d="M13870 6475 l0 -665 60 0 60 0 0 665 0 665 -60 0 -60 0 0 -665z"/>
<path d="M15279 7127 c-38 -29 -39 -38 -39 -686 l0 -631 60 0 60 0 -1 523 c0
287 -4 546 -8 575 -4 29 -5 49 -1 45 4 -5 46 -114 94 -243 152 -406 318 -834
333 -857 20 -31 66 -45 104 -31 60 21 59 14 59 698 l0 620 -64 0 -65 0 5 -507
c3 -280 10 -537 15 -572 6 -35 8 -65 6 -67 -2 -2 -98 244 -213 548 -128 340
-217 562 -231 576 -25 25 -87 30 -114 9z"/>
<path d="M4102 5572 c-34 -49 -34 -51 -3 -67 17 -8 32 -15 34 -15 2 0 16 17
30 39 l25 38 -33 16 c-34 16 -34 16 -53 -11z"/>
<path d="M3960 5370 c-23 -32 -21 -44 10 -60 16 -8 24 -4 46 26 27 35 27 37 9
50 -28 21 -41 17 -65 -16z"/>
<path d="M4096 5290 l-25 -38 38 -25 39 -26 30 38 30 37 -43 26 -43 27 -26
-39z"/>
<path d="M7948 5319 c-106 -15 -195 -74 -243 -161 l-30 -53 0 -450 c0 -438 1
-451 21 -496 91 -197 401 -246 583 -93 18 15 44 50 59 78 27 50 27 54 30 276
3 217 2 227 -18 252 -29 37 -76 48 -212 48 l-118 0 0 -65 0 -65 116 0 116 0
-4 -177 c-3 -166 -5 -181 -26 -216 -72 -114 -278 -130 -374 -29 -19 20 -40 52
-47 71 -17 53 -14 784 3 834 31 85 95 122 213 122 75 0 85 -2 124 -30 56 -39
86 -85 95 -141 l6 -44 64 0 64 0 -6 48 c-25 198 -201 321 -416 291z"/>
<path d="M9817 5310 c-91 -23 -179 -89 -220 -165 -22 -39 -22 -47 -22 -495 l0
-455 27 -50 c48 -91 131 -146 248 -164 169 -27 333 49 389 179 21 50 22 59 19
503 -3 417 -4 455 -21 486 -31 56 -103 118 -165 141 -64 25 -195 35 -255 20z
m223 -148 c44 -21 60 -36 78 -72 22 -44 22 -49 22 -442 0 -442 0 -442 -64
-495 -71 -58 -184 -70 -271 -29 -58 27 -78 47 -100 99 -13 31 -15 98 -15 426
0 251 4 400 11 418 13 34 55 80 91 99 76 40 162 38 248 -4z"/>
<path d="M8691 5296 c-51 -29 -50 -17 -51 -683 l0 -623 60 0 60 0 0 256 0 256
138 -4 c130 -3 140 -5 191 -33 32 -18 64 -46 80 -69 25 -38 26 -45 29 -223 l4
-183 59 0 59 0 0 178 c0 205 -9 245 -70 315 -21 24 -57 52 -79 62 l-41 18 37
17 c43 19 94 72 123 130 18 35 20 59 20 203 0 185 -10 230 -64 294 -19 21 -58
52 -87 68 l-54 30 -195 3 c-150 2 -200 -1 -219 -12z m402 -130 c22 -11 51 -37
65 -59 25 -38 27 -49 30 -176 4 -164 -4 -197 -60 -246 -58 -49 -119 -65 -255
-65 l-113 0 0 278 c0 153 3 282 7 286 4 4 71 6 148 4 113 -2 147 -7 178 -22z"/>
<path d="M10532 4758 l3 -553 28 -57 c34 -69 91 -120 166 -150 44 -17 77 -22
156 -22 90 -1 107 2 163 28 80 37 146 108 167 179 13 42 15 138 15 589 l0 538
-60 0 -60 0 0 -517 c0 -331 -4 -532 -11 -556 -42 -151 -275 -191 -393 -68 -54
56 -54 60 -48 623 l5 518 -67 0 -67 0 3 -552z"/>
<path d="M11535 5277 l-35 -35 0 -626 0 -626 60 0 60 0 0 260 0 260 163 0
c155 0 166 1 215 26 66 33 136 110 157 174 14 41 16 82 13 218 -3 150 -5 171
-26 209 -33 63 -74 106 -134 139 -53 29 -54 29 -246 32 l-192 4 -35 -35z m416
-113 c37 -18 76 -68 90 -112 6 -22 9 -91 7 -168 -3 -124 -4 -133 -31 -173 -45
-68 -85 -81 -254 -81 l-143 0 0 275 0 274 123 3 c139 3 171 1 208 -18z"/>
</g>
</svg>
