<?xml version="1.0" encoding="utf-8"?>
<!-- Generator: Adobe Illustrator 16.0.0, SVG Export Plug-In . SVG Version: 6.00 Build 0)  -->
<!DOCTYPE svg PUBLIC "-//W3C//DTD SVG 1.1//EN" "http://www.w3.org/Graphics/SVG/1.1/DTD/svg11.dtd">
<svg version="1.1" id="Ebene_1" xmlns="http://www.w3.org/2000/svg" xmlns:xlink="http://www.w3.org/1999/xlink" x="0px" y="0px"
	 width="1440px" height="356.882px" viewBox="0 0 1440 356.882" enable-background="new 0 0 1440 356.882" xml:space="preserve">
<rect y="861.973" width="1435.823" height="355.839"/>
<g>
	<path fill-rule="evenodd" clip-rule="evenodd" fill="#FFFFFF" d="M1098.866,1128.876c-9.085,0-17.438,0-26.114,0
		c0-41.847,0-83.448,0-125.352c8.668,0,17.098,0,26.197,0c0,3.828,0,7.386,0,11.303c26.465-19.879,50.525-17.927,73.085,5.476
		c2.769-2.534,5.547-5.41,8.646-7.889c8.602-6.885,18.533-10.223,29.511-10.65c7.634-0.299,15.168,0.014,22.385,2.795
		c15.859,6.12,24.041,18.529,27.54,34.476c1.004,4.58,1.462,9.361,1.501,14.064c0.148,23.931,0.06,47.871,0.066,71.812
		c0,1.156,0,2.324,0,3.841c-8.841,0-17.273,0-26.099,0c-0.104-1.423-0.29-2.79-0.29-4.153c-0.021-22.757,0.114-45.51-0.127-68.262
		c-0.055-4.519-0.944-9.256-2.534-13.476c-3.684-9.746-11.22-15.141-21.573-15.953c-10.736-0.832-19.449,3.248-25.633,12.21
		c-3.273,4.749-5.078,9.809-5,15.881c0.312,23.103,0.13,46.22,0.13,69.325c0,1.39,0,2.778,0,4.475c-8.932,0-17.364,0-26.16,0
		c-0.101-1.685-0.262-3.179-0.262-4.672c-0.021-22.157,0.162-44.323-0.148-66.478c-0.057-5.099-1.004-10.468-2.876-15.188
		c-3.746-9.514-11.407-14.74-21.543-15.543c-10.401-0.825-19.066,2.997-25.289,11.544c-3.625,4.965-5.598,10.389-5.518,16.832
		c0.273,22.867,0.104,45.743,0.104,68.617C1098.866,1125.419,1098.866,1126.937,1098.866,1128.876z"/>
	<path fill-rule="evenodd" clip-rule="evenodd" fill="#FFFFFF" d="M214.2,1013.059c0.263-3.777,0.448-6.517,0.658-9.534
		c8.686,0,17.114,0,25.83,0c0,41.799,0,83.313,0,125.212c-8.515,0-16.943,0-25.791,0c-0.205-2.711-0.415-5.438-0.682-8.946
		c-18.231,12.667-37.46,13.766-57.305,7.112c-12.85-4.309-22.877-12.658-30.559-23.843c-15.039-21.872-14.419-54.197,1.5-75.795
		c10.032-13.611,23.418-21.932,40.04-24.714C184.338,999.798,199.883,1002.226,214.2,1013.059z M214.575,1066.341
		c0-6.163,0.219-12.328-0.112-18.471c-0.127-2.285-0.99-5-2.472-6.669c-11.012-12.446-25.02-16.934-41.014-13.202
		c-29.583,6.897-34.672,42.751-20.994,62.27c15.28,21.803,48.407,18.954,62.928-0.219c0.985-1.302,1.542-3.226,1.59-4.88
		C214.682,1078.896,214.575,1072.615,214.575,1066.341z"/>
	<path fill-rule="evenodd" clip-rule="evenodd" fill="#FFFFFF" d="M627.071,1073.239c-32.272,0-64.039,0-96.289,0
		c1.873,12.314,7.398,21.586,18.085,26.619c19.059,8.983,36.328,4.982,52.054-9.253c5.838,6.218,11.615,12.368,17.936,19.095
		c-3.102,2.739-5.731,5.415-8.702,7.629c-12.597,9.384-26.82,13.196-42.51,13.448c-29.518,0.47-59.047-19.987-63.812-54.693
		c-5.41-39.442,20.368-68.862,52.858-73.641c18.495-2.726,35.67,0.444,49.994,13.436c10.107,9.172,15.796,20.907,18.386,34.116
		c1.217,6.227,1.568,12.638,2.243,18.962C627.427,1070.089,627.194,1071.261,627.071,1073.239z M597.144,1052.761
		c0.897-6.352-5.381-18.158-13.42-22.438c-17.6-9.362-41.899-4.462-50.826,17.88c-0.535,1.326-0.68,2.808-1.078,4.558
		C553.949,1052.761,575.447,1052.761,597.144,1052.761z"/>
	<path fill-rule="evenodd" clip-rule="evenodd" fill="#FFFFFF" d="M822.892,1072.995c-16.922,0-32.772,0-48.638,0
		c-15.711,0-31.438,0-47.424,0c0,1.743-0.194,2.918,0.022,4.008c3.246,15.531,17.524,26.681,33.442,27.339
		c13.346,0.555,24.646-3.397,34.406-12.299c0.419-0.386,0.937-0.685,1.804-1.324c5.837,6.221,11.628,12.38,17.896,19.052
		c-3.577,3.045-6.688,6.097-10.196,8.605c-12.479,8.906-26.495,12.283-41.775,12.381c-30.521,0.188-59.812-21.804-63.418-57.162
		c-3.666-35.875,18.3-64.309,50.424-70.686c20.649-4.094,39.932-0.351,55.314,15.457c10.403,10.702,15.152,24.107,17.091,38.608
		C822.521,1062.063,822.534,1067.243,822.892,1072.995z M793.238,1052.638c-0.791-6.289-2.974-11.574-6.786-16.026
		c-13.437-15.728-41.187-14.082-53.369,3.089c-2.7,3.825-5.127,7.808-5.773,12.938
		C749.465,1052.638,771.136,1052.638,793.238,1052.638z"/>
	<path fill-rule="evenodd" clip-rule="evenodd" fill="#FFFFFF" d="M920.071,1066.064c-0.403-37.705,29.951-64.511,64.875-64.604
		c32.825-0.085,66.438,25.744,64.967,67.488c-1.307,36.834-31.883,62.005-65.193,61.915
		C949.915,1130.77,919.56,1103.876,920.071,1066.064z M947.189,1066.285c0.312,2.692,0.518,5.402,0.935,8.073
		c4.833,30.243,39.513,39.877,60.249,23.086c11.476-9.305,15.218-21.945,13.781-36.467c-2.306-23.381-23.658-38.697-46.385-33.057
		C957.987,1032.342,947.44,1046.624,947.189,1066.285z"/>
	<path fill-rule="evenodd" clip-rule="evenodd" fill="#FFFFFF" d="M375.576,1022.188c-6.108,5.657-12.24,11.351-18.631,17.276
		c-8.836-9.238-20.453-13.542-34.019-11.803c-9.125,1.171-16.769,5.379-22.972,12.293c-12.075,13.445-11.675,40.353,1.032,53.715
		c11.148,11.719,36.866,18.591,56.335-0.812c6.126,5.691,12.244,11.381,18.327,17.035c-13.551,16.631-38.586,25.717-65.702,18.447
		c-25.768-6.913-44.964-28.926-46.293-58.556c-1.384-30.597,15.93-56.238,43.096-64.867
		C333.299,996.485,360.264,1004.046,375.576,1022.188z"/>
	<path fill-rule="evenodd" clip-rule="evenodd" fill="#FFFFFF" d="M495.37,1022.272c-6.215,5.753-12.28,11.355-18.603,17.197
		c-8.787-9.015-20.113-13.433-33.463-11.894c-8.501,0.979-16.09,4.346-21.911,10.666c-14.302,15.547-14.541,39.561-0.423,55.322
		c7.458,8.32,17.255,11.513,28.398,11.423c11.28-0.094,20.137-5.201,27.442-12.033c6.28,5.793,12.345,11.4,18.314,16.9
		c-7.655,14.577-38.814,24.363-60.985,19.653c-28.077-5.961-48.208-28.376-50.488-56.953c-2.769-34.695,16.758-58.748,42.338-67.401
		C452.21,996.28,479.598,1003.661,495.37,1022.272z"/>
	<path fill-rule="evenodd" clip-rule="evenodd" fill="#FFFFFF" d="M650.008,950.765c8.909,0,17.264,0,25.932,0
		c0,59.427,0,118.594,0,178.051c-8.688,0-17.137,0-25.932,0C650.008,1069.423,650.008,1010.27,650.008,950.765z"/>
	<path fill-rule="evenodd" clip-rule="evenodd" fill="#FFFFFF" d="M845.448,1003.495c8.659,0,17.004,0,26.014,0
		c0,3.918,0,7.709,0,11.502c0.299,0.263,0.593,0.527,0.892,0.793c11.124-12.3,24.942-15.573,40.812-13.429
		c0,9.254,0,18.078,0,26.502c-5.597,0-11.231-0.279-16.814,0.062c-8.864,0.543-16.754,3.583-21.968,11.196
		c-1.561,2.274-2.71,5.36-2.739,8.081c-0.196,25.356-0.117,50.724-0.117,76.092c0,1.385,0,2.777,0,4.491c-8.9,0-17.333,0-26.08,0
		C845.448,1087.063,845.448,1045.533,845.448,1003.495z"/>
	<path fill="#2AA94A" d="M1320.244,949.973c20.941,0,37.925,17.538,37.925,38.761c0,21.518-17.262,38.784-38.491,38.784
		c-21.516,0-38.498-17.548-38.498-38.784c0-20.653,16.418-38.761,38.773-38.761H1320.244z"/>
</g>
<rect y="1287.133" width="1435.823" height="355.839"/>
<g>
	<path fill-rule="evenodd" clip-rule="evenodd" fill="#FFFFFF" d="M1098.866,1554.036c-9.085,0-17.438,0-26.114,0
		c0-41.847,0-83.449,0-125.352c8.668,0,17.098,0,26.197,0c0,3.828,0,7.386,0,11.303c26.465-19.879,50.525-17.927,73.085,5.476
		c2.769-2.534,5.547-5.41,8.646-7.889c8.602-6.885,18.533-10.223,29.511-10.65c7.634-0.299,15.168,0.014,22.385,2.795
		c15.859,6.12,24.041,18.529,27.54,34.476c1.004,4.58,1.462,9.361,1.501,14.063c0.148,23.932,0.06,47.872,0.066,71.812
		c0,1.157,0,2.324,0,3.842c-8.841,0-17.273,0-26.099,0c-0.104-1.424-0.29-2.79-0.29-4.154c-0.021-22.757,0.114-45.509-0.127-68.261
		c-0.055-4.519-0.944-9.256-2.534-13.476c-3.684-9.747-11.22-15.141-21.573-15.953c-10.736-0.832-19.449,3.248-25.633,12.21
		c-3.273,4.749-5.078,9.808-5,15.881c0.312,23.103,0.13,46.22,0.13,69.325c0,1.39,0,2.778,0,4.475c-8.932,0-17.364,0-26.16,0
		c-0.101-1.685-0.262-3.179-0.262-4.672c-0.021-22.158,0.162-44.324-0.148-66.478c-0.057-5.099-1.004-10.468-2.876-15.188
		c-3.746-9.514-11.407-14.74-21.543-15.544c-10.401-0.824-19.066,2.998-25.289,11.544c-3.625,4.966-5.598,10.39-5.518,16.832
		c0.273,22.868,0.104,45.744,0.104,68.617C1098.866,1550.579,1098.866,1552.096,1098.866,1554.036z"/>
	<path fill-rule="evenodd" clip-rule="evenodd" fill="#FFFFFF" d="M214.2,1438.219c0.263-3.777,0.448-6.517,0.658-9.534
		c8.686,0,17.114,0,25.83,0c0,41.799,0,83.312,0,125.211c-8.515,0-16.943,0-25.791,0c-0.205-2.711-0.415-5.438-0.682-8.945
		c-18.231,12.667-37.46,13.766-57.305,7.111c-12.85-4.309-22.877-12.657-30.559-23.842c-15.039-21.872-14.419-54.197,1.5-75.795
		c10.032-13.612,23.418-21.932,40.04-24.715C184.338,1424.957,199.883,1427.386,214.2,1438.219z M214.575,1491.501
		c0-6.163,0.219-12.328-0.112-18.471c-0.127-2.285-0.99-5-2.472-6.67c-11.012-12.445-25.02-16.934-41.014-13.201
		c-29.583,6.897-34.672,42.751-20.994,62.269c15.28,21.804,48.407,18.955,62.928-0.218c0.985-1.302,1.542-3.227,1.59-4.88
		C214.682,1504.057,214.575,1497.774,214.575,1491.501z"/>
	<path fill-rule="evenodd" clip-rule="evenodd" fill="#FFFFFF" d="M627.071,1498.398c-32.272,0-64.039,0-96.289,0
		c1.873,12.314,7.398,21.587,18.085,26.62c19.059,8.983,36.328,4.982,52.054-9.253c5.838,6.218,11.615,12.368,17.936,19.095
		c-3.102,2.739-5.731,5.415-8.702,7.629c-12.597,9.384-26.82,13.196-42.51,13.448c-29.518,0.47-59.047-19.988-63.812-54.693
		c-5.41-39.443,20.368-68.862,52.858-73.641c18.495-2.726,35.67,0.444,49.994,13.436c10.107,9.172,15.796,20.907,18.386,34.116
		c1.217,6.227,1.568,12.637,2.243,18.962C627.427,1495.249,627.194,1496.421,627.071,1498.398z M597.144,1477.921
		c0.897-6.352-5.381-18.159-13.42-22.438c-17.6-9.362-41.899-4.462-50.826,17.88c-0.535,1.326-0.68,2.808-1.078,4.558
		C553.949,1477.921,575.447,1477.921,597.144,1477.921z"/>
	<path fill-rule="evenodd" clip-rule="evenodd" fill="#FFFFFF" d="M822.892,1498.154c-16.922,0-32.772,0-48.638,0
		c-15.711,0-31.438,0-47.424,0c0,1.744-0.194,2.919,0.022,4.009c3.246,15.531,17.524,26.681,33.442,27.338
		c13.346,0.556,24.646-3.397,34.406-12.299c0.419-0.385,0.937-0.684,1.804-1.323c5.837,6.221,11.628,12.379,17.896,19.051
		c-3.577,3.045-6.688,6.097-10.196,8.606c-12.479,8.905-26.495,12.282-41.775,12.381c-30.521,0.187-59.812-21.804-63.418-57.162
		c-3.666-35.875,18.3-64.309,50.424-70.687c20.649-4.093,39.932-0.35,55.314,15.458c10.403,10.702,15.152,24.107,17.091,38.608
		C822.521,1487.224,822.534,1492.403,822.892,1498.154z M793.238,1477.797c-0.791-6.288-2.974-11.573-6.786-16.025
		c-13.437-15.728-41.187-14.082-53.369,3.089c-2.7,3.824-5.127,7.808-5.773,12.937
		C749.465,1477.797,771.136,1477.797,793.238,1477.797z"/>
	<path fill-rule="evenodd" clip-rule="evenodd" fill="#FFFFFF" d="M920.071,1491.224c-0.403-37.704,29.951-64.51,64.875-64.604
		c32.825-0.086,66.438,25.744,64.967,67.488c-1.307,36.833-31.883,62.005-65.193,61.914
		C949.915,1555.93,919.56,1529.036,920.071,1491.224z M947.189,1491.445c0.312,2.692,0.518,5.402,0.935,8.073
		c4.833,30.243,39.513,39.876,60.249,23.085c11.476-9.304,15.218-21.944,13.781-36.466c-2.306-23.381-23.658-38.697-46.385-33.057
		C957.987,1457.502,947.44,1471.783,947.189,1491.445z"/>
	<path fill-rule="evenodd" clip-rule="evenodd" fill="#FFFFFF" d="M375.576,1447.349c-6.108,5.657-12.24,11.351-18.631,17.276
		c-8.836-9.239-20.453-13.542-34.019-11.803c-9.125,1.17-16.769,5.379-22.972,12.293c-12.075,13.445-11.675,40.352,1.032,53.715
		c11.148,11.718,36.866,18.591,56.335-0.812c6.126,5.692,12.244,11.381,18.327,17.035c-13.551,16.632-38.586,25.718-65.702,18.448
		c-25.768-6.913-44.964-28.927-46.293-58.556c-1.384-30.598,15.93-56.238,43.096-64.867
		C333.299,1421.646,360.264,1429.206,375.576,1447.349z"/>
	<path fill-rule="evenodd" clip-rule="evenodd" fill="#FFFFFF" d="M495.37,1447.433c-6.215,5.752-12.28,11.355-18.603,17.197
		c-8.787-9.015-20.113-13.433-33.463-11.895c-8.501,0.98-16.09,4.347-21.911,10.667c-14.302,15.547-14.541,39.561-0.423,55.321
		c7.458,8.321,17.255,11.514,28.398,11.423c11.28-0.093,20.137-5.2,27.442-12.032c6.28,5.793,12.345,11.399,18.314,16.9
		c-7.655,14.577-38.814,24.363-60.985,19.653c-28.077-5.961-48.208-28.376-50.488-56.954c-2.769-34.694,16.758-58.747,42.338-67.4
		C452.21,1421.44,479.598,1428.821,495.37,1447.433z"/>
	<path fill-rule="evenodd" clip-rule="evenodd" fill="#FFFFFF" d="M650.008,1375.925c8.909,0,17.264,0,25.932,0
		c0,59.427,0,118.594,0,178.051c-8.688,0-17.137,0-25.932,0C650.008,1494.583,650.008,1435.429,650.008,1375.925z"/>
	<path fill-rule="evenodd" clip-rule="evenodd" fill="#FFFFFF" d="M845.448,1428.655c8.659,0,17.004,0,26.014,0
		c0,3.918,0,7.709,0,11.502c0.299,0.263,0.593,0.527,0.892,0.793c11.124-12.3,24.942-15.573,40.812-13.429
		c0,9.253,0,18.078,0,26.502c-5.597,0-11.231-0.279-16.814,0.062c-8.864,0.543-16.754,3.582-21.968,11.196
		c-1.561,2.273-2.71,5.359-2.739,8.081c-0.196,25.355-0.117,50.723-0.117,76.092c0,1.385,0,2.776,0,4.491c-8.9,0-17.333,0-26.08,0
		C845.448,1512.224,845.448,1470.693,845.448,1428.655z"/>
	<path fill="#FFFFFF" d="M1320.244,1375.133c20.941,0,37.925,17.538,37.925,38.761c0,21.518-17.262,38.784-38.491,38.784
		c-21.516,0-38.498-17.549-38.498-38.784c0-20.653,16.418-38.761,38.773-38.761H1320.244z"/>
</g>
<g>
	<path fill-rule="evenodd" clip-rule="evenodd" d="M1102.065,267.681c-9.113,0-17.49,0-26.191,0c0-41.974,0-83.695,0-125.717
		c8.695,0,17.146,0,26.272,0c0,3.836,0,7.411,0,11.338c26.541-19.941,50.671-17.981,73.298,5.493
		c2.778-2.548,5.564-5.427,8.67-7.914c8.626-6.903,18.584-10.248,29.598-10.684c7.66-0.298,15.212,0.013,22.449,2.801
		c15.905,6.141,24.109,18.585,27.619,34.574c1.011,4.599,1.468,9.39,1.507,14.106c0.149,24.003,0.062,48.016,0.069,72.028
		c0,1.154,0,2.328,0,3.848c-8.867,0-17.325,0-26.175,0c-0.105-1.423-0.292-2.796-0.292-4.171c-0.017-22.819,0.111-45.64-0.131-68.46
		c-0.055-4.525-0.94-9.273-2.535-13.509c-3.697-9.772-11.253-15.185-21.642-15.996c-10.765-0.842-19.504,3.253-25.706,12.246
		c-3.279,4.761-5.087,9.831-5.016,15.922c0.316,23.165,0.131,46.355,0.131,69.528c0,1.396,0,2.792,0,4.492
		c-8.955,0-17.414,0-26.237,0c-0.101-1.693-0.26-3.188-0.26-4.693c-0.021-22.222,0.159-44.446-0.152-66.664
		c-0.054-5.119-1.005-10.497-2.882-15.241c-3.759-9.534-11.442-14.778-21.607-15.584c-10.431-0.829-19.123,3.007-25.363,11.579
		c-3.632,4.974-5.611,10.419-5.534,16.881c0.278,22.935,0.108,45.876,0.108,68.818
		C1102.065,264.215,1102.065,265.733,1102.065,267.681z"/>
	<path fill-rule="evenodd" clip-rule="evenodd" d="M214.82,151.529c0.263-3.795,0.454-6.541,0.664-9.565c8.708,0,17.161,0,25.899,0
		c0,41.92,0,83.555,0,125.578c-8.536,0-16.987,0-25.862,0c-0.205-2.724-0.417-5.458-0.683-8.972
		c-18.284,12.697-37.571,13.806-57.469,7.133c-12.888-4.327-22.946-12.694-30.649-23.912c-15.081-21.936-14.459-54.355,1.499-76.021
		c10.066-13.648,23.494-21.99,40.161-24.78C184.875,138.225,200.466,140.662,214.82,151.529z M215.199,204.961
		c0-6.176,0.221-12.365-0.115-18.525c-0.126-2.285-0.991-5.015-2.479-6.69c-11.041-12.475-25.086-16.975-41.128-13.23
		c-29.674,6.915-34.78,42.876-21.053,62.447c15.322,21.865,48.541,19.008,63.106-0.218c0.987-1.308,1.543-3.237,1.595-4.895
		C215.304,217.558,215.199,211.252,215.199,204.961z"/>
	<path fill-rule="evenodd" clip-rule="evenodd" d="M628.891,211.883c-32.364,0-64.222,0-96.562,0
		c1.872,12.353,7.415,21.646,18.134,26.691c19.12,9.015,36.438,5,52.206-9.273c5.849,6.23,11.652,12.401,17.993,19.146
		c-3.116,2.747-5.754,5.435-8.73,7.654c-12.626,9.408-26.897,13.23-42.634,13.488c-29.602,0.471-59.217-20.048-63.996-54.858
		c-5.435-39.554,20.424-69.06,53.009-73.855c18.55-2.724,35.774,0.445,50.142,13.478c10.132,9.195,15.838,20.97,18.434,34.218
		c1.229,6.245,1.58,12.676,2.258,19.023C629.251,208.718,629.016,209.898,628.891,211.883z M598.88,191.344
		c0.905-6.372-5.396-18.213-13.454-22.5c-17.655-9.39-42.024-4.478-50.978,17.931c-0.532,1.332-0.684,2.814-1.077,4.569
		C555.557,191.344,577.12,191.344,598.88,191.344z"/>
	<path fill-rule="evenodd" clip-rule="evenodd" d="M825.281,211.635c-16.964,0-32.863,0-48.773,0c-15.762,0-31.526,0-47.565,0
		c0,1.749-0.194,2.929,0.023,4.022c3.255,15.578,17.576,26.759,33.542,27.413c13.381,0.563,24.72-3.4,34.503-12.33
		c0.423-0.387,0.942-0.69,1.815-1.326c5.85,6.238,11.664,12.415,17.944,19.102c-3.582,3.06-6.703,6.115-10.225,8.632
		c-12.517,8.93-26.57,12.317-41.895,12.417c-30.605,0.186-59.986-21.866-63.603-57.325c-3.673-35.979,18.356-64.499,50.563-70.894
		c20.716-4.102,40.057-0.351,55.479,15.506c10.436,10.728,15.197,24.17,17.139,38.72
		C824.913,200.673,824.93,205.864,825.281,211.635z M795.551,191.222c-0.798-6.311-2.982-11.608-6.811-16.073
		c-13.472-15.773-41.303-14.122-53.526,3.096c-2.708,3.837-5.134,7.83-5.787,12.978
		C751.648,191.222,773.379,191.222,795.551,191.222z"/>
	<path fill-rule="evenodd" clip-rule="evenodd" d="M922.747,204.689c-0.4-37.816,30.042-64.705,65.066-64.798
		c32.918-0.082,66.626,25.824,65.151,67.689c-1.307,36.934-31.972,62.181-65.375,62.098
		C952.68,269.579,922.231,242.61,922.747,204.689z M949.945,204.913c0.315,2.699,0.521,5.408,0.939,8.091
		c4.843,30.332,39.622,39.987,60.421,23.157c11.512-9.336,15.262-22.011,13.822-36.579c-2.311-23.441-23.723-38.804-46.519-33.146
		C960.775,170.87,950.2,185.189,949.945,204.913z"/>
	<path fill-rule="evenodd" clip-rule="evenodd" d="M376.667,160.682c-6.129,5.673-12.277,11.379-18.69,17.328
		c-8.857-9.264-20.507-13.575-34.109-11.841c-9.153,1.174-16.816,5.396-23.042,12.329c-12.111,13.49-11.708,40.473,1.033,53.874
		c11.183,11.758,36.979,18.646,56.501-0.815c6.146,5.711,12.281,11.416,18.38,17.086c-13.587,16.68-38.695,25.79-65.896,18.506
		c-25.84-6.933-45.092-29.009-46.427-58.727c-1.386-30.69,15.983-56.402,43.228-65.064
		C334.268,134.901,361.312,142.49,376.667,160.682z"/>
	<path fill-rule="evenodd" clip-rule="evenodd" d="M496.811,160.767c-6.237,5.772-12.324,11.393-18.657,17.243
		c-8.808-9.033-20.171-13.469-33.558-11.926c-8.53,0.986-16.139,4.362-21.98,10.697c-14.335,15.59-14.581,39.676-0.419,55.482
		c7.48,8.349,17.305,11.552,28.479,11.452c11.312-0.082,20.2-5.208,27.521-12.067c6.29,5.819,12.377,11.438,18.368,16.957
		c-7.678,14.624-38.932,24.432-61.163,19.704c-28.158-5.978-48.347-28.452-50.641-57.11c-2.774-34.8,16.808-58.927,42.472-67.603
		C453.525,134.704,480.992,142.103,496.811,160.767z"/>
	<path fill-rule="evenodd" clip-rule="evenodd" d="M651.901,89.051c8.936,0,17.31,0,26.003,0c0,59.604,0,118.935,0,178.569
		c-8.712,0-17.188,0-26.003,0C651.901,208.057,651.901,148.727,651.901,89.051z"/>
	<path fill-rule="evenodd" clip-rule="evenodd" d="M847.91,141.935c8.687,0,17.053,0,26.092,0c0,3.932,0,7.73,0,11.537
		c0.295,0.258,0.591,0.531,0.89,0.791c11.156-12.328,25.015-15.614,40.93-13.468c0,9.288,0,18.134,0,26.583
		c-5.611,0-11.262-0.283-16.86,0.062c-8.884,0.544-16.798,3.595-22.032,11.229c-1.567,2.281-2.715,5.376-2.745,8.106
		c-0.193,25.429-0.122,50.869-0.122,76.308c0,1.394,0,2.783,0,4.513c-8.924,0-17.381,0-26.151,0
		C847.91,225.749,847.91,184.096,847.91,141.935z"/>
	<path fill="#2AA94A" d="M1324.087,88.252c21.003,0,38.033,17.595,38.033,38.878c0,21.58-17.314,38.899-38.603,38.899
		c-21.581,0-38.61-17.598-38.61-38.899c0-20.71,16.466-38.878,38.888-38.878H1324.087z"/>
</g>
<g>
	<path fill-rule="evenodd" clip-rule="evenodd" fill="#01040A" d="M1102.065,700.866c-9.113,0-17.49,0-26.191,0
		c0-41.974,0-83.695,0-125.717c8.695,0,17.146,0,26.272,0c0,3.836,0,7.411,0,11.338c26.541-19.941,50.671-17.981,73.298,5.493
		c2.778-2.548,5.564-5.427,8.67-7.914c8.626-6.903,18.584-10.248,29.598-10.684c7.66-0.298,15.212,0.013,22.449,2.801
		c15.905,6.141,24.109,18.585,27.619,34.574c1.011,4.599,1.468,9.39,1.507,14.106c0.149,24.003,0.062,48.016,0.069,72.028
		c0,1.154,0,2.328,0,3.848c-8.867,0-17.325,0-26.175,0c-0.105-1.423-0.292-2.796-0.292-4.171c-0.017-22.819,0.111-45.64-0.131-68.46
		c-0.055-4.525-0.94-9.273-2.535-13.509c-3.697-9.772-11.253-15.185-21.642-15.996c-10.765-0.842-19.504,3.253-25.706,12.246
		c-3.279,4.761-5.087,9.831-5.016,15.922c0.316,23.165,0.131,46.355,0.131,69.528c0,1.396,0,2.792,0,4.492
		c-8.955,0-17.414,0-26.237,0c-0.101-1.693-0.26-3.188-0.26-4.693c-0.021-22.222,0.159-44.446-0.152-66.664
		c-0.054-5.119-1.005-10.497-2.882-15.241c-3.759-9.534-11.442-14.778-21.607-15.584c-10.431-0.829-19.123,3.007-25.363,11.579
		c-3.632,4.974-5.611,10.419-5.534,16.881c0.278,22.935,0.108,45.876,0.108,68.818
		C1102.065,697.4,1102.065,698.919,1102.065,700.866z"/>
	<path fill-rule="evenodd" clip-rule="evenodd" fill="#01040A" d="M214.821,584.715c0.263-3.795,0.454-6.541,0.664-9.565
		c8.708,0,17.161,0,25.899,0c0,41.92,0,83.555,0,125.578c-8.536,0-16.987,0-25.862,0c-0.205-2.724-0.417-5.458-0.683-8.972
		c-18.284,12.697-37.571,13.806-57.469,7.133c-12.888-4.327-22.946-12.694-30.649-23.912c-15.081-21.936-14.459-54.355,1.499-76.021
		c10.066-13.648,23.494-21.99,40.161-24.78C184.876,571.41,200.467,573.848,214.821,584.715z M215.199,638.146
		c0-6.176,0.221-12.365-0.115-18.525c-0.126-2.285-0.991-5.015-2.479-6.69c-11.041-12.475-25.086-16.975-41.128-13.23
		c-29.674,6.915-34.78,42.876-21.053,62.447c15.322,21.865,48.541,19.008,63.106-0.218c0.987-1.308,1.543-3.237,1.595-4.895
		C215.304,650.743,215.199,644.438,215.199,638.146z"/>
	<path fill-rule="evenodd" clip-rule="evenodd" fill="#01040A" d="M628.892,645.068c-32.364,0-64.222,0-96.562,0
		c1.872,12.353,7.415,21.646,18.134,26.691c19.12,9.015,36.438,5,52.206-9.273c5.849,6.23,11.652,12.401,17.993,19.146
		c-3.116,2.747-5.754,5.435-8.73,7.654c-12.626,9.408-26.897,13.23-42.634,13.488c-29.602,0.471-59.217-20.048-63.996-54.858
		c-5.435-39.554,20.424-69.06,53.009-73.855c18.55-2.724,35.774,0.445,50.142,13.478c10.132,9.195,15.838,20.97,18.434,34.218
		c1.229,6.245,1.58,12.676,2.258,19.023C629.251,641.903,629.016,643.084,628.892,645.068z M598.881,624.529
		c0.905-6.372-5.396-18.213-13.454-22.5c-17.655-9.39-42.024-4.478-50.978,17.931c-0.532,1.332-0.684,2.814-1.077,4.569
		C555.557,624.529,577.12,624.529,598.881,624.529z"/>
	<path fill-rule="evenodd" clip-rule="evenodd" fill="#01040A" d="M825.281,644.82c-16.964,0-32.863,0-48.773,0
		c-15.762,0-31.526,0-47.565,0c0,1.749-0.194,2.929,0.023,4.022c3.255,15.578,17.576,26.759,33.542,27.413
		c13.381,0.563,24.72-3.4,34.503-12.33c0.423-0.387,0.942-0.69,1.815-1.326c5.85,6.238,11.664,12.415,17.944,19.102
		c-3.582,3.06-6.703,6.115-10.225,8.632c-12.517,8.93-26.57,12.317-41.895,12.417c-30.605,0.186-59.986-21.866-63.603-57.325
		c-3.673-35.979,18.356-64.499,50.563-70.894c20.716-4.102,40.057-0.351,55.479,15.506c10.436,10.728,15.197,24.17,17.139,38.72
		C824.913,633.858,824.93,639.05,825.281,644.82z M795.551,624.407c-0.798-6.311-2.982-11.608-6.811-16.073
		c-13.472-15.773-41.303-14.122-53.526,3.096c-2.708,3.837-5.134,7.83-5.787,12.978C751.648,624.407,773.38,624.407,795.551,624.407
		z"/>
	<path fill-rule="evenodd" clip-rule="evenodd" fill="#01040A" d="M922.747,637.875c-0.4-37.816,30.042-64.705,65.066-64.798
		c32.918-0.082,66.626,25.824,65.151,67.689c-1.307,36.934-31.972,62.181-65.375,62.098
		C952.681,702.765,922.231,675.796,922.747,637.875z M949.946,638.099c0.315,2.699,0.521,5.408,0.939,8.091
		c4.843,30.332,39.622,39.987,60.421,23.157c11.512-9.336,15.262-22.011,13.822-36.579c-2.311-23.441-23.723-38.804-46.519-33.146
		C960.775,604.056,950.2,618.375,949.946,638.099z"/>
	<path fill-rule="evenodd" clip-rule="evenodd" fill="#01040A" d="M376.668,593.867c-6.129,5.673-12.277,11.379-18.69,17.328
		c-8.857-9.264-20.507-13.575-34.109-11.841c-9.153,1.174-16.816,5.396-23.042,12.329c-12.111,13.49-11.708,40.473,1.033,53.874
		c11.183,11.758,36.979,18.646,56.501-0.815c6.146,5.711,12.281,11.416,18.38,17.086c-13.587,16.68-38.695,25.79-65.896,18.506
		c-25.84-6.933-45.092-29.009-46.427-58.727c-1.386-30.69,15.983-56.402,43.228-65.064
		C334.269,568.087,361.312,575.676,376.668,593.867z"/>
	<path fill-rule="evenodd" clip-rule="evenodd" fill="#01040A" d="M496.812,593.952c-6.237,5.772-12.324,11.393-18.657,17.243
		c-8.808-9.033-20.171-13.469-33.558-11.926c-8.53,0.986-16.139,4.362-21.98,10.697c-14.335,15.59-14.581,39.676-0.419,55.482
		c7.48,8.349,17.305,11.552,28.479,11.452c11.312-0.082,20.2-5.208,27.521-12.067c6.29,5.819,12.377,11.438,18.368,16.957
		c-7.678,14.624-38.932,24.432-61.163,19.704c-28.158-5.978-48.347-28.452-50.641-57.11c-2.774-34.8,16.808-58.927,42.472-67.603
		C453.525,567.89,480.992,575.288,496.812,593.952z"/>
	<path fill-rule="evenodd" clip-rule="evenodd" fill="#01040A" d="M651.901,522.236c8.936,0,17.31,0,26.003,0
		c0,59.604,0,118.935,0,178.569c-8.712,0-17.188,0-26.003,0C651.901,641.242,651.901,581.912,651.901,522.236z"/>
	<path fill-rule="evenodd" clip-rule="evenodd" fill="#01040A" d="M847.91,575.12c8.687,0,17.053,0,26.092,0
		c0,3.932,0,7.73,0,11.537c0.295,0.258,0.591,0.531,0.89,0.791c11.156-12.328,25.015-15.614,40.93-13.468c0,9.288,0,18.134,0,26.583
		c-5.611,0-11.262-0.283-16.86,0.062c-8.884,0.544-16.798,3.595-22.032,11.229c-1.567,2.281-2.715,5.376-2.745,8.106
		c-0.193,25.429-0.122,50.869-0.122,76.308c0,1.394,0,2.783,0,4.513c-8.924,0-17.381,0-26.151,0
		C847.91,658.935,847.91,617.281,847.91,575.12z"/>
	<path fill="#00A547" d="M1324.088,521.438c21.003,0,38.033,17.595,38.033,38.878c0,21.58-17.314,38.899-38.603,38.899
		c-21.581,0-38.61-17.598-38.61-38.899c0-20.71,16.466-38.878,38.888-38.878H1324.088z"/>
</g>
<text transform="matrix(1 0 0 1 45.8643 491.7812)" font-family="'MyriadPro-Regular'" font-size="18">PANTONE 426 CP / 354 CP</text>
</svg>
