<?xml version="1.0" encoding="utf-8"?>
<!-- Generator: Adobe Illustrator 24.1.2, SVG Export Plug-In . SVG Version: 6.00 Build 0)  -->
<svg version="1.1" id="KCS" xmlns="http://www.w3.org/2000/svg" xmlns:xlink="http://www.w3.org/1999/xlink" x="0px" y="0px"
	 viewBox="0 0 736.4 136.5" style="enable-background:new 0 0 736.4 136.5;" xml:space="preserve">
<style type="text/css">
	.st0{fill:#DB0819;}
	.st1{fill:#FFFFFF;}
	.st2{fill:#008DD1;}
</style>
<polygon id="Cross_1_" class="st0" points="543.9,82.5 555.4,82.5 555.4,91.8 564.8,91.8 564.8,104.5 555.4,104.5 555.4,113.9 
	543.9,113.9 543.9,111.7 550.9,111.7 550.9,102.3 560.3,102.3 560.3,94.1 550.9,94.1 550.9,84.7 543.9,84.7 "/>
<path id="Claim_1_" d="M39.3,97.1h-5.5v16.8h-3V97.1h-5.5v-2.6h14V97.1z M44.7,101.4c0.4-0.7,1-1.2,1.6-1.6c0.6-0.4,1.4-0.6,2.1-0.6
	c1.4,0,2.5,0.5,3.3,1.4c0.8,1,1.2,2.4,1.2,4.5v8.8h-3v-8.8c0-1.1-0.2-2-0.6-2.5c-0.4-0.5-1.1-0.8-1.9-0.8c-0.6,0-1.1,0.1-1.6,0.4
	c-0.5,0.3-0.9,0.6-1.2,1.1v10.6h-3V93.1h3V101.4z M62.3,114.2c-1.9,0-3.4-0.7-4.6-2c-1.1-1.3-1.7-3.1-1.7-5.1v-0.5
	c0-2.1,0.6-3.8,1.7-5.2c1.1-1.4,2.5-2.1,4.2-2.1c1.8,0,3.2,0.6,4.2,1.8c1,1.2,1.4,2.8,1.4,4.7v1.9h-8.4l0,0.1c0,1.1,0.4,2.1,0.9,2.8
	c0.6,0.7,1.4,1.1,2.4,1.1c0.8,0,1.5-0.1,2.1-0.3c0.6-0.2,1.1-0.5,1.7-0.9l1,2.1c-0.5,0.5-1.2,0.9-2,1.2
	C64.3,114,63.4,114.2,62.3,114.2z M61.9,101.8c-0.7,0-1.4,0.3-1.8,1c-0.5,0.6-0.8,1.4-0.9,2.4l0,0.1h5.3v-0.3c0-0.9-0.2-1.7-0.7-2.2
	C63.5,102.1,62.8,101.8,61.9,101.8z M91,111.3c-0.5,0.7-1.3,1.4-2.4,2c-1.1,0.6-2.5,0.9-4.2,0.9c-2.2,0-4-0.7-5.4-2.2
	c-1.4-1.5-2.1-3.4-2.1-5.7v-4c0-2.3,0.7-4.3,2-5.7c1.3-1.5,3-2.2,5.2-2.2c2.1,0,3.8,0.6,5,1.7c1.2,1.1,1.8,2.6,1.8,4.4l0,0.1h-2.9
	c-0.1-1.1-0.4-1.9-1.1-2.6c-0.6-0.7-1.6-1-2.8-1c-1.3,0-2.3,0.5-3,1.5c-0.8,1-1.1,2.3-1.1,3.8v4.1c0,1.6,0.4,2.8,1.2,3.9
	c0.8,1,1.9,1.5,3.2,1.5c0.9,0,1.7-0.1,2.3-0.4c0.6-0.2,1-0.5,1.3-0.8v-3.9h-3.6v-2.4H91V111.3z M102.8,113.9
	c-0.1-0.4-0.2-0.7-0.3-1.1c-0.1-0.3-0.1-0.7-0.1-1c-0.4,0.7-1,1.2-1.6,1.7c-0.7,0.5-1.4,0.7-2.3,0.7c-1.4,0-2.5-0.4-3.2-1.2
	c-0.8-0.8-1.1-1.8-1.1-3.2c0-1.4,0.5-2.5,1.5-3.3c1-0.8,2.5-1.2,4.3-1.2h2.4v-1.3c0-0.8-0.2-1.3-0.6-1.8c-0.4-0.4-1-0.6-1.8-0.6
	c-0.7,0-1.2,0.2-1.6,0.5c-0.4,0.4-0.6,0.8-0.6,1.4h-2.9l0-0.1c-0.1-1.1,0.4-2.1,1.4-3c1-0.9,2.3-1.3,3.9-1.3c1.6,0,2.8,0.4,3.8,1.3
	c1,0.9,1.4,2.1,1.4,3.7v6.4c0,0.6,0,1.2,0.1,1.7c0.1,0.5,0.2,1.1,0.4,1.6H102.8z M99.1,111.6c0.8,0,1.4-0.2,2.1-0.6
	c0.6-0.4,1-0.9,1.2-1.4v-2.1h-2.4c-0.9,0-1.6,0.2-2.1,0.7c-0.5,0.5-0.7,1-0.7,1.6c0,0.6,0.2,1,0.5,1.3
	C98,111.4,98.4,111.6,99.1,111.6z M117.3,111.8c-0.4,0.8-1,1.4-1.6,1.8c-0.6,0.4-1.4,0.6-2.2,0.6c-1.4,0-2.6-0.5-3.4-1.5
	c-0.8-1-1.2-2.5-1.2-4.6v-8.6h3v8.6c0,1.3,0.2,2.1,0.6,2.7c0.4,0.5,1,0.8,1.7,0.8c0.7,0,1.3-0.1,1.8-0.4c0.5-0.3,0.9-0.7,1.2-1.2
	V99.5h3v14.4h-2.6L117.3,111.8z M123.2,106.9c0-2.3,0.5-4.1,1.4-5.6c0.9-1.4,2.2-2.1,3.9-2.1c0.8,0,1.5,0.2,2.1,0.6
	c0.6,0.4,1.1,0.9,1.5,1.6l0.3-1.9h2.5v14.4c0,1.9-0.5,3.3-1.6,4.3c-1.1,1-2.6,1.5-4.6,1.5c-0.7,0-1.4-0.1-2.1-0.3
	c-0.8-0.2-1.4-0.5-2.1-0.8l0.6-2.5c0.5,0.3,1,0.5,1.6,0.6c0.6,0.2,1.2,0.2,1.9,0.2c1.1,0,1.9-0.3,2.4-0.8c0.5-0.5,0.8-1.3,0.8-2.3
	v-1.5c-0.4,0.6-0.9,1-1.5,1.3c-0.6,0.3-1.2,0.4-2,0.4c-1.6,0-2.9-0.6-3.9-1.9c-0.9-1.3-1.4-3-1.4-5.1V106.9z M126.2,107.2
	c0,1.3,0.2,2.4,0.7,3.2c0.5,0.8,1.3,1.2,2.3,1.2c0.6,0,1.2-0.1,1.6-0.4c0.4-0.3,0.8-0.7,1.1-1.2v-6.3c-0.3-0.5-0.6-0.9-1.1-1.2
	c-0.4-0.3-1-0.4-1.6-0.4c-1,0-1.8,0.5-2.3,1.4c-0.5,0.9-0.8,2.1-0.8,3.6V107.2z M144.3,114.2c-1.9,0-3.4-0.7-4.6-2
	c-1.1-1.3-1.7-3.1-1.7-5.1v-0.5c0-2.1,0.6-3.8,1.7-5.2c1.1-1.4,2.5-2.1,4.2-2.1c1.8,0,3.2,0.6,4.2,1.8c1,1.2,1.4,2.8,1.4,4.7v1.9
	h-8.4l0,0.1c0,1.1,0.4,2.1,0.9,2.8c0.6,0.7,1.4,1.1,2.4,1.1c0.8,0,1.5-0.1,2.1-0.3c0.6-0.2,1.1-0.5,1.7-0.9l1,2.1
	c-0.5,0.5-1.2,0.9-2,1.2C146.4,114,145.4,114.2,144.3,114.2z M143.9,101.8c-0.7,0-1.4,0.3-1.8,1c-0.5,0.6-0.8,1.4-0.9,2.4l0,0.1h5.3
	v-0.3c0-0.9-0.2-1.7-0.7-2.2C145.5,102.1,144.8,101.8,143.9,101.8z M163.4,94.5l5.2,14.9h0.1l5.2-14.9h3.9v19.4h-3v-6.6l0.3-8.4
	l-0.1,0l-5.4,15h-2l-5.3-15l-0.1,0l0.3,8.4v6.6h-3V94.5H163.4z M189.9,113.9c-0.1-0.4-0.2-0.7-0.3-1.1c-0.1-0.3-0.1-0.7-0.1-1
	c-0.4,0.7-1,1.2-1.6,1.7c-0.7,0.5-1.4,0.7-2.3,0.7c-1.4,0-2.5-0.4-3.2-1.2c-0.8-0.8-1.1-1.8-1.1-3.2c0-1.4,0.5-2.5,1.5-3.3
	c1-0.8,2.5-1.2,4.3-1.2h2.4v-1.3c0-0.8-0.2-1.3-0.6-1.8c-0.4-0.4-1-0.6-1.8-0.6c-0.7,0-1.2,0.2-1.6,0.5c-0.4,0.4-0.6,0.8-0.6,1.4
	h-2.9l0-0.1c-0.1-1.1,0.4-2.1,1.4-3c1-0.9,2.3-1.3,3.9-1.3c1.6,0,2.8,0.4,3.8,1.3c1,0.9,1.4,2.1,1.4,3.7v6.4c0,0.6,0,1.2,0.1,1.7
	c0.1,0.5,0.2,1.1,0.4,1.6H189.9z M186.2,111.6c0.8,0,1.4-0.2,2.1-0.6c0.6-0.4,1-0.9,1.2-1.4v-2.1H187c-0.9,0-1.6,0.2-2.1,0.7
	c-0.5,0.5-0.7,1-0.7,1.6c0,0.6,0.2,1,0.5,1.3C185.1,111.4,185.6,111.6,186.2,111.6z M198.8,99.5l0.2,2.1c0.4-0.7,1-1.3,1.7-1.7
	s1.4-0.6,2.3-0.6c1.4,0,2.5,0.5,3.3,1.4c0.8,0.9,1.2,2.3,1.2,4.3v9.1h-3v-9c0-1.1-0.2-1.9-0.6-2.3c-0.4-0.5-1.1-0.7-1.9-0.7
	c-0.6,0-1.1,0.1-1.6,0.4c-0.5,0.3-0.8,0.7-1.1,1.2v10.5h-3V99.5H198.8z M219.2,111.8c-0.4,0.8-1,1.4-1.6,1.8
	c-0.6,0.4-1.4,0.6-2.2,0.6c-1.4,0-2.6-0.5-3.4-1.5c-0.8-1-1.2-2.5-1.2-4.6v-8.6h3v8.6c0,1.3,0.2,2.1,0.6,2.7c0.4,0.5,1,0.8,1.7,0.8
	c0.7,0,1.3-0.1,1.8-0.4c0.5-0.3,0.9-0.7,1.2-1.2V99.5h3v14.4h-2.6L219.2,111.8z M226.6,113.9v-12h-2.1v-2.4h2.1v-1.7
	c0-1.6,0.4-2.8,1.2-3.7c0.8-0.9,1.9-1.3,3.4-1.3c0.3,0,0.6,0,0.9,0.1c0.3,0,0.6,0.1,1,0.2l-0.3,2.5c-0.2,0-0.4-0.1-0.6-0.1
	c-0.2,0-0.4,0-0.7,0c-0.7,0-1.1,0.2-1.5,0.6c-0.3,0.4-0.5,1-0.5,1.7v1.7h2.7v2.4h-2.7v12H226.6z M243,113.9
	c-0.1-0.4-0.2-0.7-0.3-1.1c-0.1-0.3-0.1-0.7-0.1-1c-0.4,0.7-1,1.2-1.6,1.7c-0.7,0.5-1.4,0.7-2.3,0.7c-1.4,0-2.5-0.4-3.2-1.2
	c-0.8-0.8-1.1-1.8-1.1-3.2c0-1.4,0.5-2.5,1.5-3.3c1-0.8,2.5-1.2,4.3-1.2h2.4v-1.3c0-0.8-0.2-1.3-0.6-1.8c-0.4-0.4-1-0.6-1.8-0.6
	c-0.7,0-1.2,0.2-1.6,0.5c-0.4,0.4-0.6,0.8-0.6,1.4h-2.9l0-0.1c-0.1-1.1,0.4-2.1,1.4-3c1-0.9,2.3-1.3,3.9-1.3c1.6,0,2.8,0.4,3.8,1.3
	c1,0.9,1.4,2.1,1.4,3.7v6.4c0,0.6,0,1.2,0.1,1.7c0.1,0.5,0.2,1.1,0.4,1.6H243z M239.3,111.6c0.8,0,1.4-0.2,2.1-0.6
	c0.6-0.4,1-0.9,1.2-1.4v-2.1h-2.4c-0.9,0-1.6,0.2-2.1,0.7c-0.5,0.5-0.7,1-0.7,1.6c0,0.6,0.2,1,0.5,1.3
	C238.2,111.4,238.7,111.6,239.3,111.6z M254.7,111.6c0.7,0,1.4-0.2,1.9-0.7c0.5-0.5,0.8-1,0.8-1.7h2.7l0,0.1c0,1.4-0.5,2.5-1.5,3.5
	c-1.1,1-2.3,1.5-3.8,1.5c-2,0-3.5-0.7-4.6-2.1c-1.1-1.4-1.6-3.1-1.6-5.2v-0.5c0-2.1,0.5-3.8,1.6-5.2c1.1-1.4,2.6-2.1,4.6-2.1
	c1.6,0,2.9,0.5,3.9,1.5c1,1,1.5,2.3,1.5,3.8l0,0.1h-2.7c0-0.8-0.2-1.5-0.7-2c-0.5-0.6-1.1-0.8-1.9-0.8c-1.1,0-1.9,0.4-2.4,1.3
	c-0.5,0.9-0.7,2-0.7,3.3v0.5c0,1.4,0.2,2.5,0.7,3.3C252.8,111.2,253.6,111.6,254.7,111.6z M266.7,96v3.5h2.4v2.4h-2.4v8
	c0,0.6,0.1,1,0.4,1.3c0.2,0.3,0.6,0.4,1,0.4c0.2,0,0.3,0,0.5,0c0.2,0,0.3-0.1,0.4-0.1l0.3,2.4c-0.3,0.2-0.6,0.3-0.9,0.4
	c-0.4,0.1-0.7,0.1-1.1,0.1c-1.1,0-2-0.3-2.6-1c-0.6-0.7-0.9-1.8-0.9-3.3v-8h-2.1v-2.4h2.1V96H266.7z M280.6,111.8
	c-0.4,0.8-1,1.4-1.6,1.8c-0.6,0.4-1.4,0.6-2.2,0.6c-1.4,0-2.6-0.5-3.4-1.5c-0.8-1-1.2-2.5-1.2-4.6v-8.6h3v8.6c0,1.3,0.2,2.1,0.6,2.7
	c0.4,0.5,1,0.8,1.7,0.8c0.7,0,1.3-0.1,1.8-0.4c0.5-0.3,0.9-0.7,1.2-1.2V99.5h3v14.4h-2.6L280.6,111.8z M293.7,102.4l-1.3-0.1
	c-0.6,0-1.1,0.1-1.5,0.4c-0.4,0.3-0.7,0.6-0.9,1.1v10h-3V99.5h2.8l0.2,2.1c0.3-0.7,0.8-1.3,1.3-1.7c0.5-0.4,1.2-0.6,1.8-0.6
	c0.2,0,0.4,0,0.5,0c0.2,0,0.3,0.1,0.4,0.1L293.7,102.4z M301.9,114.2c-1.9,0-3.4-0.7-4.6-2c-1.1-1.3-1.7-3.1-1.7-5.1v-0.5
	c0-2.1,0.6-3.8,1.7-5.2c1.1-1.4,2.5-2.1,4.2-2.1c1.8,0,3.2,0.6,4.2,1.8c1,1.2,1.4,2.8,1.4,4.7v1.9h-8.4l0,0.1c0,1.1,0.4,2.1,0.9,2.8
	c0.6,0.7,1.4,1.1,2.4,1.1c0.8,0,1.5-0.1,2.1-0.3c0.6-0.2,1.1-0.5,1.7-0.9l1,2.1c-0.5,0.5-1.2,0.9-2,1.2
	C304,114,303,114.2,301.9,114.2z M301.6,101.8c-0.7,0-1.4,0.3-1.8,1c-0.5,0.6-0.8,1.4-0.9,2.4l0,0.1h5.3v-0.3c0-0.9-0.2-1.7-0.7-2.2
	C303.1,102.1,302.5,101.8,301.6,101.8z M316.7,102.4l-1.3-0.1c-0.6,0-1.1,0.1-1.5,0.4c-0.4,0.3-0.7,0.6-0.9,1.1v10h-3V99.5h2.8
	l0.2,2.1c0.3-0.7,0.8-1.3,1.3-1.7c0.5-0.4,1.2-0.6,1.8-0.6c0.2,0,0.4,0,0.5,0c0.2,0,0.3,0.1,0.4,0.1L316.7,102.4z M326.9,113.9v-12
	h-2.1v-2.4h2.1v-1.7c0-1.6,0.4-2.8,1.2-3.7c0.8-0.9,1.9-1.3,3.4-1.3c0.3,0,0.6,0,0.9,0.1c0.3,0,0.6,0.1,1,0.2l-0.3,2.5
	c-0.2,0-0.4-0.1-0.6-0.1c-0.2,0-0.4,0-0.7,0c-0.7,0-1.1,0.2-1.5,0.6c-0.3,0.4-0.5,1-0.5,1.7v1.7h2.7v2.4H330v12H326.9z M334.7,106.6
	c0-2.1,0.5-3.9,1.6-5.3c1.1-1.4,2.6-2.1,4.5-2.1c1.9,0,3.4,0.7,4.5,2.1c1.1,1.4,1.7,3.1,1.7,5.3v0.3c0,2.2-0.6,3.9-1.7,5.3
	c-1.1,1.4-2.6,2-4.5,2c-1.9,0-3.4-0.7-4.5-2.1c-1.1-1.4-1.6-3.1-1.6-5.3V106.6z M337.7,106.9c0,1.4,0.3,2.5,0.8,3.4
	c0.5,0.9,1.3,1.3,2.4,1.3c1.1,0,1.8-0.4,2.4-1.3c0.5-0.9,0.8-2,0.8-3.4v-0.3c0-1.4-0.3-2.5-0.8-3.4c-0.5-0.9-1.3-1.3-2.4-1.3
	c-1.1,0-1.8,0.4-2.4,1.3c-0.5,0.9-0.8,2-0.8,3.4V106.9z M356.8,102.4l-1.3-0.1c-0.6,0-1.1,0.1-1.5,0.4c-0.4,0.3-0.7,0.6-0.9,1.1v10
	h-3V99.5h2.8l0.2,2.1c0.3-0.7,0.8-1.3,1.3-1.7c0.5-0.4,1.2-0.6,1.8-0.6c0.2,0,0.4,0,0.5,0c0.2,0,0.3,0.1,0.4,0.1L356.8,102.4z
	 M377.3,105.6h-7.9v8.3h-3V94.5h12.2v2.6h-9.2v5.9h7.9V105.6z M384.4,96h-3v-2.8h3V96z M384.4,113.9h-3V99.5h3V113.9z M391.4,113.9
	h-3V93.1h3V113.9z M397.9,99.5l0.2,1.9c0.4-0.7,1-1.2,1.7-1.6c0.7-0.4,1.4-0.6,2.3-0.6c0.9,0,1.6,0.2,2.3,0.6
	c0.6,0.4,1.1,1.1,1.4,1.9c0.4-0.8,1-1.4,1.6-1.9c0.7-0.5,1.5-0.7,2.4-0.7c1.4,0,2.4,0.5,3.2,1.5c0.8,1,1.2,2.5,1.2,4.5v8.7h-3v-8.7
	c0-1.2-0.2-2.1-0.6-2.6c-0.4-0.5-1-0.7-1.8-0.7c-0.6,0-1.2,0.2-1.6,0.6c-0.4,0.4-0.8,0.9-1,1.5c0,0.1,0,0.2,0,0.3c0,0.1,0,0.2,0,0.3
	v9.3h-3v-8.7c0-1.2-0.2-2-0.6-2.6c-0.4-0.5-1-0.8-1.8-0.8c-0.6,0-1.1,0.1-1.6,0.4c-0.4,0.3-0.8,0.6-1,1.1v10.6h-3V99.5H397.9z
	 M435.7,105.2h-7.9v6.1h9.2v2.6h-12.2V94.5h12.1v2.6h-9.1v5.5h7.9V105.2z M444.3,104.4l2.5-4.9h3.5l-4.2,7.1l4.4,7.3H447l-2.6-5.1
	l-2.6,5.1h-3.5l4.4-7.3l-4.2-7.1h3.4L444.3,104.4z M456.6,96v3.5h2.4v2.4h-2.4v8c0,0.6,0.1,1,0.4,1.3c0.2,0.3,0.6,0.4,1,0.4
	c0.2,0,0.3,0,0.5,0c0.2,0,0.3-0.1,0.4-0.1l0.3,2.4c-0.3,0.2-0.6,0.3-0.9,0.4c-0.4,0.1-0.7,0.1-1.1,0.1c-1.1,0-2-0.3-2.6-1
	c-0.6-0.7-0.9-1.8-0.9-3.3v-8h-2.1v-2.4h2.1V96H456.6z M468.8,102.4l-1.3-0.1c-0.6,0-1.1,0.1-1.5,0.4c-0.4,0.3-0.7,0.6-0.9,1.1v10
	h-3V99.5h2.8l0.2,2.1c0.3-0.7,0.8-1.3,1.3-1.7c0.5-0.4,1.2-0.6,1.8-0.6c0.2,0,0.4,0,0.5,0c0.2,0,0.3,0.1,0.4,0.1L468.8,102.4z
	 M479.6,111.8c-0.4,0.8-1,1.4-1.6,1.8c-0.6,0.4-1.4,0.6-2.2,0.6c-1.4,0-2.6-0.5-3.4-1.5c-0.8-1-1.2-2.5-1.2-4.6v-8.6h3v8.6
	c0,1.3,0.2,2.1,0.6,2.7c0.4,0.5,1,0.8,1.7,0.8c0.7,0,1.3-0.1,1.8-0.4c0.5-0.3,0.9-0.7,1.2-1.2V99.5h3v14.4h-2.6L479.6,111.8z
	 M493.6,110c0-0.5-0.2-0.9-0.6-1.2c-0.4-0.3-1.1-0.6-2.2-0.9c-1.6-0.4-2.8-0.9-3.6-1.6c-0.8-0.7-1.2-1.6-1.2-2.7
	c0-1.2,0.5-2.2,1.4-3.1c1-0.9,2.2-1.3,3.8-1.3c1.6,0,2.9,0.4,3.9,1.3c1,0.9,1.4,1.9,1.4,3.2l0,0.1h-2.9c0-0.6-0.2-1.1-0.6-1.5
	c-0.4-0.4-1-0.6-1.7-0.6c-0.7,0-1.3,0.2-1.7,0.5c-0.4,0.4-0.6,0.8-0.6,1.3c0,0.5,0.2,0.9,0.5,1.2c0.4,0.3,1.1,0.6,2.2,0.8
	c1.7,0.4,2.9,0.9,3.8,1.6c0.8,0.7,1.2,1.6,1.2,2.8c0,1.3-0.5,2.3-1.5,3.2c-1,0.8-2.3,1.2-3.9,1.2c-1.7,0-3.1-0.5-4.1-1.4
	c-1-1-1.5-2.1-1.4-3.3l0-0.1h2.8c0,0.8,0.3,1.4,0.8,1.8c0.5,0.4,1.2,0.6,1.9,0.6c0.8,0,1.4-0.2,1.8-0.5
	C493.4,111,493.6,110.5,493.6,110z M502.9,96h-3v-2.8h3V96z M502.9,113.9h-3V99.5h3V113.9z M506.1,106.6c0-2.1,0.5-3.9,1.6-5.3
	c1.1-1.4,2.6-2.1,4.5-2.1c1.9,0,3.4,0.7,4.5,2.1c1.1,1.4,1.7,3.1,1.7,5.3v0.3c0,2.2-0.6,3.9-1.7,5.3c-1.1,1.4-2.6,2-4.5,2
	c-1.9,0-3.4-0.7-4.5-2.1c-1.1-1.4-1.6-3.1-1.6-5.3V106.6z M509.1,106.9c0,1.4,0.3,2.5,0.8,3.4c0.5,0.9,1.3,1.3,2.4,1.3
	c1.1,0,1.8-0.4,2.4-1.3c0.5-0.9,0.8-2,0.8-3.4v-0.3c0-1.4-0.3-2.5-0.8-3.4c-0.5-0.9-1.3-1.3-2.4-1.3c-1.1,0-1.8,0.4-2.4,1.3
	c-0.5,0.9-0.8,2-0.8,3.4V106.9z M524.2,99.5l0.2,2.1c0.4-0.7,1-1.3,1.7-1.7s1.4-0.6,2.3-0.6c1.4,0,2.5,0.5,3.3,1.4
	c0.8,0.9,1.2,2.3,1.2,4.3v9.1h-3v-9c0-1.1-0.2-1.9-0.6-2.3c-0.4-0.5-1.1-0.7-1.9-0.7c-0.6,0-1.1,0.1-1.6,0.4
	c-0.5,0.3-0.8,0.7-1.1,1.2v10.5h-3V99.5H524.2z"/>
<path id="SWISS" class="st0" d="M583,91.4c0-0.5-0.2-0.9-0.6-1.2c-0.4-0.3-1-0.6-2-0.9c-1.3-0.4-2.4-0.8-3.1-1.4
	c-0.7-0.6-1.1-1.3-1.1-2.3c0-1,0.4-1.8,1.2-2.4c0.8-0.6,1.8-0.9,3.1-0.9c1.3,0,2.4,0.4,3.2,1.1c0.8,0.7,1.2,1.6,1.2,2.6l0,0H583
	c0-0.6-0.2-1.1-0.6-1.5c-0.4-0.4-1-0.6-1.8-0.6c-0.7,0-1.3,0.2-1.7,0.5c-0.4,0.3-0.6,0.7-0.6,1.2c0,0.5,0.2,0.8,0.6,1.1
	c0.4,0.3,1.1,0.6,2.1,0.9c1.3,0.3,2.3,0.8,3,1.4c0.7,0.6,1,1.4,1,2.3c0,1-0.4,1.8-1.2,2.4c-0.8,0.6-1.9,0.9-3.2,0.9
	c-1.3,0-2.4-0.3-3.3-1c-0.9-0.7-1.4-1.6-1.4-2.7l0,0h1.9c0,0.7,0.3,1.3,0.8,1.6c0.5,0.4,1.2,0.5,2,0.5c0.7,0,1.3-0.1,1.7-0.4
	C582.8,92.4,583,92,583,91.4z M590.1,91.3L590.1,91.3L590.1,91.3l2.4-8.9h1.6l2.4,8.9l0,0.1l0-0.1l1.9-8.8h2l-2.9,12.1h-1.8
	l-2.4-8.7h0l-2.4,8.7H589l-2.9-12.1h2L590.1,91.3z M604.3,94.6h-2V82.5h2V94.6z M613.6,91.4c0-0.5-0.2-0.9-0.6-1.2
	c-0.4-0.3-1-0.6-2-0.9c-1.3-0.4-2.4-0.8-3.1-1.4c-0.7-0.6-1.1-1.3-1.1-2.3c0-1,0.4-1.8,1.2-2.4c0.8-0.6,1.8-0.9,3.1-0.9
	c1.3,0,2.4,0.4,3.2,1.1c0.8,0.7,1.2,1.6,1.2,2.6l0,0h-1.9c0-0.6-0.2-1.1-0.6-1.5c-0.4-0.4-1-0.6-1.8-0.6c-0.7,0-1.3,0.2-1.7,0.5
	c-0.4,0.3-0.6,0.7-0.6,1.2c0,0.5,0.2,0.8,0.6,1.1c0.4,0.3,1.1,0.6,2.1,0.9c1.3,0.3,2.3,0.8,3,1.4c0.7,0.6,1,1.4,1,2.3
	c0,1-0.4,1.8-1.2,2.4c-0.8,0.6-1.9,0.9-3.2,0.9c-1.3,0-2.4-0.3-3.3-1c-0.9-0.7-1.4-1.6-1.4-2.7l0,0h1.9c0,0.7,0.3,1.3,0.8,1.6
	c0.5,0.4,1.2,0.5,2,0.5c0.7,0,1.3-0.1,1.7-0.4C613.4,92.4,613.6,92,613.6,91.4z M624.2,91.4c0-0.5-0.2-0.9-0.6-1.2
	c-0.4-0.3-1-0.6-2-0.9c-1.3-0.4-2.4-0.8-3.1-1.4c-0.7-0.6-1.1-1.3-1.1-2.3c0-1,0.4-1.8,1.2-2.4c0.8-0.6,1.8-0.9,3.1-0.9
	c1.3,0,2.4,0.4,3.2,1.1c0.8,0.7,1.2,1.6,1.2,2.6l0,0h-1.9c0-0.6-0.2-1.1-0.6-1.5c-0.4-0.4-1-0.6-1.8-0.6c-0.7,0-1.3,0.2-1.7,0.5
	c-0.4,0.3-0.6,0.7-0.6,1.2c0,0.5,0.2,0.8,0.6,1.1c0.4,0.3,1.1,0.6,2.1,0.9c1.3,0.3,2.3,0.8,3,1.4c0.7,0.6,1,1.4,1,2.3
	c0,1-0.4,1.8-1.2,2.4c-0.8,0.6-1.9,0.9-3.2,0.9c-1.3,0-2.4-0.3-3.3-1c-0.9-0.7-1.4-1.6-1.4-2.7l0,0h1.9c0,0.7,0.3,1.3,0.8,1.6
	c0.5,0.4,1.2,0.5,2,0.5c0.7,0,1.3-0.1,1.7-0.4C624,92.4,624.2,92,624.2,91.4z"/>
<path id="MADE" d="M579.4,101.8l3.3,8.9h0.1l3.3-8.9h3.4v12.1h-2.6v-3.6l0.2-5.3l-0.1,0l-3.5,8.9h-1.7l-3.4-8.9l-0.1,0l0.2,5.3v3.6
	H576v-12.1H579.4z M599.4,111.3h-4.5l-0.9,2.6h-2.6l4.5-12.1h2.7l4.4,12.1h-2.6L599.4,111.3z M595.5,109.4h3.3l-1.6-4.7h-0.1
	L595.5,109.4z M604.8,113.9v-12.1h4.4c1.6,0,2.9,0.5,3.9,1.4c1,0.9,1.5,2.2,1.5,3.6v2c0,1.5-0.5,2.7-1.5,3.6c-1,0.9-2.3,1.4-3.9,1.4
	H604.8z M607.4,103.7v8.3h1.7c0.9,0,1.7-0.3,2.2-0.9c0.5-0.6,0.8-1.3,0.8-2.3v-2c0-0.9-0.3-1.7-0.8-2.3c-0.5-0.6-1.3-0.9-2.2-0.9
	H607.4z M625.3,108.6h-5.4v3.4h6.3v1.9h-8.9v-12.1h8.8v1.9h-6.2v3h5.4V108.6z"/>
<path id="CONTROL_SYSTEMS_1_" class="st1" d="M580.6,71.8h9.8V34.9c0-0.2,0.1-0.3,0.2-0.4c0.1-0.1,0.3-0.2,0.5-0.2h5.9v-6.8H574v6.8
	h5.9c0.2,0,0.4,0.1,0.5,0.2c0.1,0.1,0.2,0.2,0.2,0.4V71.8z M423.8,61.6V37.8c0-3.1-1.4-5.6-4.2-7.7c-2.8-2.1-6-3.1-9.6-3.1
	s-6.8,1-9.6,3.1c-2.8,2.1-4.2,4.6-4.2,7.6v23.9c0,1.5,0.4,2.9,1.1,4.1c0.8,1.2,1.8,2.3,3,3.2c1.3,0.9,2.7,1.6,4.4,2.1
	c1.7,0.5,3.4,0.8,5.1,0.8c3.5,0,6.7-1,9.5-2.9C422.3,67.1,423.8,64.6,423.8,61.6z M413.9,38.7v22.2c0,0.2,0,0.7-0.1,0.9
	c-0.2,0.8-0.6,1.6-1.2,2.3c-0.7,0.7-1.5,1-2.6,1c-1.1,0-2-0.3-2.6-1c-0.6-0.7-1-1.4-1.2-2.2c0-0.2-0.1-0.4-0.1-0.5
	c0-0.2,0-0.3,0-0.5V38.9c0-0.3,0-0.5,0.1-0.9c0-0.3,0.1-0.6,0.1-0.9c0.2-0.8,0.6-1.6,1.2-2.3c0.6-0.7,1.4-1.1,2.5-1.1
	c1.1,0,1.9,0.3,2.5,1c0.6,0.7,1,1.4,1.2,2.3c0.1,0.3,0.2,0.5,0.2,0.9C413.9,38.2,413.9,38.5,413.9,38.7z M255.5,53.6h-9.8v7.3
	c0,0.3,0,0.7-0.1,0.9c-0.1,0.6-0.6,1.6-1.2,2.3c-0.7,0.7-1.5,1-2.6,1c-1.1,0-2-0.3-2.6-1c-0.6-0.7-1-1.4-1.2-2.2
	c0-0.2-0.1-0.4-0.1-0.5c0-0.2,0-0.3,0-0.5V38.9c0-0.3,0-0.5,0.1-0.9c0-0.3,0.2-1.1,0.3-1.4c0.2-0.7,0.5-1.1,1-1.8
	c0.6-0.7,1.4-1.1,2.5-1.1c1.1,0,1.9,0.3,2.5,1c0.6,0.7,1,1.4,1.2,2.3c0.1,0.3,0.2,0.5,0.2,0.9c0,0.3,0.1,0.6,0.1,0.8v5.8h9.8v-6.8
	c0-3.1-1.4-5.6-4.2-7.7c-2.8-2.1-6-3.1-9.6-3.1c-3.6,0-6.8,1-9.6,3.1c-2.8,2.1-4.2,4.6-4.2,7.6v23.9c0,1.5,0.4,2.9,1.1,4.1
	c0.8,1.2,1.8,2.3,3,3.2c1.3,0.9,2.7,1.6,4.4,2.1c1.7,0.5,3.4,0.8,5.1,0.8c3.5,0,6.7-1,9.5-2.9c2.8-1.9,4.2-4.4,4.2-7.4V53.6z
	 M290.2,61.6V37.8c0-3.1-1.4-5.6-4.2-7.7c-2.8-2.1-6-3.1-9.6-3.1c-3.6,0-6.8,1-9.6,3.1c-2.8,2.1-4.2,4.6-4.2,7.6v23.9
	c0,1.5,0.4,2.9,1.1,4.1c0.8,1.2,1.8,2.3,3,3.2c1.3,0.9,2.7,1.6,4.4,2.1c1.7,0.5,3.4,0.8,5.1,0.8c3.5,0,6.7-1,9.5-2.9
	C288.8,67.1,290.2,64.6,290.2,61.6z M280.4,38.7v22.2c0,0.1,0,0.7-0.1,0.9c-0.2,0.8-0.6,1.6-1.2,2.3c-0.7,0.7-1.5,1-2.6,1
	s-2-0.3-2.6-1c-0.6-0.7-1-1.4-1.2-2.2c0-0.2-0.1-0.4-0.1-0.5c0-0.2,0-0.3,0-0.5V38.9c0-0.3,0-0.5,0.1-0.9c0-0.3,0.1-0.6,0.1-0.9
	c0.2-0.8,0.6-1.6,1.2-2.3c0.6-0.7,1.4-1.1,2.5-1.1s1.9,0.3,2.5,1c0.6,0.7,1,1.4,1.2,2.3c0.1,0.3,0.2,0.5,0.2,0.9
	C280.4,38.2,280.4,38.5,280.4,38.7z M297.4,71.8h9.8v-21c0-0.2,0.1-0.3,0.2-0.4c0.1-0.1,0.3-0.1,0.5-0.1c0.1,0,0.3,0,0.4,0.1
	c0.1,0.1,0.2,0.1,0.3,0.3l7.7,21.2h8V27.5h-7.9v15.4c0,0.2-0.1,0.3-0.2,0.4c-0.1,0.1-0.3,0.1-0.5,0.1c-0.2,0-0.5-0.1-0.6-0.4
	l-7.7-15.6h-10.1V71.8z M338,71.8h9.8V34.9c0-0.2,0.1-0.3,0.2-0.4c0.1-0.1,0.3-0.2,0.5-0.2h5.9v-6.8h-22.9v6.8h5.9
	c0.2,0,0.4,0.1,0.5,0.2c0.1,0.1,0.2,0.2,0.2,0.4V71.8z M385.5,50.2c0-0.1,0.1-0.2,0.2-0.2c0.6-0.4,1-0.9,1.4-1.3
	c0.4-0.5,0.7-1,1-1.6c0.2-0.3,0.3-0.7,0.4-0.9c0.1-0.3,0.2-0.6,0.3-0.8c0.1-0.4,0.2-0.8,0.2-1.2c0-0.4,0.1-0.9,0.1-1.4v-7.2
	c0-1.4-0.3-2.6-1-3.6c-0.7-1-1.6-2-2.9-2.8c-1.2-0.8-2.5-1.3-3.9-1.5c-1.4-0.2-2.9-0.2-4.6-0.3h-15.1v44.3h9.8V52.5
	c0-0.2,0.1-0.3,0.2-0.4c0.1-0.1,0.3-0.1,0.5-0.1c0,0,3.3,0,3.3,0c0.2,0,0.3,0,0.4,0.1c0.1,0.1,0.2,0.2,0.2,0.3l0,0.2l2.5,19.2h10.2
	l-3.2-21.4C385.5,50.4,385.5,50.3,385.5,50.2z M372,45.1c-0.2,0-0.3-0.1-0.5-0.2c-0.1-0.1-0.2-0.3-0.2-0.5v-9.6c0-0.2,0-0.3,0.2-0.4
	c0.2-0.2,0.2-0.2,0.5-0.2c0,0,2.9,0,3.1,0c0.2,0,0.8,0,1,0.1c0.4,0.1,0.9,0.2,1.3,0.3c0.4,0.2,0.8,0.4,1.1,0.7
	c0.2,0.2,0.4,0.5,0.5,0.7c0.1,0.3,0.2,0.5,0.2,0.8c0,0.2,0.1,0.5,0.1,0.7c0,0.2,0,0.4,0,0.6c0,0,0,0.1,0,0.2c0,0,0,3.1,0,3.2
	c0,0.1,0,0.1,0,0.2c0,0.5-0.2,0.9-0.4,1.4c-0.2,0.5-0.6,0.9-1.1,1.2c-0.5,0.3-1,0.5-1.5,0.6c-0.5,0.1-1.3,0.1-1.6,0.1L372,45.1z
	 M431,71.8h21V65h-10.5c-0.2,0-0.3-0.1-0.5-0.2c-0.1-0.1-0.2-0.3-0.2-0.5V27.5H431V71.8z M505.7,27.5l9.3,30c0,0,0,0.1,0,0.1v14.2
	h9.8V57.7c0,0,0-0.1,0-0.1c0,0,0-0.1,0-0.1l9.3-30h-10.4L520.5,39c0,0.2-0.1,0.3-0.3,0.4c-0.1,0.1-0.3,0.1-0.4,0.1
	c-0.1,0-0.3,0-0.4-0.1c-0.1-0.1-0.2-0.2-0.3-0.4l-3.1-11.5H505.7z M604.2,71.8h21.6V65h-11.1c-0.2,0-0.3-0.1-0.5-0.2
	c-0.1-0.1-0.2-0.3-0.2-0.5V50.8c0-0.2,0.1-0.3,0.2-0.4c0.1-0.1,0.3-0.2,0.5-0.2h11.1v-6.8h-11.1c-0.2,0-0.3-0.1-0.5-0.2
	c-0.1-0.1-0.2-0.3-0.2-0.5v-7.9c0-0.2,0.1-0.3,0.2-0.4c0.1-0.1,0.2-0.2,0.5-0.2h11.1v-6.8h-21.6V71.8z M633,71.8h9.8V42.9
	c0-0.2,0.1-0.3,0.2-0.4c0.1-0.1,0.3-0.1,0.5-0.1c0.1,0,0.3,0,0.4,0.1c0.1,0.1,0.2,0.2,0.3,0.3l5.8,29.1h9.3l5.8-29
	c0-0.2,0.1-0.3,0.3-0.3c0.1-0.1,0.3-0.1,0.4-0.1c0.2,0,0.3,0,0.5,0.1c0.1,0.1,0.2,0.2,0.2,0.4v29h9.8V27.5h-15.8L655.3,49
	c0,0.2-0.1,0.3-0.3,0.4c-0.1,0.1-0.3,0.1-0.4,0.1c-0.1,0-0.3,0-0.4-0.1c-0.1-0.1-0.2-0.2-0.3-0.4l-5.1-21.4H633V71.8z M500.3,61.6
	v-1.6c0-0.2-0.1-1.1-0.1-1.2c0-0.2-0.2-1-0.3-1.3c-0.5-2.2-1.7-4.2-3.4-6.1c-1.7-1.9-3.6-3.7-5.6-5.3c0,0-0.1-0.1-0.1-0.1
	c0,0-0.1-0.1-0.1-0.1c-0.1-0.1-0.3-0.2-0.4-0.3c-0.2-0.1-0.3-0.2-0.4-0.3c-1.8-1.4-3.4-2.8-4.9-4.1c-1.5-1.3-2.3-2.4-2.3-3.4v-1.1
	c0-0.7,0.3-1.3,0.8-1.7c0.6-0.4,1.2-0.7,1.9-0.9c0.2,0,0.4-0.1,0.6-0.1c0.2,0,0.4,0,0.6,0c0.2,0,0.3,0,0.5,0c0.2,0,0.3,0,0.5,0.1
	c0.7,0.2,1.4,0.5,2,0.9c0.6,0.5,0.9,1,0.9,1.7v4.1h9.8v-2.9c0-3.1-1.4-5.6-4.2-7.7c-2.8-2.1-6-3.1-9.6-3.1c-3.6,0-6.8,1-9.6,3.1
	c-2.8,2.1-4.2,4.6-4.2,7.7c0,2.8,0.9,4.9,2.2,6.5c1.4,1.6,2.4,2.6,4.2,3.9c0.5,0.4,2.8,2.2,3.3,2.6c1.2,0.9,2.6,2.1,3.7,3.2
	c1.1,1.1,3.5,4.5,3.6,4.6c0.1,0.2,0.3,0.4,0.4,0.6c0.1,0.2,0.2,0.5,0.3,0.7c0,0,0,0.1,0,0.2v1.8c0,0.9-0.4,1.6-1.1,2.2
	c-0.7,0.6-1.6,0.9-2.5,1c0,0-0.1,0-0.2,0c-0.1,0-0.1,0-0.2,0c-1,0-1.9-0.3-2.7-0.9c-0.8-0.6-1.2-1.4-1.2-2.4v-5.5h-9.8v5.4
	c0,1.5,0.4,2.9,1.1,4.1c0.8,1.2,1.8,2.3,3,3.2c1.3,0.9,2.7,1.6,4.4,2.1c1.7,0.5,3.4,0.8,5.1,0.8c3.5,0,6.7-1,9.5-2.9
	C498.9,67.1,500.3,64.6,500.3,61.6z M566.9,61.6v-1.6c0-0.2-0.1-1.1-0.1-1.3c0-0.2-0.2-1-0.3-1.2c-0.5-2.2-1.7-4.2-3.4-6.1
	c-1.7-1.9-3.6-3.7-5.6-5.3c0,0-0.1-0.1-0.1-0.1c0,0-0.1-0.1-0.1-0.1c-0.1-0.1-0.3-0.2-0.4-0.3c-0.2-0.1-0.3-0.2-0.4-0.3
	c-1.8-1.4-3.4-2.8-4.9-4.1c-1.5-1.3-2.3-2.4-2.3-3.4v-1.1c0-0.7,0.3-1.3,0.9-1.7c0.6-0.4,1.2-0.7,1.9-0.9c0.2,0,0.4-0.1,0.6-0.1
	c0.2,0,0.4,0,0.6,0c0.2,0,0.4,0,0.5,0c0.2,0,0.3,0,0.5,0.1c0.7,0.2,1.4,0.5,2,0.9c0.6,0.5,0.9,1.1,0.9,1.7v4.1h9.8v-2.9
	c0-3.1-1.4-5.6-4.2-7.7c-2.8-2.1-6-3.1-9.6-3.1c-3.6,0-6.8,1-9.6,3.1c-2.8,2.1-4.2,4.6-4.2,7.7c0,2.8,0.9,4.9,2.2,6.5
	c1.4,1.6,2.4,2.6,4.2,3.9c0.5,0.4,2.8,2.2,3.3,2.6c1.2,0.9,2.6,2.1,3.7,3.2c1.1,1.1,3.5,4.5,3.6,4.6c0.1,0.2,0.3,0.4,0.4,0.6
	c0.1,0.2,0.2,0.5,0.3,0.7c0,0,0,0.1,0,0.2v1.8c0,0.9-0.4,1.6-1.1,2.2c-0.7,0.6-1.6,0.9-2.5,1c0,0-0.1,0-0.2,0c-0.1,0-0.1,0-0.2,0
	c-1,0-1.9-0.3-2.7-0.9c-0.8-0.6-1.2-1.4-1.2-2.4v-5.5h-9.8v5.4c0,1.5,0.4,2.9,1.1,4.1c0.8,1.2,1.8,2.3,3,3.2
	c1.3,0.9,2.7,1.6,4.4,2.1c1.7,0.5,3.4,0.8,5.1,0.8c3.5,0,6.7-1,9.5-2.9C565.4,67.1,566.9,64.6,566.9,61.6z M710.9,61.6v-1.6
	c0-0.2-0.1-1.1-0.1-1.3c0-0.2-0.2-1-0.3-1.2c-0.5-2.2-1.7-4.2-3.4-6.1c-1.7-1.9-3.6-3.7-5.6-5.3c0,0-0.1-0.1-0.1-0.1
	c0,0-0.1-0.1-0.1-0.1c-0.1-0.1-0.3-0.2-0.4-0.3c-0.2-0.1-0.3-0.2-0.4-0.3c-1.8-1.4-3.4-2.8-4.9-4.1c-1.5-1.3-2.3-2.4-2.3-3.4v-1.1
	c0-0.7,0.3-1.3,0.8-1.7c0.6-0.4,1.2-0.7,1.9-0.9c0.2,0,0.4-0.1,0.6-0.1c0.2,0,0.4,0,0.6,0c0.2,0,0.3,0,0.5,0c0.2,0,0.3,0,0.5,0.1
	c0.7,0.2,1.4,0.5,2,0.9c0.6,0.5,0.9,1.1,0.9,1.7v4.1h9.8v-2.9c0-3.1-1.4-5.6-4.2-7.7c-2.8-2.1-6-3.1-9.6-3.1c-3.6,0-6.8,1-9.6,3.1
	c-2.8,2.1-4.2,4.6-4.2,7.7c0,2.8,0.9,4.9,2.2,6.5c1.4,1.6,2.4,2.6,4.2,3.9c0.5,0.4,2.8,2.2,3.3,2.6c1.2,0.9,2.6,2.1,3.7,3.2
	c1.1,1.1,3.5,4.5,3.6,4.6c0.1,0.2,0.3,0.4,0.4,0.6c0.1,0.2,0.2,0.5,0.3,0.7c0,0,0,0.1,0,0.2v1.8c0,0.9-0.4,1.6-1.1,2.2
	c-0.7,0.6-1.6,0.9-2.5,1c0,0-0.1,0-0.2,0c-0.1,0-0.1,0-0.2,0c-1,0-1.9-0.3-2.7-0.9c-0.8-0.6-1.2-1.4-1.2-2.4v-5.5h-9.8v5.4
	c0,1.5,0.4,2.9,1.1,4.1c0.8,1.2,1.8,2.3,3,3.2c1.3,0.9,2.7,1.6,4.4,2.1c1.7,0.5,3.4,0.8,5.1,0.8c3.5,0,6.7-1,9.5-2.9
	C709.5,67.1,710.9,64.6,710.9,61.6z"/>
<path id="CONTROL_SYSTEMS" class="st2" d="M697.2,73.1c-3.8,0-7.3-1.1-10.4-3.1c-3.1-2.1-4.7-4.9-4.7-8.4v-5.9
	c0-0.2,0.1-0.4,0.2-0.5c0.1-0.1,0.3-0.2,0.5-0.2l11.2,0c0.2,0,0.4,0.1,0.6,0.2c0.2,0.1,0.2,0.3,0.2,0.5v6.1c0,0.5,0.2,1,0.7,1.4
	c0.5,0.4,1.1,0.6,1.7,0.6c0.7,0,1.2-0.2,1.7-0.6c0.5-0.4,0.7-0.8,0.7-1.3v-1.7c0-0.1,0-0.2-0.1-0.3l0-0.1c0-0.1,0-0.1-0.1-0.2
	c0,0-2.8-3.9-4.2-5.1c-0.8-0.7-3.3-2.7-4.2-3.4c-0.2-0.1-0.2-0.2-0.2-0.2c-2.2-1.7-4.3-3.5-6.1-5.5c-1.8-2-2.8-4.5-2.8-7.7
	c0-3.5,1.6-6.5,4.7-8.7c3.1-2.2,6.6-3.4,10.5-3.4c3.9,0,7.4,1.1,10.5,3.4c3.1,2.3,4.7,5.2,4.7,8.6v3.5c0,0.2-0.1,0.4-0.2,0.5
	c-0.1,0.2-0.4,0.2-0.6,0.2h-11.1c-0.2,0-0.4-0.1-0.6-0.2c-0.2-0.1-0.3-0.3-0.3-0.6v-4.6c0-0.4-0.2-0.7-0.7-1.1
	c-0.5-0.3-1.1-0.5-1.8-0.5h-0.3c-0.1,0-0.7,0.1-0.9,0.2c-0.2,0.1-0.4,0.2-0.7,0.3c-0.2,0.1-0.4,0.3-0.5,0.4
	c-0.1,0.1-0.2,0.3-0.2,0.4v1.2c0,0.7,0.7,1.6,2.2,2.7c1.5,1.2,3.3,2.7,5.4,4.5c0.2,0.2,1.3,1.1,1.6,1.4c1.8,1.5,3.4,3.2,5,5.1
	c1.6,1.8,2.6,3.8,3.1,5.9c0,0.1,0.1,0.3,0.1,0.5c0,0.2,0.1,0.4,0.1,0.4c0,0.3,0.1,0.6,0.1,0.9c0,0.3,0.1,1.6,0.1,1.8
	c0,0.7,0,1.4-0.1,1.6c-0.2,3.1-1.8,5.6-4.7,7.6C704.5,72,701,73.1,697.2,73.1z M683.6,56.4v5.2c0,1.5,0.4,2.8,1.1,4
	c0.8,1.2,1.8,2.3,3,3.2c1.2,0.9,2.7,1.6,4.4,2.1c1.7,0.5,3.4,0.8,5.1,0.8c3.5,0,6.7-1,9.4-2.8c2.3-1.5,3.6-3.5,4-5.7
	c0.1-0.5,0.2-1.2,0.2-1.7c0,0,0-0.4,0-0.6c0-0.2-0.1-1.9-0.2-2.1c0-0.1-0.1-0.4-0.1-0.7c-0.1-0.2-0.1-0.5-0.1-0.6
	c-0.5-2.1-1.6-4.2-3.4-6.1c-1.7-1.9-3.6-3.7-5.6-5.3c0,0-0.1-0.1-0.1-0.1l-0.1-0.1c-0.1-0.1-0.3-0.2-0.4-0.3
	c-0.2-0.1-0.3-0.2-0.4-0.3c-1.7-1.4-3.4-2.8-4.9-4.1c-1.5-1.3-2.3-2.5-2.3-3.6v-1.1c0-0.8,0.3-1.4,0.9-1.8c0.6-0.4,1.2-0.7,2-0.9
	c0.2,0,0.4-0.1,0.6-0.1c0.4,0,0.7,0,1.1,0c0.2,0,0.4,0.1,0.5,0.1c0.7,0.2,1.5,0.5,2.1,1c0.6,0.5,1,1.1,1,1.9v3.9h9.5v-2.7
	c0-3-1.4-5.5-4.1-7.6c-2.7-2-5.9-3.1-9.5-3.1c-3.6,0-6.8,1-9.5,3.1c-2.7,2-4.1,4.6-4.1,7.6c0,2.5,0.7,4.7,2.2,6.4
	c1.3,1.6,2.3,2.6,4.2,3.9l1.1,0.9c0.8,0.7,1.9,1.5,2.2,1.7c1.2,0.9,2.6,2.1,3.8,3.2c0.9,0.9,2.6,3.2,3.3,4.2
	c0.2,0.2,0.3,0.4,0.3,0.4c0.1,0.2,0.3,0.4,0.4,0.7c0.1,0.2,0.2,0.5,0.3,0.7l0,0.2v1.8c0,0.9-0.4,1.7-1.2,2.3c-0.8,0.6-1.6,0.9-2.6,1
	h-0.3c-1,0-2-0.3-2.8-1c-0.8-0.7-1.3-1.5-1.3-2.5v-5.3H683.6z M553.1,73.1c-3.8,0-7.3-1.1-10.4-3.1c-3.1-2.1-4.7-4.9-4.7-8.4v-5.9
	c0-0.2,0.1-0.4,0.2-0.5c0.1-0.1,0.3-0.2,0.5-0.2l11.2,0c0.2,0,0.4,0.1,0.6,0.2c0.1,0.1,0.2,0.3,0.2,0.5v6.1c0,0.5,0.2,1,0.7,1.4
	c0.5,0.4,1.1,0.6,1.7,0.6c0.7,0,1.2-0.2,1.7-0.6c0.5-0.4,0.7-0.8,0.7-1.3v-1.7c0-0.1,0-0.2-0.1-0.3l0-0.1c0-0.1,0-0.1-0.1-0.2
	c0,0-2.8-3.9-4.2-5.1c-0.8-0.7-3.4-2.7-4.2-3.4c-0.1-0.1-0.2-0.2-0.2-0.2c-2.2-1.7-4.3-3.5-6.1-5.5c-1.8-2-2.8-4.5-2.8-7.7
	c0-3.5,1.6-6.5,4.7-8.7c3.1-2.2,6.6-3.4,10.5-3.4c3.9,0,7.4,1.1,10.5,3.4c3.1,2.3,4.7,5.2,4.7,8.6v3.5c0,0.2-0.1,0.4-0.2,0.5
	c-0.2,0.2-0.4,0.2-0.6,0.2h-11.1c-0.2,0-0.4-0.1-0.6-0.2c-0.2-0.1-0.2-0.3-0.2-0.6v-4.6c0-0.4-0.2-0.7-0.7-1.1
	c-0.5-0.3-1.1-0.5-1.8-0.5h-0.3c-0.1,0-0.7,0.1-0.9,0.2c-0.2,0.1-0.5,0.2-0.7,0.3c-0.2,0.1-0.4,0.3-0.5,0.4
	c-0.1,0.1-0.2,0.3-0.2,0.4v1.2c0,0.7,0.7,1.6,2.2,2.7c1.5,1.2,3.3,2.7,5.4,4.5c0.2,0.2,1.3,1.1,1.6,1.4c1.8,1.5,3.4,3.2,5,5.1
	c1.6,1.8,2.6,3.8,3.1,5.9c0,0.1,0.1,0.3,0.1,0.5c0,0.2,0.1,0.4,0.1,0.4c0,0.3,0.1,0.6,0.1,0.9c0,0.3,0.1,1.6,0.1,1.8
	c0,0.7,0,1.4-0.1,1.6c-0.2,3.1-1.8,5.6-4.7,7.6C560.4,72,556.9,73.1,553.1,73.1z M539.5,56.4v5.2c0,1.5,0.4,2.8,1.1,4
	c0.7,1.2,1.8,2.3,3,3.2c1.2,0.9,2.7,1.6,4.4,2.1c1.7,0.5,3.4,0.8,5.1,0.8c3.5,0,6.7-1,9.4-2.8c2.3-1.5,3.6-3.5,4-5.7
	c0.1-0.5,0.2-1.2,0.2-1.7c0,0,0-0.4,0-0.6c0-0.2-0.2-1.9-0.2-2.1c0-0.1-0.1-0.4-0.1-0.7c-0.1-0.2-0.1-0.5-0.1-0.6
	c-0.5-2.1-1.6-4.2-3.4-6.1c-1.7-1.9-3.6-3.7-5.5-5.3c0,0-0.1-0.1-0.1-0.1l-0.1-0.1c-0.1-0.1-0.3-0.2-0.4-0.3
	c-0.2-0.1-0.3-0.2-0.4-0.3c-1.7-1.4-3.4-2.8-4.9-4.1c-1.5-1.3-2.3-2.5-2.3-3.6v-1.1c0-0.8,0.3-1.4,0.9-1.8c0.6-0.4,1.2-0.7,2-0.9
	c0.2,0,0.4-0.1,0.6-0.1c0.4,0,0.7,0,1.1,0c0.2,0,0.4,0.1,0.5,0.1c0.8,0.2,1.5,0.5,2.1,1c0.7,0.5,1,1.1,1,1.9v3.9h9.5v-2.7
	c0-3-1.4-5.5-4.1-7.6c-2.7-2-5.9-3.1-9.5-3.1c-3.6,0-6.8,1-9.5,3.1c-2.7,2-4.1,4.6-4.1,7.6c0,2.5,0.7,4.7,2.2,6.4
	c1.3,1.6,2.3,2.6,4.2,3.9l1.1,0.9c0.8,0.7,1.9,1.5,2.2,1.7c1.2,0.9,2.6,2.1,3.8,3.2c0.9,0.9,2.6,3.2,3.3,4.2
	c0.2,0.2,0.3,0.4,0.3,0.4c0.1,0.2,0.3,0.4,0.4,0.7c0.1,0.2,0.2,0.5,0.3,0.7l0,0.2v1.8c0,0.9-0.4,1.7-1.2,2.3c-0.8,0.6-1.6,0.9-2.6,1
	h-0.3c-1,0-2-0.3-2.8-1c-0.8-0.7-1.3-1.5-1.3-2.5v-5.3H539.5z M486.6,73.1c-3.8,0-7.3-1.1-10.4-3.1c-3.1-2.1-4.7-4.9-4.7-8.4v-5.9
	c0-0.2,0.1-0.4,0.2-0.5c0.1-0.1,0.3-0.2,0.5-0.2l11.2,0c0.2,0,0.4,0.1,0.6,0.2c0.1,0.1,0.2,0.3,0.2,0.5v6.1c0,0.5,0.2,1,0.7,1.4
	c0.5,0.4,1.1,0.6,1.7,0.6c0.7,0,1.2-0.2,1.7-0.6c0.5-0.4,0.7-0.8,0.7-1.3v-1.7c0-0.1,0-0.2-0.1-0.3l0-0.1c0-0.1,0-0.1-0.1-0.2
	c0,0-2.8-3.9-4.2-5.1c-0.8-0.7-3.3-2.7-4.2-3.4c-0.1-0.1-0.2-0.2-0.2-0.2c-2.2-1.7-4.3-3.5-6.1-5.5c-1.8-2-2.8-4.5-2.8-7.7
	c0-3.5,1.6-6.5,4.7-8.7c3.1-2.2,6.6-3.4,10.5-3.4c3.9,0,7.4,1.1,10.5,3.4c3.1,2.3,4.7,5.2,4.7,8.6v3.5c0,0.2-0.1,0.4-0.2,0.5
	c-0.1,0.2-0.4,0.2-0.6,0.2h-11.1c-0.2,0-0.4-0.1-0.6-0.2c-0.2-0.1-0.3-0.3-0.3-0.6v-4.6c0-0.4-0.2-0.7-0.7-1.1
	c-0.5-0.3-1.1-0.5-1.8-0.5h-0.3c-0.1,0-0.7,0.1-0.9,0.2c-0.2,0.1-0.4,0.2-0.7,0.3c-0.2,0.1-0.4,0.3-0.5,0.4
	c-0.1,0.1-0.2,0.3-0.2,0.4v1.2c0,0.7,0.7,1.6,2.2,2.7c1.5,1.2,3.3,2.7,5.4,4.5c0.2,0.2,1.3,1.1,1.6,1.4c1.8,1.5,3.4,3.2,5,5.1
	c1.6,1.8,2.6,3.8,3.1,5.9c0,0.1,0.1,0.3,0.1,0.5c0,0.2,0.1,0.4,0.1,0.4c0,0.3,0.1,0.6,0.1,0.9c0,0.3,0.1,1.6,0.1,1.8
	c0,0.7,0,1.4-0.1,1.6c-0.2,3.1-1.8,5.6-4.7,7.6C493.9,72,490.4,73.1,486.6,73.1z M473,56.4v5.2c0,1.5,0.4,2.8,1.1,4
	c0.7,1.2,1.8,2.3,3,3.2c1.2,0.9,2.7,1.6,4.4,2.1c1.7,0.5,3.4,0.8,5.1,0.8c3.5,0,6.7-1,9.4-2.8c2.3-1.5,3.6-3.5,4-5.7
	c0.1-0.5,0.2-1.2,0.2-1.7c0,0,0-0.4,0-0.6c0-0.2-0.2-1.9-0.2-2.1c0-0.1-0.1-0.4-0.1-0.7c-0.1-0.2-0.1-0.5-0.1-0.6
	c-0.5-2.1-1.6-4.2-3.4-6.1c-1.7-1.9-3.6-3.7-5.5-5.3c0,0-0.1-0.1-0.1-0.1l-0.1-0.1c-0.1-0.1-0.3-0.2-0.4-0.3
	c-0.2-0.1-0.3-0.2-0.4-0.3c-1.7-1.4-3.4-2.8-4.9-4.1c-1.5-1.3-2.3-2.5-2.3-3.6v-1.1c0-0.8,0.3-1.4,0.9-1.8c0.6-0.4,1.2-0.7,2-0.9
	c0.2,0,0.4-0.1,0.6-0.1c0.4,0,0.7,0,1.1,0c0.2,0,0.4,0.1,0.5,0.1c0.7,0.2,1.5,0.5,2.1,1c0.6,0.5,1,1.1,1,1.9v3.9h9.5v-2.7
	c0-3-1.4-5.5-4.1-7.6c-2.7-2-5.9-3.1-9.5-3.1c-3.6,0-6.8,1-9.5,3.1c-2.7,2-4.1,4.6-4.1,7.6c0,2.5,0.7,4.7,2.2,6.4
	c1.3,1.6,2.3,2.6,4.2,3.9l1.1,0.9c0.8,0.7,1.9,1.5,2.2,1.7c1.2,0.9,2.6,2.1,3.8,3.2c0.9,0.9,2.6,3.2,3.3,4.2
	c0.2,0.2,0.3,0.4,0.3,0.4c0.1,0.2,0.3,0.4,0.4,0.7c0.1,0.2,0.2,0.5,0.3,0.7l0,0.2v1.8c0,0.9-0.4,1.7-1.2,2.3c-0.8,0.6-1.6,0.9-2.6,1
	h-0.3c-1,0-2-0.3-2.8-1c-0.8-0.7-1.3-1.5-1.3-2.5v-5.3H473z M591.1,73.1h-11.1c-0.2,0-0.4-0.1-0.6-0.2c-0.1-0.1-0.3-0.3-0.3-0.6
	V35.7l-5.7,0c-0.2,0-0.4-0.1-0.6-0.2c-0.1-0.1-0.2-0.3-0.2-0.6v-7.9c0-0.3,0.1-0.4,0.2-0.6c0.1-0.1,0.3-0.2,0.6-0.2h24.2
	c0.3,0,0.5,0.1,0.6,0.2c0.2,0.1,0.2,0.3,0.2,0.5v8c0,0.2-0.1,0.4-0.2,0.5c-0.1,0.1-0.3,0.2-0.6,0.2h-5.7v36.7c0,0.2-0.1,0.4-0.2,0.6
	C591.5,73.1,591.3,73.1,591.1,73.1z M580.8,71.6h9.4V34.9c0-0.3,0.2-0.5,0.3-0.6c0.2-0.2,0.4-0.3,0.6-0.3h5.7v-6.4h-22.5v6.4h5.7
	c0.2,0,0.4,0.1,0.6,0.2c0.1,0.1,0.2,0.3,0.2,0.5V71.6z M410,73.1c-3.8,0-7.3-1.1-10.5-3.2c-3.1-2.1-4.8-4.9-4.8-8.4l0.1-23.8
	c0-3.5,1.6-6.5,4.7-8.7c3.1-2.2,6.6-3.4,10.5-3.4c3.9,0,7.5,1.1,10.6,3.4c3.1,2.3,4.7,5.2,4.7,8.7v23.9c0,3.4-1.6,6.2-4.8,8.4
	C417.4,72.1,413.8,73.1,410,73.1z M410,27.2c-3.6,0-6.7,1-9.5,3.1c-2.7,2-4.1,4.5-4.1,7.5v23.9c0,1.5,0.4,2.8,1.1,4
	c0.7,1.2,1.7,2.3,3,3.2c1.2,0.9,2.7,1.6,4.4,2.1c1.7,0.5,3.4,0.8,5.1,0.8c3.5,0,6.6-1,9.4-2.8c2.7-1.9,4.1-4.3,4.1-7.2V37.8
	c0-3-1.4-5.5-4.1-7.5C416.8,28.2,413.6,27.2,410,27.2z M410,65.2c-1.1,0-2.1-0.4-2.7-1.1c-0.7-0.7-1.1-1.5-1.3-2.3
	c0-0.2-0.1-0.4-0.1-0.6c0-0.2,0-0.4,0-0.6V38.9c0-0.3,0-0.6,0.1-0.9c0-0.1,0-0.2,0-0.3c0-0.2,0.1-0.4,0.1-0.6
	c0.2-0.8,0.6-1.6,1.3-2.4c0.6-0.7,1.5-1.1,2.7-1.1c1.2,0,2,0.4,2.6,1.1c0.6,0.7,1,1.5,1.2,2.4c0.1,0.3,0.2,0.6,0.2,0.9
	c0,0.3,0.1,0.6,0.1,0.8v22.2c0,0.1,0,0.7-0.1,0.9c-0.2,0.9-0.7,1.7-1.3,2.4C412.1,64.9,411.1,65.2,410,65.2z M410,35.1
	c-0.8,0-1.3,0.4-1.8,1.1c-0.4,0.8-0.7,1.6-0.7,2.6v21.9c0,0.4,0.1,0.7,0.2,1.1c0.1,0.4,0.3,0.7,0.6,1c0.2,0.3,0.5,0.5,0.8,0.7
	c0.3,0.2,0.6,0.2,0.9,0.2c0.7,0,1.2-0.3,1.7-0.8c0.5-0.5,0.7-1.2,0.7-2.1V38.4c0-0.2,0-0.7-0.3-1.4c-0.1-0.3-0.3-0.6-0.4-0.8
	c-0.2-0.4-0.5-0.7-0.7-0.8C410.7,35.2,410.4,35.1,410,35.1z M241.7,73.1c-3.8,0-7.3-1.1-10.5-3.2c-3.1-2.1-4.7-4.9-4.7-8.4l0-23.8
	c0-3.5,1.6-6.5,4.7-8.7c3.1-2.2,6.6-3.4,10.5-3.4c3.9,0,7.5,1.1,10.6,3.4c3.1,2.3,4.7,5.2,4.7,8.7v7.4c0,0.2-0.1,0.4-0.2,0.5
	c-0.2,0.2-0.5,0.2-0.6,0.2l-11.1,0c-0.2,0-0.4-0.1-0.6-0.2c-0.2-0.2-0.3-0.4-0.3-0.6v-6.7c0-0.1-0.2-1-0.3-1.4
	c-0.1-0.3-0.2-0.6-0.4-0.8c-0.2-0.4-0.5-0.7-0.7-0.8c-0.3-0.2-0.6-0.3-1-0.3c-0.8,0-1.3,0.4-1.8,1.1c-0.4,0.8-0.7,1.6-0.7,2.6v21.9
	c0,0.4,0.1,0.7,0.2,1.1c0.1,0.3,0.3,0.7,0.6,1c0.2,0.3,0.5,0.5,0.8,0.7c0.3,0.2,0.6,0.2,0.9,0.2c0.7,0,1.2-0.3,1.7-0.8
	c0.5-0.5,0.7-1.2,0.7-2.1v-7.7c0-0.2,0.1-0.4,0.3-0.6c0.1-0.1,0.3-0.2,0.6-0.2h11.1c0.2,0,0.4,0.1,0.6,0.2c0.2,0.1,0.2,0.3,0.2,0.5
	v8.6c0,3.4-1.6,6.2-4.8,8.4C249.1,72.1,245.6,73.1,241.7,73.1z M241.7,27.2c-3.6,0-6.8,1-9.5,3.1c-2.7,2-4.1,4.5-4.1,7.5v23.9
	c0,1.5,0.4,2.8,1.1,4c0.8,1.2,1.8,2.3,3,3.2c1.2,0.9,2.7,1.6,4.4,2.1c1.6,0.5,3.4,0.8,5.1,0.8c3.5,0,6.6-1,9.4-2.8
	c2.7-1.9,4.1-4.3,4.1-7.2v-7.8h-9.4v7.1c0,0.4,0,0.7-0.1,0.9c-0.1,0.7-0.7,1.7-1.3,2.4c-0.7,0.7-1.6,1.1-2.8,1.1
	c-1.1,0-2.1-0.4-2.7-1.1c-0.7-0.7-1.1-1.5-1.3-2.3c0-0.2-0.1-0.4-0.1-0.6c0-0.2,0-0.4,0-0.6V38.9c0-0.3,0-0.6,0.1-0.9
	c0-0.3,0.2-1.2,0.3-1.5c0.2-0.7,0.5-1.1,1.1-1.8c0.6-0.7,1.5-1.1,2.7-1.1c1.1,0,2,0.4,2.6,1.1c0.6,0.7,1,1.5,1.2,2.4
	c0.1,0.3,0.2,0.5,0.2,0.9c0,0.3,0.1,0.6,0.1,0.8v5.6h9.4v-6.6c0-3-1.4-5.5-4.1-7.5C248.5,28.2,245.3,27.2,241.7,27.2z M276.4,73.1
	c-3.8,0-7.3-1.1-10.5-3.2c-3.1-2.1-4.8-4.9-4.8-8.4l0.1-23.8c0-3.5,1.6-6.5,4.7-8.7c3.1-2.2,6.6-3.4,10.5-3.4s7.5,1.1,10.6,3.4
	c3.1,2.3,4.7,5.2,4.7,8.7v23.9c0,3.4-1.6,6.2-4.8,8.4C283.8,72.1,280.3,73.1,276.4,73.1z M276.4,27.2c-3.6,0-6.7,1-9.5,3.1
	c-2.7,2-4.1,4.5-4.1,7.5v23.9c0,1.5,0.4,2.8,1.1,4c0.7,1.2,1.8,2.3,3,3.2c1.2,0.9,2.7,1.6,4.4,2.1c1.6,0.5,3.4,0.8,5.1,0.8
	c3.5,0,6.6-1,9.4-2.8c2.7-1.9,4.1-4.3,4.1-7.2V37.8c0-3-1.4-5.5-4.1-7.5C283.2,28.2,280,27.2,276.4,27.2z M276.4,65.2
	c-1.1,0-2.1-0.4-2.7-1.1c-0.7-0.7-1.1-1.5-1.3-2.3c0-0.2-0.1-0.4-0.1-0.6c0-0.2,0-0.4,0-0.6V38.9c0-0.3,0-0.6,0.1-0.9
	c0-0.1,0-0.2,0-0.3c0-0.2,0.1-0.4,0.1-0.6c0.2-0.8,0.6-1.6,1.3-2.4c0.6-0.7,1.5-1.1,2.7-1.1c1.1,0,2,0.4,2.6,1.1
	c0.6,0.7,1,1.5,1.2,2.4c0.1,0.3,0.2,0.6,0.2,0.9c0,0.3,0.1,0.6,0.1,0.8v22.2c0,0.1,0,0.7-0.1,0.9c-0.2,0.9-0.6,1.7-1.3,2.4
	C278.5,64.9,277.6,65.2,276.4,65.2z M276.4,35.1c-0.8,0-1.3,0.4-1.8,1.1c-0.4,0.8-0.7,1.6-0.7,2.6v21.9c0,0.4,0.1,0.7,0.2,1.1
	c0.1,0.3,0.3,0.7,0.6,1c0.2,0.3,0.5,0.5,0.8,0.7c0.3,0.2,0.6,0.2,0.9,0.2c0.7,0,1.2-0.3,1.7-0.8c0.5-0.5,0.7-1.2,0.7-2.1V38.4
	c0-0.3-0.1-0.8-0.3-1.4c-0.1-0.3-0.3-0.6-0.4-0.8c-0.3-0.4-0.5-0.7-0.7-0.8C277.2,35.2,276.8,35.1,276.4,35.1z M324.9,73.1h-9.2
	c-0.2,0-0.4,0-0.5-0.1c-0.1-0.1-0.2-0.2-0.3-0.4l-6.2-16.9v16.7c0,0.2-0.1,0.4-0.2,0.6c-0.1,0.1-0.4,0.2-0.6,0.2h-11.1
	c-0.2,0-0.4-0.1-0.6-0.2c-0.1-0.1-0.3-0.3-0.3-0.6V27c0-0.2,0.1-0.4,0.3-0.6c0.2-0.1,0.3-0.2,0.5-0.2l11.2,0c0.2,0,0.3,0,0.5,0.1
	c0.1,0.1,0.2,0.2,0.3,0.3l6.2,12.6V27c0-0.3,0.2-0.5,0.3-0.6c0.2-0.1,0.4-0.2,0.6-0.2h9.2c0.3,0,0.5,0.1,0.6,0.2
	c0.2,0.1,0.2,0.3,0.2,0.5v45.5c0,0.2-0.1,0.4-0.2,0.6C325.4,73.1,325.2,73.1,324.9,73.1z M316.4,71.6h7.6V27.7h-7.5v15.2
	c0,0.3-0.2,0.5-0.3,0.6c-0.2,0.1-0.3,0.2-0.6,0.2c-0.3,0-0.6-0.2-0.8-0.5l-7.6-15.5h-9.8v43.9h9.4V50.8c0-0.3,0.2-0.5,0.3-0.6
	c0.3-0.2,0.7-0.2,1-0.1c0.2,0.1,0.3,0.2,0.4,0.4L316.4,71.6z M348.5,73.1h-11.1c-0.2,0-0.4-0.1-0.6-0.2c-0.1-0.1-0.3-0.3-0.3-0.6
	V35.7h-5.7c-0.2,0-0.4-0.1-0.6-0.2c-0.1-0.2-0.2-0.4-0.2-0.6V27c0-0.2,0.1-0.4,0.2-0.6c0.2-0.1,0.3-0.2,0.6-0.2H355
	c0.3,0,0.5,0.1,0.6,0.2c0.2,0.1,0.2,0.3,0.2,0.5v8c0,0.2-0.1,0.4-0.2,0.5c-0.1,0.1-0.3,0.2-0.6,0.2h-5.7v36.7c0,0.2-0.1,0.4-0.2,0.6
	C349,73.1,348.7,73.1,348.5,73.1z M338.2,71.6h9.4V34.9c0-0.3,0.1-0.5,0.3-0.6c0.2-0.2,0.4-0.3,0.6-0.3h5.7v-6.4h-22.5v6.4h5.7
	c0.2,0,0.4,0.1,0.6,0.3c0.2,0.1,0.2,0.3,0.2,0.5V71.6z M389.4,73.1h-11.5c-0.2,0-0.4-0.1-0.6-0.2c-0.1-0.1-0.2-0.3-0.3-0.5
	l-2.5-19.2h-1.6v19.1c0,0.3-0.1,0.4-0.2,0.6c-0.1,0.1-0.4,0.2-0.6,0.2h-11.1c-0.2,0-0.4-0.1-0.6-0.2c-0.2-0.1-0.2-0.4-0.2-0.6
	l0-45.4c0-0.2,0.1-0.4,0.2-0.6c0.1-0.1,0.3-0.3,0.6-0.3l15.7,0c1.8,0,3.8,0.1,4.9,0.3c1.7,0.3,3.2,0.8,4.5,1.7
	c1.4,1,2.5,2.1,3.3,3.2c0.8,1.2,1.2,2.6,1.2,4.2v7.3c0,0.5,0,1-0.1,1.5c0,0.5-0.1,0.9-0.3,1.4c-0.1,0.3-0.2,0.6-0.3,0.9
	c-0.1,0.3-0.3,0.6-0.5,1c-0.3,0.6-0.7,1.2-1,1.7c-0.4,0.5-0.8,0.9-1.4,1.3l3.2,21.6c0.1,0.2,0,0.4-0.2,0.6
	C389.9,73.1,389.7,73.1,389.4,73.1z M378.7,71.6h9.7l-3.2-21.1c0,0,0-0.2,0-0.3c0.1-0.1,0.1-0.2,0.2-0.3c0.6-0.4,1-0.8,1.4-1.3
	c0.4-0.4,0.7-1,1-1.6c0.2-0.3,0.3-0.6,0.4-0.9c0.1-0.3,0.2-0.6,0.3-0.8c0.1-0.3,0.1-0.7,0.2-1.1c0-0.4,0.1-0.9,0.1-1.4v-7.2
	c0-1.3-0.3-2.5-1-3.5c-0.7-1-1.6-1.9-2.9-2.8c-1.2-0.8-2.5-1.3-3.8-1.4c-1.3-0.2-2.9-0.2-4.6-0.3h-14.9v43.9h9.4V52.5
	c0-0.3,0.2-0.5,0.3-0.6c0.2-0.1,0.4-0.2,0.6-0.2h3.3c0.2,0,0.4,0.1,0.6,0.2c0.1,0.1,0.2,0.2,0.3,0.4l0,0.2L378.7,71.6z M372,45.3
	L372,45.3c-0.2,0-0.4-0.1-0.6-0.2c-0.2-0.1-0.3-0.4-0.3-0.6v-9.6c0-0.2,0.1-0.4,0.2-0.6c0.2-0.2,0.3-0.2,0.6-0.2h3.1
	c0.2,0,0.8,0,1,0.1c0.5,0.1,0.9,0.2,1.3,0.4c0.5,0.2,0.9,0.5,1.2,0.8c0.2,0.2,0.4,0.5,0.5,0.8c0.1,0.3,0.2,0.6,0.2,0.8
	c0,0.2,0.1,0.5,0.1,0.7l0,4c0,0.1,0,0.1,0,0.2c0,0.5-0.2,1-0.4,1.4c-0.2,0.5-0.6,0.9-1.2,1.3c-0.5,0.3-1,0.5-1.6,0.6
	c-0.5,0.1-1.3,0.1-1.7,0.1L372,45.3z M372.9,43.8l2.3,0c0.3,0,0.6,0,0.9-0.1c0.4-0.1,0.6-0.2,0.9-0.4c0.3-0.2,0.5-0.5,0.6-0.8
	c0.1-0.3,0.2-0.7,0.2-1.2v-3.2c0-0.4,0-0.8-0.1-1.1c0-0.3-0.2-0.5-0.3-0.8c-0.2-0.2-0.5-0.4-1-0.5c-0.4-0.1-0.6-0.1-1.7-0.1h-1.8
	V43.8z M452.6,73.1h-22.3c-0.2,0-0.4-0.1-0.6-0.2c-0.2-0.2-0.2-0.4-0.2-0.5V27c0-0.3,0.1-0.4,0.2-0.6c0.1-0.1,0.3-0.2,0.5-0.2
	l11.2,0c0.3,0,0.5,0.1,0.6,0.2c0.2,0.1,0.2,0.3,0.2,0.5v36.7h10.3c0.3,0,0.5,0.1,0.6,0.2c0.2,0.1,0.2,0.3,0.2,0.5v8
	c0,0.2-0.1,0.4-0.2,0.6C453.1,73.1,452.9,73.1,452.6,73.1z M431.2,71.6h20.6v-6.4h-10.3c-0.2,0-0.4-0.1-0.6-0.2
	c-0.2-0.2-0.3-0.4-0.3-0.6V27.7h-9.4V71.6z M525.4,73.1h-11.1c-0.2,0-0.4-0.1-0.6-0.2c-0.1-0.1-0.3-0.3-0.3-0.6V57.8L504,27.2
	c-0.1-0.2-0.1-0.5,0.1-0.7c0.2-0.2,0.5-0.3,0.6-0.3h11.8c0.2,0,0.4,0,0.5,0.2c0.1,0.1,0.2,0.2,0.3,0.4l2.4,8.9l2.4-8.8
	c0.1-0.2,0.2-0.4,0.3-0.5c0.1-0.1,0.3-0.2,0.5-0.2l0.1,0h11.8c0.3,0,0.5,0.1,0.7,0.3c0.2,0.2,0.2,0.4,0.1,0.7l-9.5,30.7v14.6
	c0,0.2-0.1,0.4-0.2,0.6C525.9,73.1,525.7,73.1,525.4,73.1z M515.2,71.6h9.4l0-14.2l9.2-29.7h-10l-3.1,11.4c-0.1,0.2-0.2,0.4-0.3,0.5
	c-0.3,0.2-0.7,0.2-1,0c-0.2-0.1-0.3-0.3-0.3-0.5l-3.1-11.3h-10l9.2,29.8V71.6z M626.4,73.1h-22.9c-0.2,0-0.4-0.1-0.6-0.2
	c-0.2-0.1-0.2-0.4-0.2-0.6V27c0-0.2,0.1-0.4,0.2-0.6c0.2-0.1,0.3-0.2,0.5-0.2h22.9c0.3,0,0.5,0.1,0.6,0.2c0.2,0.1,0.2,0.3,0.2,0.5v8
	c0,0.2-0.1,0.4-0.2,0.5c-0.2,0.2-0.4,0.2-0.7,0.2l-10.9,0v6.5l10.9,0c0.3,0,0.5,0.1,0.6,0.2c0.2,0.1,0.2,0.3,0.2,0.5v8
	c0,0.2-0.1,0.4-0.2,0.5c-0.2,0.2-0.4,0.2-0.6,0.2h-10.9v12.2h10.9c0.3,0,0.5,0.1,0.6,0.2c0.2,0.1,0.2,0.3,0.2,0.5v8
	c0,0.2-0.1,0.4-0.2,0.6C626.9,73.1,626.7,73.1,626.4,73.1z M604.4,71.6h21.2v-6.4h-10.9c-0.2,0-0.4-0.1-0.6-0.2
	c-0.2-0.2-0.3-0.4-0.3-0.6V50.8c0-0.3,0.1-0.4,0.3-0.6c0.1-0.1,0.4-0.3,0.6-0.3h10.9v-6.4h-10.9c-0.2,0-0.4-0.1-0.6-0.2
	c-0.2-0.2-0.3-0.4-0.3-0.6v-7.9c0-0.3,0.2-0.5,0.3-0.6c0.1-0.1,0.3-0.3,0.6-0.3h10.9v-6.4h-21.2V71.6z M676.9,73.1h-11.1
	c-0.2,0-0.4-0.1-0.6-0.2c-0.1-0.1-0.3-0.3-0.3-0.6V51.6l-4.2,21c-0.1,0.2-0.2,0.4-0.3,0.5c-0.1,0.1-0.3,0.1-0.5,0.1h-10.5
	c-0.2,0-0.4,0-0.5-0.1c-0.1-0.1-0.3-0.3-0.3-0.5l-4.2-21v20.8c0,0.2-0.1,0.4-0.2,0.6c-0.2,0.1-0.4,0.2-0.6,0.2h-11.1
	c-0.2,0-0.4-0.1-0.6-0.2c-0.2-0.1-0.2-0.3-0.2-0.6V27c0-0.2,0.1-0.4,0.2-0.6c0.2-0.1,0.3-0.2,0.6-0.2h17c0.2,0,0.4,0,0.5,0.2
	c0.1,0.1,0.2,0.2,0.3,0.4l4.4,18.4l4.4-18.3c0.1-0.2,0.2-0.4,0.3-0.5c0.1-0.1,0.3-0.1,0.5-0.1h17c0.3,0,0.5,0.1,0.6,0.2
	c0.2,0.1,0.2,0.3,0.2,0.5v45.5c0,0.2-0.1,0.4-0.2,0.6C677.3,73.1,677.1,73.1,676.9,73.1z M666.6,71.6h9.4V27.7h-15.5L655.5,49
	c-0.1,0.2-0.2,0.4-0.3,0.5c-0.3,0.2-0.7,0.2-1,0c-0.2-0.1-0.3-0.3-0.3-0.5l-5.1-21.3h-15.5v43.9h9.4V42.9c0-0.3,0.2-0.5,0.3-0.6
	c0.3-0.2,0.7-0.3,1.1,0c0.2,0.1,0.3,0.2,0.3,0.4l5.8,29h9l5.8-28.9c0.1-0.2,0.2-0.4,0.4-0.5c0.4-0.2,0.8-0.2,1.1,0
	c0.2,0.1,0.3,0.3,0.3,0.5V71.6z"/>
<path id="KÜNDIG_1_" class="st2" d="M25.4,26.4h11.1v16.3l5.9-16.3h10.8l-7.5,20.4L54.9,73H44l-7.5-22.1V73H25.4V26.4z M59.1,61.1
	V26.4h11.1v34.9c0,0.9,0.3,1.7,0.9,2.4c0.6,0.7,1.4,1.1,2.4,1.1c1,0,1.7-0.4,2.4-1c0.6-0.7,0.9-1.5,0.9-2.3V26.4h11.1v34.6
	c0,3.4-1.5,6.3-4.4,8.5c-2.9,2.3-6.3,3.4-10.1,3.4c-3.8,0-7.1-1.1-10.1-3.4C60.6,67.3,59.1,64.5,59.1,61.1L59.1,61.1z M63.7,25v-5.8
	h6.5V25L63.7,25z M83.1,19.1V25l-6.4,0v-5.8H83.1z M93.8,26.4h11.1l7.9,16.3V26.4h9.2V73h-9.2l-7.9-22.1V73H93.8V26.4z M127.9,26.4
	h14.1c1.5,0,5.7-0.1,9.1,1.5c0,0,3.7,1.4,4.8,5.5c0.3,1.3,0.2,3.7,0.2,4.3c0,0.1,0,25.9,0,25.9s0,0.9-0.1,1.6
	c-0.2,1.6-1.2,3.2-2.2,4.3c-0.6,0.6-1.1,1-1.7,1.3c-0.5,0.3-1.9,1-3,1.3c-2.9,0.8-6,0.8-6,0.8h-1.8h-13.4V26.4z M144.5,63.2
	c0.1-0.3,0.2-0.5,0.3-1.1c0.1-0.9,0.1-1.6,0.1-1.6c0-0.1,0-21.8,0-21.8c0-0.1,0-0.5,0-0.9c0-0.4-0.1-1.5-0.8-2.5c-0.8-1-2-0.9-2-0.9
	h-3v30.4h2.7c0,0,0.3,0,0.3,0c0.3,0,0.7-0.1,1-0.2C143.4,64.5,144.2,64,144.5,63.2z M161.9,26.4H173V73h-11.1V26.4z M207.7,73h-3.9
	l-2.3-2.3c-0.4,0.3-0.8,0.5-1.2,0.7c-0.4,0.2-0.8,0.4-1.2,0.6c-0.9,0.4-1.8,0.7-2.7,0.8c-0.9,0.2-2,0.2-3.1,0.2c-3.7,0-7-1-10-3.1
	c-3-2-4.5-4.7-4.5-7.9V37.5c0-3.3,1.5-6.1,4.4-8.3c2.9-2.2,6.3-3.3,10-3.3c3.8,0,7.1,1.1,10,3.3c2.9,2.2,4.4,5,4.4,8.3v4.9h-11.1
	v-3.9c0-0.2,0-0.9,0-1.1c0-0.1,0-0.1,0-0.2c-0.1-0.9-0.4-1.4-0.9-2.1c-0.5-0.7-1.3-1.1-2.3-1.1c-1,0-1.6,0.3-2.3,1
	c-0.5,0.6-0.9,1.3-1,2.2c0,0.2,0,1.3,0,1.4v22.4c0,0.1,0,0.2,0,0.3c0,0.1,0,0.2,0,0.2c0.1,0.8,0.4,1.6,1,2.3c0.6,0.7,1.3,1,2.3,1
	c1,0,1.8-0.4,2.4-1.1c0.6-0.7,0.9-1.5,0.9-2.4c0,0,0-0.1,0-0.1c0,0,0,0,0-0.1v-8h-3.3V45h14.4V73z"/>
</svg>
