<?xml version="1.0" standalone="no"?>
<!DOCTYPE svg PUBLIC "-//W3C//DTD SVG 20010904//EN"
 "http://www.w3.org/TR/2001/REC-SVG-20010904/DTD/svg10.dtd">
<svg version="1.0" xmlns="http://www.w3.org/2000/svg"
 width="76.000000pt" height="81.000000pt" viewBox="0 0 76.000000 81.000000"
 preserveAspectRatio="xMidYMid meet">

<g transform="translate(0.000000,81.000000) scale(0.100000,-0.100000)"
fill="#000000" stroke="none">
<path d="M275 800 c-75 -14 -157 -44 -169 -62 -7 -11 -6 -25 2 -43 14 -30 7
-30 136 4 44 12 81 19 83 17 2 -2 2 -60 1 -130 l-3 -127 -124 106 c-113 97
-127 106 -160 103 l-36 -3 -3 -319 c-2 -227 1 -323 9 -332 15 -18 53 -18 68
-1 7 9 12 101 13 269 l3 256 118 -100 117 -100 0 -73 c0 -81 11 -99 57 -93 28
3 28 4 33 85 l5 81 117 101 c64 56 120 101 123 101 3 0 5 -119 5 -265 l0 -265
24 -6 c13 -3 34 -1 45 6 21 11 21 16 21 329 l0 318 -25 13 c-35 19 -50 10
-187 -109 -64 -55 -120 -101 -123 -101 -3 0 -5 59 -5 131 l0 131 33 -7 c17 -3
65 -16 106 -27 72 -21 74 -21 87 -3 17 23 18 49 2 63 -50 40 -270 71 -373 52z"/>
<path d="M169 78 c-6 -18 -3 -46 3 -42 5 4 7 12 4 20 -4 10 3 14 22 14 25 -1
26 -2 9 -14 -16 -12 -16 -14 -2 -20 9 -3 13 -2 10 3 -3 5 -1 12 5 16 16 10 1
25 -26 25 -13 0 -24 -1 -25 -2z"/>
<path d="M263 69 c-13 -13 -6 -39 9 -39 6 0 5 6 -2 15 -10 12 -9 16 4 21 9 3
23 3 32 0 13 -5 14 -9 4 -21 -7 -9 -8 -15 -2 -15 15 0 22 26 9 39 -6 6 -18 11
-27 11 -9 0 -21 -5 -27 -11z"/>
<path d="M359 78 c-6 -23 -7 -48 -1 -48 4 0 8 11 8 25 0 21 -4 33 -7 23z"/>
<path d="M451 66 c-9 -10 -7 -17 6 -27 16 -13 17 -12 4 3 -11 15 -11 19 3 24
9 3 23 3 32 0 13 -5 14 -9 4 -21 -7 -9 -8 -15 -2 -15 15 0 22 26 9 39 -15 15
-42 14 -56 -3z"/>
<path d="M556 72 c7 -4 14 -16 17 -27 4 -19 5 -19 6 2 0 12 7 24 14 26 6 3 -1
6 -18 6 -16 0 -25 -3 -19 -7z"/>
<path d="M398 53 c6 -2 9 -10 6 -15 -4 -7 -2 -8 5 -4 13 9 5 26 -12 25 -9 0
-8 -2 1 -6z"/>
</g>
</svg>
