<?xml version="1.0" encoding="utf-8"?>
<!-- Generator: Adobe Illustrator 19.2.1, SVG Export Plug-In . SVG Version: 6.00 Build 0)  -->
<svg version="1.1" id="layer" xmlns="http://www.w3.org/2000/svg" xmlns:xlink="http://www.w3.org/1999/xlink" x="0px" y="0px"
	 viewBox="0 0 652 652" style="enable-background:new 0 0 652 652;" xml:space="preserve">
<style type="text/css">
	.st0{fill-rule:evenodd;clip-rule:evenodd;fill:#A21E3A;}
</style>
<g>
	<g>
		<g>
			<path class="st0" d="M256.8,286.4c2.1,0,6.6-0.4,10.2,3.3c3.6,3.7,3.8,8.3,3.8,10.5c0,6.3-5.2,11-11.8,11c-2.7,0-5.8-0.5-6.8-1.1
				c-0.3-0.2-0.5-0.5-0.5-0.8v-21.8c0-0.4,0.2-0.7,0.5-0.8C253,286.6,254.8,286.4,256.8,286.4 M448.7,287.1l8.4,0.1
				c6.4,0.1,8,1.7,8.2,3.7l0.1,0.7c0.1,0.9,0.2,1.1,0.5,1.1c0.3,0,0.5-0.3,0.5-0.9c0-0.7,0.2-5.3,0.2-7.3c0-0.4,0-0.8-0.3-0.8
				c-0.3,0-0.9,0.2-1.9,0.3c-1.1,0.2-2.6,0.3-4.7,0.3h-25c-0.8,0-3.3-0.1-5.3-0.3c-1.8-0.1-2.5-0.8-2.9-0.8c-0.3,0-0.5,0.9-0.7,1.3
				c-0.1,0.5-1.5,6.3-1.5,6.9c0,0.4,0.1,0.6,0.3,0.6c0.3,0,0.5-0.1,0.7-0.7c0.2-0.5,0.4-0.9,1.1-2.1c1.1-1.6,2.7-2.1,6.8-2.1
				l9.9-0.1v28.2c0,6.4,0,11.7-0.3,14.5c-0.3,1.9-0.6,3.4-1.9,3.7c-0.6,0.1-1.4,0.3-2,0.3c-0.4,0-0.5,0.2-0.5,0.4
				c0,0.4,0.3,0.5,1.1,0.5c2,0,6.2-0.2,6.5-0.2c0.3,0,4.5,0.2,8.2,0.2c0.7,0,1.1-0.2,1.1-0.5c0-0.2-0.1-0.4-0.5-0.4
				c-0.6,0-2.1-0.1-3-0.3c-2-0.3-2.4-1.7-2.6-3.7c-0.3-2.8-0.3-8.1-0.3-14.5V287.1z M366.5,287.1l8.4,0.1c6.4,0.1,8,1.7,8.2,3.7
				l0.1,0.7c0.1,0.9,0.2,1.1,0.5,1.1c0.3,0,0.5-0.3,0.5-0.9c0-0.7,0.2-5.3,0.2-7.3c0-0.4,0-0.8-0.3-0.8c-0.3,0-0.9,0.2-1.9,0.3
				c-1.1,0.2-2.6,0.3-4.7,0.3h-25c-0.8,0-3.3-0.1-5.3-0.3c-1.8-0.1-2.5-0.8-2.9-0.8c-0.3,0-0.5,0.9-0.7,1.3
				c-0.1,0.5-1.5,6.3-1.5,6.9c0,0.4,0.1,0.6,0.3,0.6c0.3,0,0.5-0.1,0.7-0.7c0.2-0.5,0.4-0.9,1.1-2.1c1.1-1.6,2.7-2.1,6.8-2.1
				l9.9-0.1v28.2c0,6.4,0,11.7-0.3,14.5c-0.3,1.9-0.6,3.4-1.9,3.7c-0.6,0.1-1.4,0.3-2,0.3c-0.4,0-0.5,0.2-0.5,0.4
				c0,0.4,0.3,0.5,1.1,0.5c2,0,6.2-0.2,6.5-0.2s4.5,0.2,8.2,0.2c0.7,0,1.1-0.2,1.1-0.5c0-0.2-0.1-0.4-0.5-0.4c-0.6,0-2.1-0.1-3-0.3
				c-2-0.3-2.4-1.7-2.6-3.7c-0.3-2.8-0.3-8.1-0.3-14.5V287.1z M332.1,303.6c0-10.4,0-12.3,0.1-14.4c0.1-2.3,0.7-3.5,2.5-3.8
				c0.8-0.1,1.2-0.2,1.7-0.2c0.3,0,0.5-0.1,0.5-0.4c0-0.4-0.3-0.5-1.1-0.5c-2,0-6.2,0.2-6.5,0.2c-0.3,0-4.5-0.2-6.7-0.2
				c-0.7,0-1.1,0.1-1.1,0.5c0,0.3,0.3,0.4,0.5,0.4c0.5,0,1.3,0.1,2.1,0.3c1.5,0.3,2.1,1.5,2.3,3.7c0.1,2.1,0.1,4,0.1,14.4v11.7
				c0,6.4,0,11.7-0.3,14.5c-0.3,1.9-0.6,3.4-1.9,3.7c-0.6,0.1-1.4,0.3-2,0.3c-0.4,0-0.5,0.2-0.5,0.4c0,0.4,0.3,0.5,1.1,0.5
				c2,0,6.2-0.2,6.5-0.2c0.3,0,4.5,0.2,8.2,0.2c0.7,0,1.1-0.2,1.1-0.5c0-0.2-0.1-0.4-0.5-0.4c-0.6,0-2.1-0.1-3-0.3
				c-2-0.3-2.4-1.7-2.6-3.7c-0.3-2.8-0.3-8.1-0.3-14.5V303.6z M297.4,335.6c3.6,0,7.2-0.8,10.1-2.8c4.6-3.3,5.7-8.3,5.7-11.1
				c0-5.3-1.9-9.5-9.7-15.7l-1.9-1.5c-6.4-5-8.1-7.4-8.1-11.2c0-4.9,3.6-7.7,8.2-7.7c6.1,0,7.9,2.8,8.3,3.5c0.4,0.7,0.8,2.5,0.9,3.3
				c0.1,0.5,0.1,0.9,0.5,0.9c0.3,0,0.5-0.5,0.5-1.5c0-4.5,0.3-6.7,0.3-7.1c0-0.3-0.1-0.5-0.7-0.5c-0.5,0-1.1-0.1-2.3-0.3
				c-1.7-0.4-3.6-0.7-6.2-0.7c-8.5,0-13.8,4.9-13.8,12c0,4.5,1.6,8.7,8.7,14.5l3,2.5c5.7,4.7,7.7,7.4,7.7,12c0,4.3-3.1,8.9-9.5,8.9
				c-4.5,0-8.9-1.9-9.9-6.8c-0.2-0.9-0.2-1.9-0.2-2.5c0-0.5-0.1-0.7-0.5-0.7c-0.3,0-0.5,0.3-0.5,1.1c-0.1,1.1-0.3,3.7-0.3,7.1
				c0,1.8,0.1,2.1,1,2.5C291.2,335.1,294.2,335.6,297.4,335.6 M210.6,315.3c0,6.4,0,11.7-0.3,14.5c-0.3,1.9-0.6,3.4-1.9,3.7
				c-0.6,0.1-1.4,0.3-2,0.3c-0.4,0-0.5,0.2-0.5,0.4c0,0.4,0.3,0.5,1.1,0.5c1,0,2.5-0.1,3.9-0.1c1.4-0.1,2.5-0.1,2.7-0.1
				c1,0,2.6,0.1,5.2,0.2c2.6,0.1,6.3,0.2,11.3,0.2c2.6,0,3.1,0,3.6-1.7c0.3-1.4,0.9-5.9,0.9-6.5c0-0.5,0-1-0.4-1
				c-0.3,0-0.5,0.3-0.6,1c-0.5,2.7-1.3,4.1-3,4.8c-1.7,0.7-4.7,0.7-6.4,0.7c-6.5,0-7.5-0.9-7.7-5.5c-0.1-1.4,0-9.1,0-11.4v-5.9
				c0-0.3,0.1-0.5,0.5-0.5c1.1,0,7.7,0.1,9.5,0.3c2.6,0.3,3.2,1.4,3.5,2.3c0.3,0.9,0.3,1.5,0.3,2.2c0,0.3,0.1,0.6,0.5,0.6
				c0.5,0,0.5-0.7,0.5-1.3c0-0.5,0.1-2.9,0.3-4.3c0.2-2.2,0.5-3.3,0.5-3.7s-0.1-0.5-0.3-0.5c-0.3,0-0.5,0.3-1,0.9
				c-0.6,0.7-1.5,0.8-3.1,0.9c-1.5,0.1-9.7,0.1-10.6,0.1c-0.3,0-0.4-0.2-0.4-0.7v-18.4c0-0.5,0.1-0.7,0.4-0.7c0.7,0,8,0.1,9.1,0.2
				c3.6,0.4,4.3,1.2,4.7,2.3c0.3,0.8,0.4,1.9,0.4,2.4c0,0.5,0.1,0.9,0.5,0.9c0.3,0,0.4-0.4,0.5-0.7c0.1-0.8,0.3-3.7,0.3-4.4
				c0.2-1.9,0.5-2.7,0.5-3.1c0-0.3-0.1-0.6-0.3-0.6c-0.3,0-0.6,0.3-0.9,0.3c-0.5,0.1-1.6,0.3-2.9,0.3c-1.5,0.1-14.8,0.1-15.3,0.1
				l-2.7-0.1c-1.5-0.1-3.3-0.1-4.8-0.1c-0.7,0-1.1,0.1-1.1,0.5c0,0.3,0.3,0.4,0.5,0.4c0.6,0,1.7,0.1,2.3,0.2
				c2.2,0.5,2.7,1.5,2.9,3.8c0.1,2.1,0.1,4,0.1,14.4V315.3z M164.4,292.4c-1-2.6-1.8-4.7-1.8-5.5c0-0.5,0.1-1,0.9-1.3
				c0.6-0.3,1.8-0.3,2.5-0.3c0.5,0,0.7-0.1,0.7-0.5c0-0.3-0.6-0.5-1.8-0.5c-2.5,0-5.5,0.2-6.2,0.2c-0.8,0-4.6-0.2-7.8-0.2
				c-1.1,0-1.7,0.1-1.7,0.5c0,0.3,0.1,0.5,0.5,0.5s1.5,0,2.5,0.3c2.3,0.7,3.3,1.4,4.8,5.1l16.3,40.9c1.3,3.2,1.6,4.1,2.4,4.1
				c0.7,0,0.9-1.1,2.8-5.1c1.5-3.3,4.5-10.5,8.6-20.2c3.4-8.2,6.7-16.2,7.5-18.1c1.8-4.5,2.8-5.7,3.7-6.3c1.3-0.8,2.7-0.8,3.2-0.8
				c0.5,0,0.8-0.1,0.8-0.5c0-0.3-0.4-0.5-1.1-0.5c-1.9,0-4.8,0.2-5.2,0.2c-0.8,0-3.9-0.2-6.5-0.2c-1.1,0-1.5,0.1-1.5,0.5
				c0,0.3,0.3,0.4,0.7,0.4c0.7,0,1.7,0,2.5,0.3c0.7,0.3,0.9,1,0.9,1.5c0,0.6-0.3,1.5-0.6,2.5c-1.5,4.8-10.4,28.1-14.3,37
				L164.4,292.4z M388.4,327.3c-1.2,3.3-2.5,5.9-5.6,6.3c-0.5,0.1-1.5,0.1-1.9,0.1c-0.3,0-0.6,0.1-0.6,0.4c0,0.4,0.4,0.5,1.3,0.5
				c3.1,0,6.8-0.2,7.5-0.2c0.7,0,3.6,0.2,5.2,0.2c0.6,0,1-0.1,1-0.5c0-0.3-0.2-0.4-0.7-0.4h-0.7c-1.1,0-2.5-0.6-2.5-1.9
				c0-1.2,0.3-2.8,0.9-4.5l4-11.8c0.1-0.3,0.3-0.5,0.7-0.5h14.3c0.3,0,0.5,0.1,0.6,0.4l6.2,16.4c0.4,1.1,0,1.7-0.4,1.8
				c-0.3,0.1-0.5,0.2-0.5,0.5c0,0.4,0.7,0.4,2,0.5c4.6,0.1,9.5,0.1,10.5,0.1c0.7,0,1.3-0.1,1.3-0.5c0-0.3-0.3-0.4-0.7-0.4
				c-0.7,0-1.7-0.1-2.7-0.4c-1.4-0.4-3.3-1.5-5.7-7.4c-4.1-10.1-14.5-37.7-15.5-40.2c-0.8-2.1-1.1-2.4-1.5-2.4
				c-0.4,0-0.7,0.4-1.5,2.6L388.4,327.3z M397.7,312.6c-0.2,0-0.3-0.1-0.2-0.5l5.9-18c0.3-1,0.7-1,1,0l6.3,18
				c0.1,0.3,0.1,0.5-0.3,0.5H397.7z M413.9,290.4c1.8,0,2.9-1.3,2.9-3.1c0-1.7-1.3-2.7-2.9-2.7c-2.1,0-2.9,1.7-2.9,2.9
				C411.1,288.8,411.9,290.4,413.9,290.4 M396.8,290.4c1.8,0,2.9-1.3,2.9-3.1c0-1.7-1.3-2.7-2.9-2.7c-2.1,0-2.9,1.7-2.9,2.9
				C394,288.8,394.8,290.4,396.8,290.4 M141.2,303.6c0-10.4,0-12.3,0.1-14.4c0.1-2.3,0.7-3.5,2.5-3.8c0.8-0.1,1.2-0.2,1.7-0.2
				c0.3,0,0.5-0.1,0.5-0.4c0-0.4-0.3-0.5-1.1-0.5c-2,0-6.2,0.2-6.5,0.2s-4.5-0.2-6.7-0.2c-0.7,0-1.1,0.1-1.1,0.5
				c0,0.3,0.3,0.4,0.5,0.4c0.5,0,1.3,0.1,2.1,0.3c1.5,0.3,2.1,1.5,2.3,3.7c0.1,2.1,0.1,4,0.1,14.4v11.7c0,6.4,0,11.7-0.3,14.5
				c-0.3,1.9-0.6,3.4-1.9,3.7c-0.6,0.1-1.4,0.3-2,0.3c-0.4,0-0.5,0.2-0.5,0.4c0,0.4,0.3,0.5,1.1,0.5c2,0,6.2-0.2,6.5-0.2
				s4.5,0.2,8.2,0.2c0.7,0,1.1-0.2,1.1-0.5c0-0.2-0.1-0.4-0.5-0.4c-0.6,0-2.1-0.1-3-0.3c-2-0.3-2.4-1.7-2.6-3.7
				c-0.3-2.8-0.3-8.1-0.3-14.5V303.6z M80.6,293.6c2.1,2.4,9.7,10.8,17.4,19.1c7.1,7.6,16.6,17.4,17.4,18.1c3.5,3.5,4.3,4.3,4.9,4.3
				c0.5,0,0.6-0.3,0.6-4.7l0.1-39.1c0-4,0.3-5.5,2.5-5.9c0.8-0.2,1.3-0.2,1.6-0.2c0.5,0,0.7-0.2,0.7-0.5c0-0.4-0.5-0.5-1.2-0.5
				c-2.7,0-4.9,0.2-5.7,0.2c-0.7,0-3.9-0.2-6.9-0.2c-0.8,0-1.3,0.1-1.3,0.5c0,0.3,0.1,0.5,0.5,0.5c0.5,0,2.1,0.1,3.3,0.3
				c2.1,0.5,2.5,2,2.6,6.3l0.7,33.9c-2.1-2.2-9.4-10.3-16-17.4c-10.3-11-20.2-21.7-21.2-22.9c-0.7-0.7-1.8-2.1-2.4-2.1
				c-0.5,0-0.7,0.7-0.7,3.3l-0.1,38.2c0,6.1-0.3,8-2,8.5c-1,0.3-2.2,0.4-2.7,0.4c-0.3,0-0.5,0.1-0.5,0.4c0,0.5,0.4,0.5,1.1,0.5
				c3,0,5.8-0.2,6.4-0.2s3.3,0.2,7.1,0.2c0.8,0,1.2-0.1,1.2-0.5c0-0.3-0.2-0.4-0.5-0.4c-0.6,0-2.1-0.1-3.3-0.4
				c-1.8-0.5-2.5-2.3-2.6-7.7L80.6,293.6z M26.2,313.3c0,9.7,2.5,14.4,5.8,17.5c4.7,4.5,11.5,4.7,13.7,4.7c3.9,0,8.9-0.7,13.7-4.9
				c5.3-4.7,6.1-12.7,6.1-19.9v-7.1c0-10.4,0-12.3,0.1-14.4c0.1-2.3,0.7-3.4,2.5-3.8c0.8-0.1,1.2-0.2,1.7-0.2c0.3,0,0.5-0.1,0.5-0.4
				c0-0.4-0.3-0.5-1.1-0.5c-2,0-5.1,0.2-5.6,0.2c-0.4,0-4.1-0.2-7.1-0.2c-0.7,0-1.1,0.1-1.1,0.5c0,0.3,0.3,0.4,0.5,0.4
				c0.6,0,1.7,0.1,2.3,0.2c2.2,0.5,2.7,1.5,2.9,3.8c0.1,2.1,0.1,4,0.1,14.4v8.3c0,6.9-0.8,12.5-3.9,16.3c-2.4,2.9-6.4,4.8-10.5,4.8
				c-3.8,0-6.8-0.6-10.1-3.7c-2.9-2.7-5-6.9-5-16.5v-9.3c0-10.4,0-12.3,0.1-14.4c0.1-2.3,0.7-3.5,2.5-3.8c0.8-0.1,1.2-0.2,1.7-0.2
				c0.3,0,0.5-0.1,0.5-0.4c0-0.4-0.3-0.5-1.1-0.5c-2,0-6,0.2-6.6,0.2c-0.6,0-4.7-0.2-7.7-0.2c-0.7,0-1.1,0.1-1.1,0.5
				c0,0.3,0.3,0.4,0.5,0.4c0.6,0,1.7,0.1,2.3,0.2c2.2,0.5,2.7,1.5,2.9,3.8c0.1,2.1,0.1,4,0.1,14.4V313.3z M264.6,311.9
				c7-1.9,11.6-7.7,11.6-15.6c0-3.6-1.9-6.7-3.4-8.1c-1.1-1-4.2-3.9-12.7-3.9c-3.2,0-8.9,0.2-10.8,0.2c-0.8,0-4.5-0.2-7.5-0.2
				c-0.7,0-1.1,0.1-1.1,0.5c0,0.3,0.3,0.4,0.5,0.4c0.6,0,1.7,0.1,2.3,0.2c2.2,0.5,2.7,1.5,2.9,3.8c0.1,2.1,0.1,4,0.1,14.4v11.7
				c0,6.4,0,11.7-0.3,14.5c-0.3,1.9-0.6,3.4-1.9,3.7c-0.6,0.1-1.4,0.3-2,0.3c-0.4,0-0.5,0.2-0.5,0.4c0,0.4,0.3,0.5,1.1,0.5
				c2,0,6.2-0.2,6.3-0.2c0.3,0,4.5,0.2,8.2,0.2c0.7,0,1.1-0.2,1.1-0.5c0-0.2-0.1-0.4-0.5-0.4c-0.6,0-2.1-0.1-3-0.3
				c-2-0.3-2.4-1.7-2.6-3.7c-0.3-2.8-0.3-8.1-0.3-14.5v-1.6c0-0.3,0.1-0.5,0.5-0.5l6.5,0.1c0.4,0,0.7,0.2,0.9,0.4
				c1,2.2,2.4,6,4.4,10.1c2.8,5.6,3.2,8.1,6.1,9.7c1.7,0.9,3.5,1.2,7.3,1.2h3.2c1.2,0,1.6-0.1,1.6-0.5c0-0.2-0.3-0.4-0.6-0.4
				c-0.7,0-1.8-0.2-3-0.4c-1.1-0.2-4.2-1-6.2-4.6C270,324.1,267.2,317.5,264.6,311.9 M137.3,351.7c0-1.8-1.3-2.9-3.1-2.9
				c-1.7,0-2.7,1.3-2.7,2.9c0,2.1,1.7,2.9,2.9,2.9C135.7,354.5,137.3,353.7,137.3,351.7 M137.3,365c0-1.8-1.3-2.9-3.1-2.9
				c-1.7,0-2.7,1.3-2.7,2.9c0,2.1,1.7,2.9,2.9,2.9C135.7,367.8,137.3,367,137.3,365 M113.6,376.8c0,9.7,2.5,14.4,5.8,17.5
				c4.7,4.5,11.4,4.7,13.7,4.7c3.9,0,8.9-0.7,13.7-4.9c5.3-4.7,6.1-12.7,6.1-19.9v-7.1c0-10.4,0-12.2,0.1-14.4
				c0.1-2.3,0.7-3.4,2.5-3.8c0.8-0.1,1.2-0.2,1.7-0.2c0.3,0,0.5-0.1,0.5-0.4c0-0.4-0.3-0.5-1.1-0.5c-2,0-5.1,0.2-5.6,0.2
				c-0.4,0-4.1-0.2-7.1-0.2c-0.7,0-1.1,0.1-1.1,0.5c0,0.3,0.3,0.4,0.5,0.4c0.6,0,1.7,0.1,2.3,0.2c2.2,0.5,2.7,1.5,2.9,3.8
				c0.1,2.1,0.1,4,0.1,14.4v8.3c0,6.9-0.8,12.5-3.9,16.3c-2.4,2.9-6.4,4.8-10.4,4.8c-3.8,0-6.8-0.6-10-3.7c-2.9-2.7-5-6.9-5-16.4
				v-9.3c0-10.4,0-12.2,0.1-14.4c0.1-2.3,0.7-3.5,2.5-3.8c0.8-0.1,1.2-0.2,1.7-0.2c0.3,0,0.5-0.1,0.5-0.4c0-0.4-0.3-0.5-1.1-0.5
				c-2,0-6,0.2-6.6,0.2s-4.7-0.2-7.7-0.2c-0.7,0-1.1,0.1-1.1,0.5c0,0.3,0.3,0.4,0.5,0.4c0.6,0,1.7,0.1,2.3,0.2
				c2.2,0.5,2.7,1.5,2.9,3.8c0.1,2.1,0.1,4,0.1,14.4V376.8z M85.6,350.7l8.4,0.1c6.4,0.1,8,1.7,8.2,3.7l0.1,0.7
				c0.1,0.9,0.2,1.1,0.5,1.1c0.3,0,0.5-0.3,0.5-0.9c0-0.7,0.2-5.3,0.2-7.3c0-0.4,0-0.8-0.3-0.8c-0.3,0-0.9,0.2-1.9,0.3
				c-1.1,0.2-2.6,0.3-4.7,0.3H71.5c-0.8,0-3.3-0.1-5.3-0.3c-1.8-0.1-2.5-0.8-2.9-0.8c-0.3,0-0.5,0.9-0.7,1.3
				c-0.1,0.5-1.5,6.3-1.5,6.9c0,0.4,0.1,0.6,0.3,0.6c0.3,0,0.5-0.1,0.7-0.7c0.2-0.5,0.4-0.9,1.1-2.1c1.1-1.6,2.7-2.1,6.8-2.1
				l9.8-0.1v28.1c0,6.4,0,11.6-0.3,14.4c-0.3,1.9-0.6,3.4-1.9,3.7c-0.6,0.1-1.4,0.3-2,0.3c-0.4,0-0.5,0.2-0.5,0.4
				c0,0.4,0.3,0.5,1.1,0.5c2,0,6.2-0.2,6.5-0.2c0.3,0,4.5,0.2,8.2,0.2c0.7,0,1.1-0.2,1.1-0.5c0-0.2-0.1-0.4-0.5-0.4
				c-0.6,0-2.1-0.1-3-0.3c-2-0.3-2.4-1.7-2.6-3.7c-0.3-2.8-0.3-8-0.3-14.4V350.7z M380.7,357.2c2.1,2.4,9.6,10.8,17.3,19.1
				c7,7.6,16.6,17.4,17.3,18c3.5,3.5,4.3,4.3,4.9,4.3c0.5,0,0.6-0.3,0.6-4.7l0.1-39c0-4,0.3-5.5,2.5-5.9c0.8-0.2,1.3-0.2,1.6-0.2
				c0.5,0,0.7-0.2,0.7-0.5c0-0.4-0.5-0.5-1.2-0.5c-2.7,0-4.9,0.2-5.7,0.2c-0.7,0-3.9-0.2-6.9-0.2c-0.8,0-1.3,0.1-1.3,0.5
				c0,0.3,0.1,0.5,0.5,0.5c0.5,0,2.1,0.1,3.2,0.3c2.1,0.5,2.5,2,2.6,6.3l0.7,33.8c-2.1-2.2-9.4-10.3-15.9-17.4
				c-10.2-11-20.1-21.7-21.1-22.8c-0.7-0.7-1.8-2.1-2.4-2.1c-0.5,0-0.7,0.7-0.7,3.3l-0.1,38.1c0,6.1-0.3,8-2,8.4
				c-1,0.3-2.2,0.4-2.7,0.4c-0.3,0-0.5,0.1-0.5,0.4c0,0.5,0.4,0.5,1.1,0.5c3,0,5.8-0.2,6.4-0.2c0.6,0,3.3,0.2,7.1,0.2
				c0.8,0,1.2-0.1,1.2-0.5c0-0.3-0.2-0.4-0.5-0.4c-0.6,0-2.1-0.1-3.3-0.4c-1.8-0.5-2.5-2.3-2.6-7.7L380.7,357.2z M341.8,378.8
				c0,6.4,0,11.6-0.3,14.4c-0.3,1.9-0.6,3.4-1.9,3.7c-0.6,0.1-1.4,0.3-2,0.3c-0.4,0-0.5,0.2-0.5,0.4c0,0.4,0.3,0.5,1.1,0.5
				c1,0,2.5-0.1,3.9-0.1c1.4-0.1,2.5-0.1,2.7-0.1c1,0,2.6,0.1,5.2,0.2c2.6,0.1,6.2,0.2,11.2,0.2c2.6,0,3.1,0,3.6-1.7
				c0.3-1.4,0.9-5.9,0.9-6.4c0-0.5,0-1-0.4-1c-0.3,0-0.5,0.3-0.6,1c-0.5,2.7-1.3,4.1-3,4.8c-1.7,0.7-4.7,0.7-6.4,0.7
				c-6.5,0-7.5-0.9-7.7-5.5c-0.1-1.4,0-9.1,0-11.4v-5.8c0-0.3,0.1-0.5,0.5-0.5c1.1,0,7.7,0.1,9.5,0.3c2.6,0.3,3.2,1.4,3.5,2.3
				c0.3,0.9,0.3,1.5,0.3,2.2c0,0.3,0.1,0.6,0.5,0.6c0.5,0,0.5-0.7,0.5-1.3c0-0.5,0.1-2.9,0.3-4.3c0.2-2.2,0.5-3.3,0.5-3.7
				c0-0.4-0.1-0.5-0.3-0.5c-0.3,0-0.5,0.3-1,0.9c-0.6,0.7-1.5,0.8-3.1,0.9c-1.5,0.1-9.7,0.1-10.6,0.1c-0.3,0-0.4-0.2-0.4-0.7v-18.4
				c0-0.5,0.1-0.7,0.4-0.7c0.7,0,8,0.1,9.1,0.2c3.6,0.4,4.3,1.2,4.7,2.3c0.3,0.8,0.4,1.9,0.4,2.4c0,0.5,0.1,0.9,0.5,0.9
				c0.3,0,0.4-0.4,0.5-0.7c0.1-0.8,0.3-3.7,0.3-4.4c0.2-1.9,0.5-2.7,0.5-3.1c0-0.3-0.1-0.6-0.3-0.6c-0.3,0-0.6,0.3-0.9,0.3
				c-0.5,0.1-1.6,0.3-2.9,0.3c-1.5,0.1-14.8,0.1-15.2,0.1l-2.7-0.1c-1.5-0.1-3.3-0.1-4.8-0.1c-0.7,0-1.1,0.1-1.1,0.5
				c0,0.3,0.3,0.4,0.5,0.4c0.6,0,1.7,0.1,2.3,0.2c2.2,0.5,2.7,1.5,2.9,3.8c0.1,2.1,0.1,4,0.1,14.4V378.8z M321,392.4
				c0,1.1-0.5,1.9-1.3,2.3c-1.7,1-5.2,1.4-7.6,1.4c-6.1,0-12.2-2-17.4-7.1c-2.3-2.3-7.1-9-7.1-18.4c0-7.8,2.7-13.8,6.6-16.9
				c5.1-4,10-4.4,14.2-4.4c8.6,0,14,2.9,15.6,5.4c1,1.6,1.3,3.5,1.4,4.4c0.1,0.6,0.1,1,0.5,1c0.5,0,0.6-0.3,0.6-1.4
				c0-6.7,0.5-8.5,0.5-9.4c0-0.3-0.1-0.5-0.8-0.6c-1.7-0.1-4-0.3-5.4-0.7c-1.3-0.3-6-1.1-10.2-1.1c-5.1,0-11.7,0.5-17.7,4.2
				c-5.9,3.7-11.1,11.2-11.1,21.9c0,8.3,3.9,15.4,7.9,19c7.4,6.5,16.8,7.1,21.9,7.1c3.9,0,9.8-0.7,14.1-3c0.8-0.5,0.9-0.6,0.9-3.6
				V385c0-2.8,0-4.8,0.1-6.9c0.1-2.3,0.7-3.5,2.5-3.8c0.8-0.1,1.2-0.2,1.7-0.2c0.3,0,0.5-0.1,0.5-0.4c0-0.4-0.3-0.5-1.1-0.5
				c-2,0-6.2,0.2-6.5,0.2c-0.3,0-4.5-0.2-7.5-0.2c-0.7,0-1.1,0.1-1.1,0.5c0,0.3,0.3,0.4,0.5,0.4c0.6,0,1.7,0.1,2.3,0.2
				c2.7,0.7,3,1.5,3,6.9V392.4z M232.9,357.2c2.1,2.4,9.6,10.8,17.3,19.1c7,7.6,16.6,17.4,17.3,18c3.5,3.5,4.3,4.3,4.9,4.3
				c0.5,0,0.6-0.3,0.6-4.7l0.1-39c0-4,0.3-5.5,2.5-5.9c0.8-0.2,1.3-0.2,1.6-0.2c0.5,0,0.7-0.2,0.7-0.5c0-0.4-0.5-0.5-1.2-0.5
				c-2.7,0-4.9,0.2-5.7,0.2c-0.7,0-3.9-0.2-6.9-0.2c-0.8,0-1.3,0.1-1.3,0.5c0,0.3,0.1,0.5,0.5,0.5c0.5,0,2.1,0.1,3.3,0.3
				c2.1,0.5,2.5,2,2.6,6.3l0.7,33.8c-2.1-2.2-9.4-10.3-15.9-17.4c-10.2-11-20.1-21.7-21.1-22.8c-0.7-0.7-1.8-2.1-2.3-2.1
				s-0.7,0.7-0.7,3.3l-0.1,38.1c0,6.1-0.3,8-2,8.4c-1,0.3-2.2,0.4-2.7,0.4c-0.3,0-0.5,0.1-0.5,0.4c0,0.5,0.4,0.5,1.1,0.5
				c3,0,5.8-0.2,6.4-0.2c0.6,0,3.3,0.2,7.1,0.2c0.8,0,1.2-0.1,1.2-0.5c0-0.3-0.2-0.4-0.5-0.4c-0.6,0-2.1-0.1-3.3-0.4
				c-1.8-0.5-2.5-2.3-2.6-7.7L232.9,357.2z M212.8,367.1c0-10.4,0-12.2,0.1-14.4c0.1-2.3,0.7-3.5,2.5-3.8c0.8-0.1,1.2-0.2,1.7-0.2
				c0.3,0,0.5-0.1,0.5-0.4c0-0.4-0.3-0.5-1.1-0.5c-2,0-6.2,0.2-6.5,0.2c-0.3,0-4.5-0.2-6.7-0.2c-0.7,0-1.1,0.1-1.1,0.5
				c0,0.3,0.3,0.4,0.5,0.4c0.5,0,1.3,0.1,2.1,0.3c1.5,0.3,2.1,1.5,2.3,3.7c0.1,2.1,0.1,4,0.1,14.4v11.7c0,6.4,0,11.6-0.3,14.4
				c-0.3,1.9-0.6,3.4-1.9,3.7c-0.6,0.1-1.4,0.3-2,0.3c-0.4,0-0.5,0.2-0.5,0.4c0,0.4,0.3,0.5,1.1,0.5c2,0,6.2-0.2,6.5-0.2
				c0.3,0,4.5,0.2,8.2,0.2c0.7,0,1.1-0.2,1.1-0.5c0-0.2-0.1-0.4-0.5-0.4c-0.6,0-2.1-0.1-3-0.3c-2-0.3-2.4-1.7-2.6-3.7
				c-0.3-2.8-0.3-8-0.3-14.4V367.1z M168.3,378.8c0,6.4,0,11.6-0.3,14.4c-0.3,1.9-0.6,3.4-1.9,3.7c-0.6,0.1-1.4,0.3-2,0.3
				c-0.4,0-0.5,0.2-0.5,0.4c0,0.4,0.3,0.5,1.1,0.5c1,0,2.5-0.1,3.9-0.1c1.4-0.1,2.5-0.1,2.7-0.1c0.3,0,2.1,0.1,4.1,0.2
				c1.9,0.1,4.1,0.2,4.8,0.2c11.4,0,17-7.4,17-14.5c0-7.8-6.6-12.5-11.5-14c3.1-3.3,6.2-6.5,6.2-12c0-3.3-2.4-10-13.3-10
				c-3.1,0-5.7,0.2-7.3,0.2c-0.3,0-4.5-0.2-7.5-0.2c-0.7,0-1.1,0.1-1.1,0.5c0,0.3,0.3,0.4,0.5,0.4c0.6,0,1.7,0.1,2.3,0.2
				c2.2,0.5,2.7,1.5,2.9,3.8c0.1,2.1,0.1,4,0.1,14.4V378.8z M173.6,350.7c0-0.4,0.2-0.6,0.8-0.7c1.1-0.3,2.5-0.3,3.2-0.3
				c6.5,0,9,5.9,9,11.4c0,2.7-1,5.1-2.4,6.7c-1.4,1.6-2.3,1.7-6.1,1.7c-2.5,0-3.7-0.2-4.1-0.3c-0.3-0.1-0.5-0.3-0.5-0.7V350.7z
				 M173.6,371.8c0-0.3,0.1-0.5,0.4-0.5c1,0,4.3,0,5.2,0.1c1.6,0.2,3.3,0.4,5.5,1.9c5.1,3.5,6.5,9.3,6.5,13.3c0,7.5-5.8,9.4-9.4,9.4
				c-1.2,0-4.1-0.1-5.9-1c-2.1-1-2.1-1.9-2.3-5.2c-0.1-1-0.1-9.2-0.1-14.4V371.8z M142.6,261.1c0,3.2,0,5.8-0.2,7.2
				c-0.1,1-0.3,1.7-1,1.8c-0.3,0.1-0.7,0.1-1,0.1c-0.2,0-0.3,0.1-0.3,0.2c0,0.2,0.2,0.3,0.5,0.3c0.5,0,1.3-0.1,1.9-0.1
				c0.7,0,1.3,0,1.3,0c0.5,0,1.3,0,2.6,0.1c1.3,0,3.1,0.1,5.6,0.1c1.3,0,1.6,0,1.8-0.9c0.2-0.7,0.4-3,0.4-3.2c0-0.2,0-0.5-0.2-0.5
				c-0.2,0-0.2,0.1-0.3,0.5c-0.2,1.4-0.6,2-1.5,2.4c-0.9,0.4-2.3,0.4-3.2,0.4c-3.3,0-3.8-0.4-3.9-2.7c0-0.7,0-4.6,0-5.7v-2.9
				c0-0.1,0.1-0.2,0.2-0.2c0.6,0,3.9,0.1,4.8,0.2c1.3,0.1,1.6,0.7,1.7,1.2c0.1,0.4,0.1,0.8,0.1,1.1c0,0.2,0.1,0.3,0.2,0.3
				c0.2,0,0.2-0.4,0.2-0.6c0-0.2,0.1-1.5,0.1-2.1c0.1-1.1,0.3-1.7,0.3-1.9c0-0.2-0.1-0.3-0.2-0.3c-0.1,0-0.3,0.2-0.5,0.4
				c-0.3,0.3-0.8,0.4-1.6,0.5c-0.8,0.1-4.9,0.1-5.3,0.1c-0.2,0-0.2-0.1-0.2-0.3v-9.2c0-0.2,0.1-0.3,0.2-0.3c0.4,0,4,0,4.6,0.1
				c1.8,0.2,2.1,0.6,2.4,1.1c0.2,0.4,0.2,1,0.2,1.2c0,0.3,0.1,0.4,0.3,0.4c0.1,0,0.2-0.2,0.2-0.4c0.1-0.4,0.1-1.9,0.2-2.2
				c0.1-0.9,0.3-1.3,0.3-1.6c0-0.2,0-0.3-0.1-0.3c-0.2,0-0.3,0.1-0.5,0.2c-0.3,0.1-0.8,0.1-1.4,0.2c-0.8,0-7.4,0-7.6,0l-1.4-0.1
				c-0.7,0-1.6,0-2.4,0c-0.4,0-0.5,0.1-0.5,0.3c0,0.1,0.1,0.2,0.3,0.2c0.3,0,0.9,0,1.1,0.1c1.1,0.2,1.4,0.8,1.4,1.9
				c0.1,1.1,0.1,2,0.1,7.2V261.1z M103.1,261.1c0,3.2,0,5.8-0.2,7.2c-0.1,1-0.3,1.7-1,1.8c-0.3,0.1-0.7,0.1-1,0.1
				c-0.2,0-0.3,0.1-0.3,0.2c0,0.2,0.2,0.3,0.5,0.3c0.5,0,1.3-0.1,1.9-0.1c0.7,0,1.3,0,1.3,0c0.5,0,1.3,0,2.6,0.1
				c1.3,0,3.1,0.1,5.6,0.1c1.3,0,1.6,0,1.8-0.9c0.2-0.7,0.4-3,0.4-3.2c0-0.2,0-0.5-0.2-0.5c-0.2,0-0.2,0.1-0.3,0.5
				c-0.2,1.4-0.6,2-1.5,2.4c-0.9,0.4-2.3,0.4-3.2,0.4c-3.3,0-3.8-0.4-3.9-2.7c0-0.7,0-4.6,0-5.7v-2.9c0-0.1,0.1-0.2,0.2-0.2
				c0.6,0,3.9,0.1,4.8,0.2c1.3,0.1,1.6,0.7,1.7,1.2c0.1,0.4,0.1,0.8,0.1,1.1c0,0.2,0.1,0.3,0.2,0.3c0.2,0,0.2-0.4,0.2-0.6
				c0-0.2,0.1-1.5,0.1-2.1c0.1-1.1,0.3-1.7,0.3-1.9c0-0.2-0.1-0.3-0.2-0.3c-0.1,0-0.3,0.2-0.5,0.4c-0.3,0.3-0.8,0.4-1.6,0.5
				c-0.8,0.1-4.9,0.1-5.3,0.1c-0.2,0-0.2-0.1-0.2-0.3v-9.2c0-0.2,0.1-0.3,0.2-0.3c0.4,0,4,0,4.6,0.1c1.8,0.2,2.1,0.6,2.4,1.1
				c0.2,0.4,0.2,1,0.2,1.2c0,0.3,0.1,0.4,0.3,0.4c0.1,0,0.2-0.2,0.2-0.4c0.1-0.4,0.1-1.9,0.2-2.2c0.1-0.9,0.3-1.3,0.3-1.6
				c0-0.2,0-0.3-0.1-0.3c-0.2,0-0.3,0.1-0.5,0.2c-0.3,0.1-0.8,0.1-1.4,0.2c-0.8,0-7.4,0-7.6,0l-1.4-0.1c-0.7,0-1.6,0-2.4,0
				c-0.4,0-0.5,0.1-0.5,0.3c0,0.1,0.1,0.2,0.3,0.2c0.3,0,0.9,0,1.1,0.1c1.1,0.2,1.4,0.8,1.4,1.9c0.1,1.1,0.1,2,0.1,7.2V261.1z
				 M122,261.1c0,3.2,0,5.8-0.2,7.2c-0.1,1-0.3,1.7-1,1.8c-0.3,0.1-0.7,0.1-1,0.1c-0.2,0-0.3,0.1-0.3,0.2c0,0.2,0.2,0.3,0.5,0.3
				c0.5,0,1.3-0.1,1.9-0.1c0.7,0,1.3,0,1.3,0c0.1,0,1.1,0,2,0.1c1,0,2,0.1,2.4,0.1c5.7,0,8.5-3.7,8.5-7.2c0-3.9-3.3-6.3-5.8-7
				c1.6-1.6,3.1-3.3,3.1-6c0-1.7-1.2-5-6.7-5c-1.5,0-2.8,0.1-3.6,0.1c-0.2,0-2.3-0.1-3.8-0.1c-0.4,0-0.5,0.1-0.5,0.3
				c0,0.1,0.1,0.2,0.3,0.2c0.3,0,0.9,0,1.1,0.1c1.1,0.2,1.4,0.8,1.4,1.9c0.1,1.1,0.1,2,0.1,7.2V261.1z M124.7,247.1
				c0-0.2,0.1-0.3,0.4-0.4c0.5-0.1,1.2-0.2,1.6-0.2c3.3,0,4.5,3,4.5,5.7c0,1.4-0.5,2.6-1.2,3.4c-0.7,0.8-1.2,0.9-3,0.9
				c-1.2,0-1.8-0.1-2-0.1c-0.2-0.1-0.2-0.1-0.2-0.4V247.1z M124.7,257.6c0-0.2,0.1-0.2,0.2-0.2c0.5,0,2.2,0,2.6,0.1
				c0.8,0.1,1.6,0.2,2.8,1c2.6,1.8,3.2,4.7,3.2,6.7c0,3.8-2.9,4.7-4.7,4.7c-0.6,0-2-0.1-2.9-0.5c-1-0.5-1-1-1.1-2.6
				c0-0.5,0-4.6,0-7.2V257.6z M201.6,255.3c0-5.2,0-6.1,0.1-7.2c0.1-1.2,0.3-1.7,1.2-1.9c0.4-0.1,0.6-0.1,0.8-0.1
				c0.1,0,0.3-0.1,0.3-0.2c0-0.2-0.2-0.3-0.5-0.3c-1,0-3.1,0.1-3.3,0.1c-0.2,0-2.3-0.1-3.8-0.1c-0.4,0-0.5,0.1-0.5,0.3
				c0,0.1,0.1,0.2,0.3,0.2c0.3,0,0.9,0,1.1,0.1c1.1,0.2,1.4,0.8,1.4,1.9c0.1,1.1,0.1,2,0.1,7.2v0.7c0,0.2-0.1,0.2-0.2,0.2h-14.1
				c-0.1,0-0.2,0-0.2-0.2v-0.7c0-5.2,0-6.1,0.1-7.2c0.1-1.2,0.3-1.7,1.2-1.9c0.4-0.1,0.6-0.1,0.8-0.1c0.1,0,0.3-0.1,0.3-0.2
				c0-0.2-0.2-0.3-0.5-0.3c-1,0-3.1,0.1-3.3,0.1c-0.2,0-2.3-0.1-3.8-0.1c-0.4,0-0.5,0.1-0.5,0.3c0,0.1,0.1,0.2,0.3,0.2
				c0.3,0,0.9,0,1.1,0.1c1.1,0.2,1.4,0.8,1.4,1.9c0.1,1.1,0.1,2,0.1,7.2v5.9c0,3.2,0,5.8-0.2,7.2c-0.1,1-0.3,1.7-1,1.8
				c-0.3,0.1-0.7,0.1-1,0.1c-0.2,0-0.3,0.1-0.3,0.2c0,0.2,0.2,0.3,0.5,0.3c1,0,3.1-0.1,3.3-0.1c0.2,0,2.3,0.1,4.1,0.1
				c0.4,0,0.5-0.1,0.5-0.3c0-0.1-0.1-0.2-0.3-0.2c-0.3,0-1-0.1-1.5-0.1c-1-0.1-1.2-0.9-1.3-1.8c-0.2-1.4-0.2-4-0.2-7.2v-3.5
				c0-0.2,0.1-0.2,0.2-0.2h14.1c0.1,0,0.2,0.1,0.2,0.2v3.5c0,3.2,0,5.8-0.2,7.2c-0.1,1-0.3,1.7-1,1.8c-0.3,0.1-0.7,0.1-1,0.1
				c-0.2,0-0.3,0.1-0.3,0.2c0,0.2,0.2,0.3,0.5,0.3c1,0,3.1-0.1,3.3-0.1c0.2,0,2.3,0.1,4.1,0.1c0.4,0,0.5-0.1,0.5-0.3
				c0-0.1-0.1-0.2-0.3-0.2c-0.3,0-1-0.1-1.5-0.1c-1-0.1-1.2-0.9-1.3-1.8c-0.2-1.4-0.2-4-0.2-7.2V255.3z M242.9,259.4
				c3.5-1,5.8-3.9,5.8-7.8c0-1.8-1-3.3-1.7-4.1c-0.5-0.5-2.1-1.9-6.3-1.9c-1.6,0-4.5,0.1-5.4,0.1c-0.4,0-2.3-0.1-3.8-0.1
				c-0.4,0-0.5,0.1-0.5,0.3c0,0.1,0.1,0.2,0.3,0.2c0.3,0,0.9,0,1.1,0.1c1.1,0.2,1.4,0.8,1.4,1.9c0.1,1.1,0.1,2,0.1,7.2v5.9
				c0,3.2,0,5.8-0.2,7.2c-0.1,1-0.3,1.7-1,1.8c-0.3,0.1-0.7,0.1-1,0.1c-0.2,0-0.3,0.1-0.3,0.2c0,0.2,0.2,0.3,0.5,0.3
				c1,0,3.1-0.1,3.1-0.1c0.2,0,2.3,0.1,4.1,0.1c0.4,0,0.5-0.1,0.5-0.3c0-0.1-0.1-0.2-0.3-0.2c-0.3,0-1-0.1-1.5-0.1
				c-1-0.1-1.2-0.9-1.3-1.8c-0.2-1.4-0.2-4-0.2-7.2v-0.8c0-0.2,0.1-0.3,0.2-0.3l3.2,0.1c0.2,0,0.4,0.1,0.4,0.2c0.5,1.1,1.2,3,2.2,5
				c1.4,2.8,1.6,4.1,3,4.8c0.9,0.5,1.8,0.6,3.6,0.6h1.6c0.6,0,0.8-0.1,0.8-0.3c0-0.1-0.1-0.2-0.3-0.2c-0.3,0-0.9-0.1-1.5-0.2
				c-0.5-0.1-2.1-0.5-3.1-2.3C245.7,265.5,244.3,262.2,242.9,259.4 M239.1,246.7c1,0,3.3-0.2,5.1,1.7c1.8,1.8,1.9,4.1,1.9,5.3
				c0,3.1-2.6,5.5-5.9,5.5c-1.4,0-2.9-0.2-3.4-0.5c-0.2-0.1-0.2-0.2-0.2-0.4v-10.9c0-0.2,0.1-0.3,0.3-0.4
				C237.2,246.8,238.1,246.7,239.1,246.7 M258.4,254.7c0-2.6,0-6,0-7.1c0-0.4,0.1-0.5,0.4-0.7c0.3-0.1,1.5-0.2,2.2-0.2
				c4,0,7.7,0.5,10.9,3.8c1.4,1.4,3.2,4.2,3.2,8.4c0,3.1-0.9,6.3-2.7,7.9c-2,2-4.8,3.1-7.9,3.1c-3.9,0-5.2-0.7-5.6-1.3
				c-0.3-0.4-0.3-1.7-0.4-2.5c0-0.6-0.1-3.7-0.1-7.2V254.7z M255.6,261.1c0,3.2,0,5.8-0.2,7.2c-0.1,1-0.3,1.7-1,1.8
				c-0.3,0.1-0.7,0.1-1,0.1c-0.2,0-0.3,0.1-0.3,0.2c0,0.2,0.2,0.3,0.5,0.3c0.5,0,1.3-0.1,1.9-0.1c0.7,0,1.3,0,1.3,0
				c0.2,0,1.3,0.1,2.8,0.2c1.4,0.1,3.2,0.2,4.6,0.2c5.6,0,8.6-2.3,10.1-3.8c1.9-2,3.6-5.2,3.6-9.4c0-4-1.6-6.7-3.2-8.5
				c-4-4.1-10-3.8-13.3-3.8c-2,0-4.1,0.1-4.5,0.1c-0.2,0-2.3-0.1-3.8-0.1c-0.4,0-0.5,0.1-0.5,0.3c0,0.1,0.1,0.2,0.3,0.2
				c0.3,0,0.9,0,1.1,0.1c1.1,0.2,1.4,0.8,1.4,1.9c0.1,1.1,0.1,2,0.1,7.2V261.1z M169.2,259.4c3.5-1,5.8-3.9,5.8-7.8
				c0-1.8-1-3.3-1.7-4.1c-0.5-0.5-2.1-1.9-6.3-1.9c-1.6,0-4.5,0.1-5.4,0.1c-0.4,0-2.3-0.1-3.8-0.1c-0.4,0-0.5,0.1-0.5,0.3
				c0,0.1,0.1,0.2,0.3,0.2c0.3,0,0.9,0,1.1,0.1c1.1,0.2,1.4,0.8,1.4,1.9c0.1,1.1,0.1,2,0.1,7.2v5.9c0,3.2,0,5.8-0.2,7.2
				c-0.1,1-0.3,1.7-1,1.8c-0.3,0.1-0.7,0.1-1,0.1c-0.2,0-0.3,0.1-0.3,0.2c0,0.2,0.2,0.3,0.5,0.3c1,0,3.1-0.1,3.1-0.1
				c0.2,0,2.3,0.1,4.1,0.1c0.4,0,0.5-0.1,0.5-0.3c0-0.1-0.1-0.2-0.3-0.2c-0.3,0-1-0.1-1.5-0.1c-1-0.1-1.2-0.9-1.3-1.8
				c-0.2-1.4-0.2-4-0.2-7.2v-0.8c0-0.2,0.1-0.3,0.2-0.3l3.2,0.1c0.2,0,0.4,0.1,0.4,0.2c0.5,1.1,1.2,3,2.2,5c1.4,2.8,1.6,4.1,3,4.8
				c0.9,0.5,1.8,0.6,3.6,0.6h1.6c0.6,0,0.8-0.1,0.8-0.3c0-0.1-0.1-0.2-0.3-0.2c-0.3,0-0.9-0.1-1.5-0.2c-0.5-0.1-2.1-0.5-3.1-2.3
				C172,265.5,170.6,262.2,169.2,259.4 M165.4,246.7c1,0,3.3-0.2,5.1,1.7c1.8,1.8,1.9,4.1,1.9,5.3c0,3.1-2.6,5.5-5.9,5.5
				c-1.4,0-2.9-0.2-3.4-0.5c-0.2-0.1-0.2-0.2-0.2-0.4v-10.9c0-0.2,0.1-0.3,0.3-0.4C163.5,246.8,164.4,246.7,165.4,246.7
				 M214.1,259.8c-0.1,0-0.2-0.1-0.1-0.2l2.9-9c0.2-0.5,0.3-0.5,0.5,0l3.2,9c0,0.1,0,0.2-0.1,0.2H214.1z M209.5,267.1
				c-0.6,1.7-1.3,2.9-2.8,3.1c-0.3,0-0.7,0.1-1,0.1c-0.2,0-0.3,0.1-0.3,0.2c0,0.2,0.2,0.3,0.6,0.3c1.6,0,3.4-0.1,3.8-0.1
				c0.4,0,1.8,0.1,2.6,0.1c0.3,0,0.5-0.1,0.5-0.3c0-0.1-0.1-0.2-0.3-0.2h-0.3c-0.6,0-1.3-0.3-1.3-1c0-0.6,0.2-1.4,0.5-2.2l2-5.9
				c0.1-0.2,0.2-0.3,0.3-0.3h7.1c0.2,0,0.2,0.1,0.3,0.2l3.1,8.2c0.2,0.5,0,0.8-0.2,0.9c-0.1,0-0.2,0.1-0.2,0.2c0,0.2,0.4,0.2,1,0.2
				c2.3,0.1,4.7,0.1,5.2,0.1c0.4,0,0.7-0.1,0.7-0.3c0-0.2-0.1-0.2-0.3-0.2c-0.3,0-0.8,0-1.3-0.2c-0.7-0.2-1.7-0.7-2.9-3.7
				c-2-5.1-7.3-18.8-7.7-20.1c-0.4-1-0.5-1.2-0.7-1.2c-0.2,0-0.3,0.2-0.7,1.3L209.5,267.1z M316.5,259.8c-0.1,0-0.2-0.1-0.1-0.2
				l2.9-9c0.2-0.5,0.3-0.5,0.5,0l3.2,9c0,0.1,0,0.2-0.1,0.2H316.5z M314.8,270.8c0.3,0,0.5-0.1,0.5-0.3c0-0.1-0.1-0.2-0.3-0.2h-0.3
				c-0.6,0-1.3-0.3-1.3-1c0-0.6,0.2-1.4,0.5-2.2l2-5.9c0.1-0.2,0.2-0.3,0.3-0.3h7.1c0.2,0,0.2,0.1,0.3,0.2l3.1,8.2
				c0.2,0.5,0,0.8-0.2,0.9c-0.1,0-0.2,0.1-0.2,0.2c0,0.2,0.4,0.2,1,0.2c2.3,0.1,4.7,0.1,5.2,0.1c0.4,0,0.7-0.1,0.7-0.3
				c0-0.2-0.1-0.2-0.3-0.2c-0.3,0-0.8,0-1.3-0.2c-0.7-0.2-1.7-0.7-2.9-3.7c-2-5.1-7.3-18.8-7.7-20.1c-0.4-1-0.5-1.2-0.7-1.2
				c-0.2,0-0.3,0.2-0.7,1.3l-7.5,20.6c-0.5,1.4-1,2.5-2.1,2.9c-0.9-0.3-1.7-0.9-2.8-2.2c-2.5-2.8-7.7-9.4-8.9-11.1
				c0.7-0.8,6.5-6.5,7.4-7.3c1.5-1.4,2.2-2.3,3.6-2.9c0.7-0.3,1.4-0.5,1.9-0.5c0.3,0,0.3-0.1,0.3-0.2c0-0.2-0.1-0.2-0.5-0.2
				c-0.8,0-3,0.1-3.2,0.1c-0.8,0-1.8-0.1-2.5-0.1c-0.2,0-0.4,0.1-0.4,0.2c0,0.1,0.1,0.2,0.3,0.3c0.3,0.1,0.4,0.3,0.4,0.7
				c0,0.6-0.9,1.4-1.8,2.4c-1.2,1.3-7.2,7.4-7.8,8.1l-0.1-2c0-5.2,0-6.1,0.1-7.2c0.1-1.2,0.3-1.7,1.2-1.9c0.4-0.1,0.6-0.1,0.8-0.1
				c0.1,0,0.3-0.1,0.3-0.2c0-0.2-0.2-0.3-0.5-0.3c-1,0-2.9,0.1-3.2,0.1c-0.2,0-2.2-0.1-3.7-0.1c-0.4,0-0.5,0.1-0.5,0.3
				c0,0.1,0.1,0.2,0.3,0.2c0.3,0,0.9,0,1.1,0.1c1.1,0.2,1.4,0.8,1.4,1.9c0.1,1.1,0.1,2,0.1,7.2v5.9c0,3.2,0,5.8-0.2,7.2
				c-0.1,1-0.3,1.7-1,1.8c-0.3,0.1-0.7,0.1-1,0.1c-0.2,0-0.3,0.1-0.3,0.2c0,0.2,0.2,0.3,0.5,0.3c1,0,2.9-0.1,3.2-0.1
				s2.2,0.1,3.8,0.1c0.4,0,0.5-0.1,0.5-0.3c0-0.1-0.1-0.2-0.3-0.2c-0.3,0-0.8-0.1-1.3-0.1c-1-0.1-1.2-0.9-1.3-1.8
				c-0.2-1.4-0.2-4-0.2-7.2l0-3.2c0.7,1,3.8,5.1,5.9,7.7c1.8,2.2,3.1,3.8,4.5,4.6c0.6,0.3,0.9,0.6,2.5,0.6c0,0,2.2-0.1,3.3-0.1
				C312.9,270.7,314,270.8,314.8,270.8 M378.9,271.2c1.8,0,3.6-0.4,5-1.4c2.3-1.6,2.8-4.2,2.8-5.5c0-2.7-0.9-4.7-4.9-7.8l-0.9-0.7
				c-3.2-2.5-4.1-3.7-4.1-5.6c0-2.4,1.8-3.9,4.1-3.9c3.1,0,4,1.4,4.2,1.8c0.2,0.4,0.4,1.3,0.4,1.7c0,0.3,0.1,0.4,0.3,0.4
				c0.2,0,0.2-0.2,0.2-0.8c0-2.3,0.1-3.4,0.1-3.5c0-0.2-0.1-0.2-0.3-0.2c-0.3,0-0.5,0-1.2-0.2c-0.8-0.2-1.8-0.3-3.1-0.3
				c-4.2,0-6.9,2.4-6.9,6c0,2.3,0.8,4.3,4.3,7.2l1.5,1.2c2.9,2.4,3.8,3.7,3.8,6c0,2.1-1.6,4.4-4.8,4.4c-2.2,0-4.4-0.9-4.9-3.4
				c-0.1-0.5-0.1-0.9-0.1-1.2c0-0.3,0-0.4-0.2-0.4c-0.2,0-0.2,0.2-0.3,0.5c0,0.5-0.2,1.9-0.2,3.5c0,0.9,0,1,0.5,1.3
				C375.8,271,377.3,271.2,378.9,271.2 M362,255.3c0-5.2,0-6.1,0.1-7.2c0.1-1.2,0.3-1.7,1.3-1.9c0.4-0.1,0.9-0.1,1.1-0.1
				c0.1,0,0.3-0.1,0.3-0.2c0-0.2-0.2-0.3-0.5-0.3c-1,0-3.4,0.1-3.6,0.1c-0.2,0-2.3-0.1-3.8-0.1c-0.4,0-0.5,0.1-0.5,0.3
				c0,0.1,0.1,0.2,0.3,0.2c0.3,0,0.9,0,1.1,0.1c1.1,0.2,1.4,0.8,1.4,1.9c0.1,1.1,0.1,2,0.1,7.2v5.9c0,3.2,0,5.8-0.2,7.2
				c-0.1,1-0.3,1.7-1,1.8c-0.3,0.1-0.7,0.1-1,0.1c-0.2,0-0.3,0.1-0.3,0.2c0,0.2,0.2,0.3,0.5,0.3c0.5,0,1.2,0,1.9-0.1
				c0.7,0,1.2,0,1.4,0c1,0,2,0,3.4,0.1c1.4,0,3.1,0.1,5.5,0.1c1.8,0,1.9-0.1,2.1-0.9c0.3-1,0.5-3,0.5-3.3c0-0.4,0-0.5-0.2-0.5
				c-0.2,0-0.3,0.2-0.3,0.4c-0.1,0.6-0.4,1.5-0.9,2c-0.8,1-2.3,1-4,1c-2.6,0-3.5-0.2-4-0.8c-0.6-0.6-0.7-2.7-0.7-7.6V255.3z
				 M345.6,259.4c3.5-1,5.8-3.9,5.8-7.8c0-1.8-1-3.3-1.7-4.1c-0.5-0.5-2.1-1.9-6.3-1.9c-1.6,0-4.5,0.1-5.4,0.1
				c-0.4,0-2.3-0.1-3.8-0.1c-0.4,0-0.5,0.1-0.5,0.3c0,0.1,0.1,0.2,0.3,0.2c0.3,0,0.9,0,1.1,0.1c1.1,0.2,1.4,0.8,1.4,1.9
				c0.1,1.1,0.1,2,0.1,7.2v5.9c0,3.2,0,5.8-0.2,7.2c-0.1,1-0.3,1.7-1,1.8c-0.3,0.1-0.7,0.1-1,0.1c-0.2,0-0.3,0.1-0.3,0.2
				c0,0.2,0.2,0.3,0.5,0.3c1,0,3.1-0.1,3.1-0.1c0.2,0,2.3,0.1,4.1,0.1c0.4,0,0.5-0.1,0.5-0.3c0-0.1-0.1-0.2-0.3-0.2
				c-0.3,0-1-0.1-1.5-0.1c-1-0.1-1.2-0.9-1.3-1.8c-0.2-1.4-0.2-4-0.2-7.2v-0.8c0-0.2,0.1-0.3,0.2-0.3l3.2,0.1c0.2,0,0.4,0.1,0.4,0.2
				c0.5,1.1,1.2,3,2.2,5c1.4,2.8,1.6,4.1,3,4.8c0.9,0.5,1.8,0.6,3.6,0.6h1.6c0.6,0,0.8-0.1,0.8-0.3c0-0.1-0.1-0.2-0.3-0.2
				c-0.3,0-0.9-0.1-1.5-0.2c-0.5-0.1-2.1-0.5-3.1-2.3C348.3,265.5,346.9,262.2,345.6,259.4 M341.7,246.7c1,0,3.3-0.2,5.1,1.7
				c1.8,1.8,1.9,4.1,1.9,5.3c0,3.1-2.6,5.5-5.9,5.5c-1.4,0-2.9-0.2-3.4-0.5c-0.2-0.1-0.2-0.2-0.2-0.4v-10.9c0-0.2,0.1-0.3,0.3-0.4
				C339.8,246.8,340.7,246.7,341.7,246.7"/>
			<path class="st0" d="M597.4,310c0,0.5,0.1,0.9,0.3,1.2c-0.2,0.6-0.3,1.1-0.4,1.9c-0.2,1.4-0.1,2.3,0.3,3.7l0.8-1.8l0.1-2.8
				c0.8,0.8,1.7,1.4,2.1,2.8c0.3,1.2,0.2,2.8-0.4,4.4c-2.4-0.2-4-1-4.7-3C594.9,315,595.3,311.4,597.4,310 M565,309.6
				c1.9-1.5,5.1-1.4,6.6,0.5c-1.5,0.1-3,0.9-3.9,1.5l-0.9-1.8L565,309.6z M565.1,316.3c-1.7-1.4-2.2-3.5-1.2-5.5l1.4,0.4l1.4,1.1
				C565.7,313.4,565.3,314.6,565.1,316.3 M574.7,259.4c1,1.4,1.7,3.1,2.3,5c-1.5-0.8-2.9-1.5-4.2-2L574.7,259.4z M566.1,255.4
				c2.9,0.2,5,0.9,6.6,1.9l0.2,1.5c0,0-0.8,2-1.3,3.2c-0.9-0.2-1.8-0.4-2.7-0.5c-0.2-0.5-0.5-1.1-0.8-1.4c-0.7-0.8-1.3-1.2-2.2-1.6
				l0.2-1.6L566.1,255.4z M557,258.3c2.1-1.7,4.6-2.8,7.5-2.9c-0.2,1.2-0.8,3.1-1,3.7c0.1,0.2,0.9,1.4,1.1,2.2
				c-1.2,0-2.2,0.1-3.2,0.2C560.2,260.6,558,259,557,258.3 M552.6,263.5c0.9-1.6,2-3.1,3.4-4.4c0.7,0.4,1.2,0.7,2,1.3
				c0.5,0.5,0.9,0.8,1.3,1.3c-2.2,0.5-4.2,1.3-6.4,2.6c0-0.1,0-0.3-0.1-0.5L552.6,263.5z M589.1,260.3c0.5,0.3,0.7,0.6,0.9,1.1
				c-2.9,1.5-4.7,2.9-7,5.6c-0.1-2-0.5-4.2,0.6-6.5c0.5-0.2,0.9-0.3,1.5-0.3c0.7,0,2.2-0.2,2.6-0.3
				C588.2,259.7,588.6,259.9,589.1,260.3 M591.9,255.2c0.6-0.1,1.3-0.1,2,0c3.4,0.1,5.6,1,8,3.3c-2.2,0-4,0.1-5.7,0.5l-2.4-0.6
				L591.9,255.2z M586.4,257.1c1.1-0.8,2.3-1.3,3.7-1.6c0.5,0.4,1.1,1.1,1.4,1.4c0.7,0.7,1.2,1.3,1.2,2.3c0,0.4-0.1,0.7-0.2,1
				l-0.9,0.4c-0.4-0.6-0.9-1-1.6-1.5C589.4,258.9,587.3,257.6,586.4,257.1 M593.1,271.3c-1.4,0.5-2.8,1.2-4,2.1
				c-0.5-1.7-0.7-3.5-0.3-3.7c1-0.1,1.6-0.1,2.6,0.3C592.1,270.4,592.6,270.7,593.1,271.3 M599,270.1c-1.6,0.1-3,0.4-4.4,0.7
				c0-0.5,0-0.9,0-1.5c-0.1-1.5-0.2-2.3-0.5-3.7c1,0.6,1.5,1,2.4,1.7C597.6,268.3,598.2,269,599,270.1 M607.5,271
				c-1.5-0.5-3.2-0.8-5-0.9c0-0.6,0-1,0-1.7c0-1.1-0.1-1.7-0.2-2.7c0.8,0.2,1.3,0.4,2,0.8c0.9,0.6,1.4,1.1,2,2
				C607,269.4,607.3,270,607.5,271 M611.7,265.4c3.3,2.9,5.1,7.1,3.9,11.1c-1.6-1.7-3.2-3.1-5-4.1c-0.5-0.9-0.7-1.6-0.7-2.6
				C609.9,267.9,610.4,266.5,611.7,265.4 M604.6,261.9c0.9,0.2,1.8,0.5,2.8,0.8c1.2,0.5,2.4,1.1,3.5,1.9c-0.9,0.8-1.5,1.4-2.6,2.2
				c-0.5,0.4-0.8,0.5-1.3,0.9c-1-1.3-1.5-2.1-1.9-3.7C604.7,263.1,604.6,262.6,604.6,261.9 M593.2,262.5c3.1-1,6.5-1.4,10-0.9
				c-0.8,0.3-1.3,0.7-2,1.4c-0.7,0.7-0.9,1.2-1.4,2.1c-0.4,0.7-0.6,1.1-0.8,1.9l-1.5-1.1c-1.1-0.8-1.8-1.3-2.9-2.1
				C594.1,263.3,593.7,263,593.2,262.5 M583,271.6c0.5-2,1.5-3.8,3-5c1.7-1.4,3.7-2.6,5.9-3.5c0,1,0.1,1.6,0.4,2.7
				c0.2,0.7,0.4,1,0.6,1.6c0.3,0.9,0.4,1.4,0.7,2.3c-1.5-0.5-2.3-0.8-3.8-1.1c-1-0.2-1.6-0.3-2.7-0.4c-0.1,0.4-0.1,0.7,0,1.1
				c0.1,0.9,0.9,1.3,0.9,2.2c0,0.5,0,0.8-0.2,1.3L583,271.6z M583.2,280c-0.4-1.2-0.6-2.6-0.6-4l1.6,0.4c0-0.5-0.1-0.8-0.1-1.4
				c-0.1-0.9-0.2-1.5-0.3-2.4c1.2,0.3,1.9,0.5,3.1,0.7c0.7,0.2,1.2,0.3,1.9,0.4C586.6,275.3,584.8,277.4,583.2,280 M547.8,305.3
				c1.3,1,2.1,1.5,3.5,2.2c1.3,0.7,2.1,1,3.5,1.5c-1.3,0.5-2.2,0.6-3.6,0.6c-0.7,0-1.1,0-1.7-0.1
				C549.5,309.5,547.9,307.6,547.8,305.3 M613.5,290.7c1.3,2.8,1.5,6,0,8.8c-0.8-1.9-2.3-4.4-4.4-6.2L613.5,290.7z M605.8,284.5
				c0.5,0.1,0.9,0.3,1.4,0.4c2.2,0.8,4.1,2.3,5.4,4.2c-0.3,0.4-0.5,0.7-0.9,1.2c-1,1.1-1.8,1.7-3.2,2.4c-0.2-0.2-0.4-0.3-0.6-0.4
				c0-1,0-2-0.3-3.1C607.1,287.3,606.7,286.1,605.8,284.5 M589.3,298.9c-1.5,2.2-2.6,4.7-3.4,7.4c0.2-3,0.7-5.9,1.6-8.4L589.3,298.9
				z M596.4,292.3c-2.5,1.3-4.8,3.4-6.6,6l-1.8-1.6c1.1-2.7,2.5-5.1,4.1-7L596.4,292.3z M605.5,291.2c-2.3-0.6-4.6-0.5-6.8,0.1
				c-0.6-0.8-2.1-1.5-2.1-1.5c-0.6-0.3-2.4-1-3.5-1.4c1.6-1.6,3.5-2.8,5.4-3.6c0.5,0.2,0.9,0.5,1.4,1c0.7,0.6,1,1,1.4,1.8
				c0.3-0.7,0.5-1.1,0.8-1.9c0.3-0.7,0.4-1.1,0.6-1.7c0.5,0,0.9,0,1.4,0.1c0.6,1.3,1.4,3.1,1.4,3.1l1.4,4.4
				C606.5,291.6,606,291.4,605.5,291.2 M590.1,288.6c-0.8,1-1.5,2.1-2,3.2c-0.6,1.2-1.1,2.4-1.6,3.6l-2.6-2.1l0.7-1.3l1.6-0.7
				l-0.9-1.3c0.8-0.5,1.2-0.7,2.1-1c0.7-0.3,1.1-0.6,1.9-0.5C589.7,288.4,589.9,288.5,590.1,288.6 M612.2,285.6l-0.6-0.4
				c-0.9-0.7-1.7-1.2-2.6-1.6c0-0.7-0.2-1.2-0.4-2c-0.3-0.8-0.5-1.2-0.9-1.9c-0.2,0.8-0.4,1.3-0.7,2.1l-0.3,0.9
				c-3.1-0.9-6.3-0.5-9.8,0.9c-2.8,1.1-4.9,2.8-6.5,4.8c-0.5-0.3-0.9-0.6-1.3-1.1c-0.6-0.6-0.9-1.1-1.3-1.9c0.9-0.4,1.5-0.5,2.5-0.6
				c0.7-0.1,1.2-0.1,1.9-0.1c-0.1-0.6-0.1-1-0.1-1.6c0-0.6-0.1-1-0.1-1.7c0.9,0,1.5,0,2.4,0.1c0.8,0.1,1.3,0.3,2,0.5
				c0.2-0.5,0.7-3.6,0.8-4c0.4,0.3,3.7,3,4.3,3.1c0-0.7,0-1,0.1-1.7c0.2-1.2,0.4-1.8,0.9-2.9c0.5,0.5,0.7,0.8,1.1,1.4
				c0.5,0.7,1.2,2.4,1.3,2.8c0.7-0.7,1.1-1.1,1.7-1.8c0.6-0.7,1-1.1,1.6-1.8c0.7,0.5,1.9,2.1,2.4,2.9C611,281.1,612,285,612.2,285.6
				 M616.9,281.3c0.4,0.8,0.8,1.7,1.1,2.6c1.4,3.9,1.7,6.6-0.7,10.7c-0.4-2.5-1.1-4.4-2.3-6.1c0-0.8,0.1-1.6,0.3-2.6
				C615.5,284.4,616.2,282.7,616.9,281.3 M610.8,275c2.2,1.1,3.9,2.7,5.1,4.8c-0.2,0.4-0.5,0.9-0.8,1.3c-0.6,0.9-1.1,1.3-2,2
				c0-0.8-0.3-1.5-0.6-2.3c-0.3-0.9-0.5-1.1-0.9-1.9C611.2,277.3,611,276.4,610.8,275 M602,273c1.9,0,3.9,0.3,6,0.9l0.6,0.2l0.8,0.8
				c-0.9,0.6-1.4,1-2.2,1.7c-0.8,0.8-1.2,1.3-1.9,2.2c-0.8-1.2-1.2-1.9-2-3.1C602.9,274.6,602.5,274,602,273 M583.2,289.9
				c0-0.4,0.1-0.8,0.2-1.2c0.5-3.3,3.8-8.8,7.4-11.5c0.5,0.1,0.9,0.2,1.5,0.4c0.9,0.3,1.3,0.6,2.1,1.1c0-0.8,0-1.2,0-2
				c0-0.6-0.1-1.1-0.2-1.6c0.9-0.5,1.8-0.9,2.8-1.2c0.4,0.2,0.8,0.4,1.3,0.8c0.7,0.5,1.1,0.9,1.6,1.5l1.2-3.1l0.4,0
				c0.1,1.4,0.1,2.3-0.1,3.7c-0.2,1-0.3,1.6-0.6,2.6l-4.1-2.9l-0.8,4.1c-1-0.2-1.6-0.4-2.7-0.5c-1.1-0.2-1.7-0.2-2.8-0.3
				c0,0.7,0,1.1,0.1,1.9c0.1,0.7,0.1,1.1,0.2,1.9c-0.9,0.5-1.5,0.8-2.6,1.1c-0.9,0.3-1.4,0.4-2.4,0.5c-0.2,0.4,0.4,0.7,1,1.1
				c0.5,0.3,0.5,0.7,0.8,1.2c0,0.3,0.1,0.6-0.2,0.7c-0.9,0.4-1.4,0.6-2.2,1L583.2,289.9z M583.1,298.8c-0.1-1.6-0.2-3.1-0.1-4.6
				c0.7,0.2,1.2,0.5,1.8,1.1c0.4,0.4,0.6,0.7,0.9,1.2c-0.3,0.5-0.5,0.7-0.9,1.2C584.2,298.1,583.8,298.4,583.1,298.8 M583.6,304.2
				c-0.2-1.6-0.4-3.2-0.5-4.7l2.1-0.2C584.6,301.3,584.1,303.1,583.6,304.2 M608.4,316.7c-1.7,2.2-3.6,4-5,5.1
				c1.7-2.5,2.4-4.2,3-7.1c0.3-1.3,0.5-2.5,0.5-3.7c0.7,0.5,1,1.1,1.3,1.9c0.3,0.9,0,1.5,0.1,2.4
				C608.4,315.8,608.4,316.2,608.4,316.7 M613.6,305.9c0,0.5-0.1,1-0.2,1.5c-0.5,2.4-1.8,4.9-3.4,7.2c-0.2-1-0.6-2.5-1.4-3.9
				c-0.5-0.9-1.2-1.4-1.7-1.7c0-0.5-0.1-0.9-0.1-1.3c1.2-0.9,2.1-1.3,3.6-1.6C611.7,305.7,612.5,305.7,613.6,305.9 M599.4,293.3
				c1-0.2,2.1-0.3,3.2-0.3c2.1,0.1,4.3,1,6,2.4c0.1,0.6,0.2,1,0,1.9c-0.3,1-0.5,1.7-1,2.7c-0.4-1.3-1-3.4-1.4-3.4
				c-0.5,0-2.9,0.9-3.8,1c0.1,0.4,0.2,0.9,0.3,1.4c0.5-0.2,2.3-0.7,2.9-0.9c0.3,0.8,1.1,3.4,1.2,4.5c0.6-0.3,0.7-0.4,1.4-0.4
				c0.4,0,1.2,0.1,1.6,0.1c-0.2,0.5-0.3,1.2-0.6,1.7c-0.5,0.9-0.9,1.5-1.7,2.1c-0.3,0.2-0.5,0.4-0.7,0.5l-0.1-0.4
				c-0.8-3.2-3-4.8-6-5.4c0.1-1.5,0.1-2.4-0.2-3.9C600.1,295.4,599.9,294.6,599.4,293.3 M588,305.7c0.5-1.6,1.2-3.3,2.2-4.9
				c2-3.2,4.5-5.8,7.7-7c0.3,1.1,1.3,3.9,1.3,3.9c0,0.5-0.1,2-0.1,2.9c-3.2-0.2-5.6,1.7-7.9,4.3c-0.4,0.4-0.7,0.9-1.1,1.4
				c-0.6,0.1-1.1,0-1.8-0.3C588.3,305.9,588.2,305.8,588,305.7 M588.3,311.7c-0.5-1-1.1-1.7-0.9-2.8c0.1-0.7,0.2-1.5,0.4-2.3
				c0.2,0.2,0.4,0.3,0.7,0.5c0.4,0.3,0.8,0.4,1.2,0.6C588.9,309.2,588.6,310.7,588.3,311.7 M555.5,265.6c2-1.2,4-1.9,5.5-2
				c-1.9,1.6-3.4,3.2-4.7,4.8c0-0.4-0.1-0.7-0.2-1.2C556.1,266.9,555.8,266.2,555.5,265.6 M549.2,271c1.2-1.5,2.7-2.9,4.3-4.1
				c0,0.3,0.1,0.5,0.2,0.8c0.2,0.5,0.8,1.7,1.3,2.5c-0.9,1.2-1.6,2.4-2.4,3.7c-0.7-0.6-1.1-1.1-1.8-1.7
				C550.5,272,549.6,271.4,549.2,271 M546.1,281.3c-0.4-2.7,0-5.4,1.6-8.2c0.1-0.2,0.3-0.5,0.4-0.7c0.2,0.6,0.5,1,0.9,1.6
				c0.4,0.5,1.7,1.3,2.5,1.8c-0.9,1.6-1.5,3.1-1.9,4.6L546.1,281.3z M548.3,287.2c-0.9-1.6-1.5-3.2-1.9-4.8c0.4-0.1,0.7-0.2,1.1-0.3
				c0.6-0.1,1.1-0.1,1.7-0.1C548.8,283.6,548.5,285.3,548.3,287.2 M561.5,309.9c-0.7,1.2-1.1,2.6-1.1,4.1c-1-0.8-1.7-2.1-2.2-3.5
				L561.5,309.9z M566.2,306c-0.1,0.1-0.3,0.1-0.4,0.2c-1.2,0.5-2.3,1.3-3.1,2.2l-4.8,0.6c-0.3-2.1-0.1-4.4,0.7-6.3
				c1.7,0.2,2.8,0.5,4.4,1.2C564.4,304.5,565.2,305,566.2,306 M575.6,308.5c-0.5-0.6-1.2-1.1-1.8-1.5c-0.5-1.5-1.1-3.3-1.4-3.8
				c-0.4-0.8-0.8-1.2-1.4-1.7c-0.7,0.4-1.1,0.6-1.7,1.2c-0.4,0.4-1.3,1.2-1.6,1.7c-0.3-0.6-0.5-0.9-0.9-1.5
				c-0.8-1.1-1.4-1.7-2.6-2.4c-0.3,0.3-0.5,0.6-0.6,1c-0.1,0.3-0.1,0.6,0,0.9c-0.9-0.1-1.4-0.2-2.1-0.6c-0.7-0.4-1.2-0.7-1.6-1.2
				c0.4-0.5,0.8-0.9,1.4-1.3C569.2,293.5,575.8,301.1,575.6,308.5 M569.8,272.8c-0.8-0.1-1.6-0.2-2.4-0.2c-1.1,0-2.1,0.1-3,0.3
				l1.6-2.8l0.8-1.1c0.8,0.6,1.2,1,1.8,1.8C569.1,271.5,569.5,272,569.8,272.8 M580.3,272.1c1,2.5,1.1,5.3,0.6,7.6
				c-2.6-3.7-5.6-5.8-9.4-6.7l1.6-5.8c1.3,1,2,1.7,2.9,3.1c0.6,0.9,1.6,3.1,2.3,4.9c0.1-0.4,0.3-0.8,0.6-1.3
				C579.3,273.2,579.7,272.7,580.3,272.1 M574.6,266c2.2,1,3.8,2.6,4.9,4.5c-0.1,0.2-0.3,0.4-0.5,0.6c-0.3,0.3-0.4,0.5-0.7,0.9
				c-0.3-0.2-0.5-0.4-0.8-0.7c-0.6-0.7-1.8-3.4-2.3-4.1C575,266.7,574.8,266.4,574.6,266 M560.2,267.5c2.6-1.7,5.5-2.6,8.9-2.6
				c1.2,0,2.3,0.1,3.3,0.4l0,0.7c-0.2,1.1-0.4,1.7-0.8,2.8c-0.3,0.7-0.6,1.1-1,1.8c-0.4-0.3-4.2-3.2-4.7-3.2
				c-0.4,1.1-1.8,4.8-2.6,5.8l-0.3,0.1c-0.3-1-0.6-1.7-1.4-2.5c-0.6-0.7-1.1-1-1.9-1.4l0.3-0.8L560.2,267.5z M555.2,272.3
				c1.1-1.4,2.3-2.7,3.5-3.7c0.2,0.6,0.4,1.2,0.5,1.7l2.2,2.1l0.7,1c-1.7,0.6-3.2,1.5-4.6,2.5c-0.4-0.6-1.1-1.6-1.2-2
				C556.2,273.7,555.7,272.7,555.2,272.3L555.2,272.3z M550.9,284.4c0-4.5,0.9-7.5,3.3-10.8l0.7,0.2c0.1,0.7,0.3,1.1,0.6,1.7
				c0.3,0.6,0.5,0.9,0.9,1.3C554,278.9,552.1,281.6,550.9,284.4 M573.7,289.3c-0.6-0.3-1.2-0.6-1.8-0.8c-0.2-0.7-0.3-1.3-0.4-2.1
				c-0.1-0.9-0.1-1.3-0.1-2.2c0.5,0.2,0.8,0.4,1.2,0.7c0.3,0.2,0.5,0.4,0.8,0.7c0.7-0.3,1.1-0.4,1.9-0.3c0.6,0.1,0.9,0.1,1.4,0.4
				c-0.8,0.7-1.3,1.1-1.9,1.9C574.3,288.3,574,288.7,573.7,289.3 M577.6,293.2c-1-1.6-2-2.7-3.2-3.4c0.9-0.9,1.4-1.4,2.4-2.3
				c0.8-0.7,1.2-1,2.1-1.6c-0.1,1.5-0.3,2.3-0.5,3.8C578.2,291.1,578,292,577.6,293.2 M581.8,299.5c0.1,2.5,0.1,5.1,0.1,8.2
				c-0.5-3.3-1-6.1-1.7-8.4L581.8,299.5z M581.6,290.6c0,0.4,0,0.9,0,1.3c0,2.2,0,4.1,0.1,6l-2.3-0.9c-0.3-0.8-0.6-1.5-0.9-2.1
				c0.1-0.6,0.2-1.1,0.4-1.7c0.3-1,0.6-1.6,1.1-2.5L581.6,290.6z M574.9,276.2c2.2,1.3,3.8,3.1,5,5.6c-0.1,0.4-0.3,0.7-0.6,1.1
				c-0.2,0.3-0.3,0.4-0.6,0.6l-2.3-2c0.1-0.7,0-1.2-0.4-1.8c-0.3-0.5-0.7-0.7-1.2-0.8c-0.1-0.6-0.1-1,0-1.6
				C574.8,276.9,574.9,276.6,574.9,276.2 M563.4,277.1c-2.8-0.1-5.1,0.8-7.1,2c1.5-2.3,4-3.8,6.9-4.4c0.2,0.4,0.2,0.7,0.3,1.2
				C563.5,276.3,563.5,276.7,563.4,277.1 M567.5,278c-0.5-0.3-1.1-0.5-1.7-0.6c-0.4-0.1-0.8-0.2-1.2-0.2c0.1-0.5,0.1-0.9,0.1-1.5
				c0-0.5-0.1-0.9-0.2-1.3c0.7-0.1,1.3-0.1,2-0.2l1.2,1.2c0.2,0.8,0.2,1.2,0,2C567.7,277.6,567.6,277.8,567.5,278 M564.8,279.4
				c1.7-0.1,3.5,0.1,5.2,0.7c-0.3-0.4-0.7-0.9-1.2-1.3l0-1.7c0.1-0.6,0.2-0.9,0.3-1.5c0.1-0.5,0.1-0.8,0.2-1.2l0.2,0
				c0.5,0.1,1,0.2,1.5,0.3c0.3,0.8,1,2.1,1.3,2.5c0.3,0.3,0.5,0.5,0.8,0.8c0,0-0.7,1.3-0.8,1.9c-0.2,1.2-0.1,2.3,0.3,3.2l-2.3-1.6
				c-0.2,0.6-0.4,1.3-0.3,1.6c0.3,1.3,0.4,2.1,0.3,3.4c-0.1,0.6-0.1,1.1-0.2,1.6c-2.2-0.4-4.5-0.1-6.5,0.6c-0.1-0.7-0.1-1.2,0-2
				c0.1-0.9,0.5-1.4,0.7-2.3c0.1-0.7,0-1.1,0.1-1.8C564.4,282.1,564.6,280.4,564.8,279.4 M556.9,282.1c1.8-1.3,3.9-2.1,6.2-2.5
				c-0.2,1.5-0.4,2.5-0.6,4.1l-0.3,2l-1-0.1c-0.6-0.4-0.9-0.6-1.5-1C558.5,283.7,557.8,283.1,556.9,282.1 M552,288.6
				c0.9-2.2,2.2-4.1,3.3-5.2c0.2,0.9,0.3,1.5,0.5,2.5c0.3,1.2,0.5,1.8,1,2.9c-0.7-0.1-1.1-0.2-1.9-0.1c-0.7,0-1,0.3-1.7,0.2
				C552.8,288.9,552.4,288.8,552,288.6 M549.9,297.3c0.1-1.3,0.4-2.2,0.9-3.5c0-1.4,0.3-2.9,0.9-4.4l2.2,3.8l-0.9,2.2
				c-0.8,0.4-1.2,0.7-1.9,1.1C550.6,296.8,550.3,297,549.9,297.3 M551.3,304.4c-0.9-1.5-1.4-3.3-1.5-5.3c0.9,0.5,1.5,1,2.2,1.9
				c0.7,0.8,1,1.4,1.5,2.4c-0.3,0.2-0.5,0.4-0.9,0.5C552.2,304.1,551.7,304.3,551.3,304.4 M557.6,300.3c-1.2,2.7-1.7,5.8-1.6,8.3
				c-1.7-0.9-3-2-4-3.3c0.5-0.1,0.8-0.3,1.4-0.5c0.8-0.3,1.2-0.5,2-0.8c-0.1-1.1-0.3-1.8-0.9-2.8c-0.4-0.7-0.9-0.9-1.1-1.6
				c-0.2-0.5-0.2-0.7-0.2-1.2c0.7-0.1,1.1-0.1,1.7,0.1c0.5,0.2,0.8,0.4,1.3,0.7C556.8,299.6,557.1,299.9,557.6,300.3 M559.3,297.4
				c-0.2,0.2-0.3,0.5-0.5,0.7l-1.6-2l-1.6-0.7c0.2-0.6,0.8-1.7,1.1-2.1c-0.7-0.3-1.5-2-1.8-2.9c0.9,0.1,1.4,0.2,2.2,0.1
				c0.6-0.1,0.9-0.1,1.5-0.3l-1.6-5.5c1.4,0.4,2.2,0.8,3.4,1.5c1,0.7,1.9,0.8,2.4,2c0.1,0.3,0.2,0.5,0.2,0.8c-1.8,0.8-3.2,2.1-4,3.9
				c-0.1,0.8-0.1,1.2-0.1,2C559.1,295.9,559.1,296.5,559.3,297.4 M579.1,301.7c0.3,1.9,0.5,4.1,0.3,6.4c-0.9-2.1-1.8-4.2-2.9-6.2
				L579.1,301.7z M575.4,293.6c1.7,1.9,3,4.4,3.6,7.6c-0.5-0.5-1.1-0.7-1.8-1c-0.7-0.2-1.3-0.3-1.9-0.3l-0.5-0.7
				c0.3-0.7,0.4-1.4,0.5-2.3C575.5,295.6,575.5,294.8,575.4,293.6 M569.8,290.1c1.7,0.5,3.3,1.4,4.7,2.6c-0.2,0.8-0.3,1.6-0.4,2.4
				c-0.1,1.1-0.2,1.9-0.2,2.9c-1.6-1.9-3.4-3.3-5.4-3.8L569.8,290.1z M562.1,290.8c1.8-1,3.8-1.4,6.1-1.1l0.2,0
				c-0.5,0.8-0.9,1.4-1.6,2.3c-0.5,0.6-0.8,1-1.4,1.5c-0.6-0.6-1-0.9-1.7-1.4C563,291.6,562.7,291.3,562.1,290.8 M560.5,291.8
				c0.4-0.3,0.7-0.5,1.1-0.7c0.2,0.3,0.4,0.6,0.6,1c0.4,0.9,0.6,1.6,0.7,2.4c-0.9,0.4-1.7,0.9-2.4,1.6c-0.2-0.5-0.3-0.9-0.4-1.5
				C560,293.5,560.1,292.7,560.5,291.8 M595.4,303.8c1.1-0.6,2.3-1,3.6-1c-0.4,0.4-0.6,0.9-0.9,1.5c-0.2,0.4-0.3,0.7-0.4,1.2
				c-0.3-0.5-0.6-0.8-1.2-1.2C596.1,304.1,595.8,303.9,595.4,303.8 M599.7,302.8c0.3,0,0.6,0.1,0.8,0.2c1.7,0.4,2.8,1.7,3.5,3.5
				c-1,0.5-1.6,0.9-2.5,1.8c-0.3,0.3-0.5,0.5-0.7,0.8c-0.4-0.3-0.9-0.6-1.5-0.8c-0.3-0.1-0.6-0.2-1-0.2c0-1.3,0.2-2.2,0.7-3.6
				C599.3,303.9,599.4,303.4,599.7,302.8 M604.7,309c0.4,2.9-0.2,6.3-1.6,8.7c0.3-2,0.2-4.3-0.5-6.2c0.8-0.4,1.3-0.9,1.8-1.8
				C604.5,309.5,604.6,309.3,604.7,309 M590,312.3c0.3-2.4,1.3-4.6,2.8-6.3c0.8,0.2,1.4,0.5,2.1,1.1c0.6,0.4,0.9,0.7,1.3,1.2
				C593.7,308.7,591.2,310.3,590,312.3 M613.9,312.8c-4.9,8.3-11.3,12.4-14.5,12.3c0.6-0.9,0.8-2.1,0.7-2.8
				c-2.8,0.1-4.7-1.3-6.2-3.8c-1.1-1.9-0.8-5.7-0.8-5.7c-2.6-0.4-4.1,2.3-4.1,4.7v24.3c0,1.8,0.2,3.1,0.9,4.3
				c2.6,5.2,8.5,8.3,13.5,7.7c-2.2,2.4-4.4,4.1-7.9,4.4c-2,0.2-3.2,0.1-5.1-0.6c2.4,2.2,4.8,3.3,8.1,2.7c3.4-0.6,5.3-3.6,7-4.1
				c1.1-0.3,2-0.1,3.2,0.1c-1.5,0.2-2.6,1-3.4,2c-0.6,0.8-0.8,2.3-0.8,3.2c1.1,0.3,2.3,0.3,3.7-0.2c1-0.4,1.5-0.8,2.3-1.6
				c1.5,1,2.5,3.5,2.5,3.5c-1.5-0.6-3-0.7-4.4-0.2c-4.2,1.4-5.9,4.1-13.8,2.7c-3.5-0.6-4.6-3.1-7.4-3.5c0.9,0.6,1.5,1.4,1.9,2.6
				c0.3,0.9,0.4,1.4,0.3,2.3c4.5-1.1,7.3,1.5,10.4,1.7c4,0.3,4.5-3.3,11-3.2c2,0,4.8,1.4,5.7,3.6c-2.1-1-5.3-0.7-7-0.2
				c-2.6,0.7-4.2,1.6-6.1,3.6c1.9,0.7,3.1,1,5.2,0.9c1.7-0.1,2.7-0.3,4.3-0.9c-2.3,2.2-4.4,3.4-8,4.6c-2.4,0.8-4,0.5-6.4,0
				c0.7-0.4,1.1-1.1,1.1-1.1c-3.6-0.6-3.9-2.8-6.9-3.4c-0.8-0.2-1.2-0.2-2-0.3c2.9,5.5,9.6,8.7,15,7.4c2.6-0.6,5.9-1.7,8.5-4.3
				c-0.8,3.8-2.2,5.8-5.3,7.2c-4.2,1.8-7.4,2.2-11.7,0.6c1.9,1.7,4.1,2.4,7,2.9c1.9,0.3,3,0.4,5,0.2c-5,3-13,1.4-18.4-2.6
				c-3.8-2.8-5.9-5.6-7.5-10.3c0.6,5,1.7,10.5,6.7,13.7c2.4,1.5,4.7,2.5,6.9,2.2c-1.8,1.3-4.5,1.6-6.6,1.6c-4.2,0-8.2-4-10-8.7
				c0.4,5.2-1.7,8.7-5.3,8.7c-2.1,0-3.1-0.9-5.1-0.9c-1.2,0-2.1,0.3-3.4,0.8c0.6-1.3,0.8-2.2,1.9-3.1c2.1-2,6.3-2,7.8-5.4
				c1-2.2,0.8-3.6,0.5-6c-1.5,4.3-4.3,6.3-9.1,8.5c-2.6,1.2-3.9,3.8-4.5,5.9c-0.2-2.9-0.1-4.9,1.5-7.4c1.8-3,6.2-3.8,8.1-6.9
				c1.4-2.4,1.7-4.1,1.7-6.9c-1,3.3-2.4,5.6-4.1,6.8c-3.6,2.5-7.5,3.6-9.3,6.7c-1.5,2.5-1.5,4.5-1,7.3c-1.9-1.8-2.6-3.9-2.2-6.5
				c0.3-2.3,1.2-3.7,3.1-5c-2.7,0.3-4.6,1.8-5.4,4.4c-0.7,2.1-0.4,3.8,0.9,5.6c-4.6-1.2-4.3-7.6-1.4-10.7c5-5.4,13.8-5,10.1-14.8
				c-0.4,3.7-1.1,5.9-3.8,7.8c-4.4,3.1-11.2,2.8-12.4,10.1c-0.4-5.6,1.4-7.5,4.6-10.5c2-1.9,5.8-2.8,5.6-8.3c-1.3,3-3.1,4.2-5.5,5.3
				c-2.9,1.3-4.6,0.7-7,3.7c-0.1-2.2,0.6-4.2,2.7-5.5c1.9-1.1,3.9-0.9,5.4-3c0,0-1.6-0.6-4,0.3c2.3-2.8,3.9-2.1,6.2-3.2
				c1.4-0.7,1.9-1.2,2.9-2.3c-2-0.2-3.8-0.3-5.8,0.2c-2.4,0.6-4.9,2.6-4.9,2.6c1.5-4.1,7.1-7.5,12.7-9.1c7.6-2.1,10.7-2.9,12.1-5.5
				c1-1.8,1.1-2.4,1.1-6.5v-24.1c0-2.7-4.4-1.9-5.6-0.6c-1.2,1.2-1.5,2.6-0.6,4.4c-5.5,0.1-6.9-4.2-6.9-4.2c0,0.5,0,1,0,1.5
				c-1.9-0.9-3-1.9-4.1-3.7c-0.7-1.2-1-1.9-1.3-3.3c-1.7,1.3-6.2,1.8-6.9,1.3c-1.8-1.3-2.9-4.8-3.4-8.2c-0.4-3.2-0.2-5.2,0.8-8.2
				c-2.6-4.6-3.2-10-3.2-15.4c0-4.5,2.8-10.3,6.6-14c1.5-7.6,9.7-12.1,15.7-12.1c5.7,0,10.4,3.3,13.2,9.3c2.6-6,8.8-9.3,15.1-9.3
				c5.9,0,10,2.2,13.4,7.1c2.8,0.6,4.5,1.2,6.5,3.3c2.6,2.7,4.4,5.2,4.6,9.7c0,1.3-0.5,1.9-1.2,3c2.3,3.2,3.2,5.6,3.2,9.5
				c0,4-0.4,6.1-2.1,9.3c0.2,0.4,0.3,0.6,0.4,1c0.2,0.6,0.2,0.9,0.2,1.6c-1.3,0.4-2.7,0.3-3,1.6
				C615.4,300.1,617.9,305.7,613.9,312.8 M567.6,373.1c3.1-3.1,4.1-6.8,2.7-10.9c-0.8-2.6-1.9-4-4.1-5.5c0.6-0.7,1-1.1,1.7-1.7
				c0.6-0.5,1-0.8,1.6-1.3l0.8,2.1c1,2.7,2.5,4.4,2.6,6.9C573,367.2,570.2,371,567.6,373.1 M572.4,388.2c1.3-0.3,2-0.6,3.1-1.4
				c1.5-1.1,2.2-2.1,2.9-3.9c0.2,2.1-0.1,4.2-2,5.2C574.9,388.8,573.7,388.7,572.4,388.2"/>
		</g>
	</g>
</g>
</svg>
